<svg xmlns="http://www.w3.org/2000/svg" viewBox="0 0 1080 1080"><defs><style>.cls-1{fill:#80554c;}.cls-2{fill:#fff;}.cls-3{fill:#412823;}.cls-4{fill:#36211b;}.cls-5{fill:#2e1a14;}</style></defs><g id="Capa_3" data-name="Capa 3"><path class="cls-1" d="M945.11,563.59a27,27,0,0,1-14,22.09,27,27,0,0,1-7.94,45,27,27,0,0,1-13.14,43.78,27,27,0,0,1-18.13,42A27,27,0,0,1,869.05,756a27,27,0,0,1-27.35,36.67A27,27,0,0,1,810.29,826a27,27,0,0,1-35.08,29.39A27,27,0,0,1,737,880.47,27.07,27.07,0,0,1,696,901a27.05,27.05,0,0,1-43,15.63,27.08,27.08,0,0,1-44.56,10.54,27.07,27.07,0,0,1-45.48,5.3,27.06,27.06,0,0,1-45.78,0,27.06,27.06,0,0,1-45.47-5.3,27.07,27.07,0,0,1-44.56-10.54,27.06,27.06,0,0,1-43-15.63,27.07,27.07,0,0,1-40.93-20.51A27,27,0,0,1,305,855.35,27.05,27.05,0,0,1,269.89,826a27,27,0,0,1-31.4-33.25A27,27,0,0,1,211.14,756a27,27,0,0,1-22.9-39.58,27,27,0,0,1-18.13-42A27,27,0,0,1,157,630.7a27,27,0,0,1-7.94-45,27,27,0,0,1-2.68-45.63A27,27,0,0,1,149,494.41a27,27,0,0,1,7.94-45,27,27,0,0,1,13.13-43.78,27,27,0,0,1,18.13-42,27,27,0,0,1,22.9-39.58,27,27,0,0,1,27.35-36.67,27,27,0,0,1,31.4-33.25A27,27,0,0,1,305,224.75a27,27,0,0,1,38.24-25.13,27.08,27.08,0,0,1,40.93-20.51,27.06,27.06,0,0,1,43-15.63,27.07,27.07,0,0,1,44.56-10.54,27.06,27.06,0,0,1,45.47-5.3,27.06,27.06,0,0,1,45.78,0,27.07,27.07,0,0,1,45.48,5.3A27.08,27.08,0,0,1,653,163.48a27.05,27.05,0,0,1,43,15.63A27.08,27.08,0,0,1,737,199.62a27,27,0,0,1,38.25,25.13,27,27,0,0,1,35.08,29.38,27,27,0,0,1,31.41,33.25,27,27,0,0,1,27.35,36.67,27,27,0,0,1,22.89,39.58,27,27,0,0,1,18.13,42,27,27,0,0,1,13.14,43.78,27,27,0,0,1,7.94,45,27,27,0,0,1,2.67,45.64A26.92,26.92,0,0,1,945.11,563.59Z"/><ellipse class="cls-2" cx="540.09" cy="540.05" rx="351.61" ry="351.03"/><path class="cls-1" d="M540.09,200h-5l.07,5c1.63,0,3.29,0,4.93,0v-5Zm-20,.58-1.56.09h0l-.62,0h-.64l-.29,0h-.7l-1.18.08.36,5c1.63-.12,3.28-.22,4.92-.32l-.29-5Zm-19.92,1.73-1.32.16h0l-.12,0h-.16l-.37,0h-.66l-.45.06h0l-.15,0h0l-1.71.22.66,5c1.62-.22,3.26-.42,4.89-.61l-.58-5Zm-19.79,2.9c-1.64.29-3.29.59-4.92.91l.94,4.91c1.61-.31,3.24-.61,4.85-.9l-.87-4.92Zm-19.58,4.06q-2.43.57-4.86,1.19l1.23,4.85c1.59-.41,3.2-.8,4.79-1.18l-1.16-4.86Zm-19.31,5.2-1.34.41h0l-.13,0h0l-.09,0h-.05l-.09,0-.06,0-.06,0-.18,0h0l-.1,0h0l-.11,0h0l-.12,0h0l-1.23.39h0l-.09,0,0,0-.08,0-.06,0-.07,0-.13,0h0l-.6.19,1.52,4.76,4.7-1.46-1.44-4.78Zm-19,6.33h0l-.06,0-.29.11h0l-.08,0-.05,0-.08,0-.06,0-.08,0-.06,0-.08,0-.12.05-.05,0-.08,0-.06,0-.08,0-.05,0-.11,0h0l-2,.76h0l-.11,0h0l-.09,0-.92.35,1.8,4.67c1.52-.59,3.07-1.17,4.61-1.73l-1.73-4.7ZM404,228.26c-1.35.59-2.69,1.18-4,1.79h0l-.1,0,0,0-.1,0-.12.05h0l-.14.06,2.07,4.55c1.49-.67,3-1.35,4.5-2l-2-4.58Zm-18.09,8.52-3.12,1.61h0l-.09,0,0,0-.07,0-1.09.57,2.33,4.42c1.45-.76,2.92-1.52,4.38-2.26l-2.27-4.46Zm-17.55,9.58q-2.16,1.26-4.3,2.55l2.58,4.28c1.4-.85,2.83-1.69,4.24-2.52l-2.52-4.31Zm-17,10.59-1.42.95h0l-.1.07,0,0-.09.06,0,0-.1.07-.09.06,0,0-.08.06,0,0-.1.06h0l-2,1.38,2.83,4.12c1.35-.93,2.72-1.86,4.08-2.76L351.36,257Zm-16.31,11.56-1.69,1.28h0l-.09.07,0,0-.09.06,0,0-.27.21h0l-.08.07h0l-.08.07h0l-1.55,1.2,3.07,3.95c1.29-1,2.6-2,3.91-3l-3-4ZM319.44,281l-.68.58h0l-.08.06,0,0-.07.06,0,0-.06,0-.07.06,0,0-.12.09h0l-.11.09h0l-.11.09h0l-2.36,2L319,288c1.23-1.08,2.48-2.16,3.73-3.22L319.44,281ZM304.59,294.4l-2.06,2h0l-.25.23,0,0-.05,0-.05.05-.05.05-.06.06,0,0-.08.08,0,0-.1.1,0,0-.07.07,0,0-.06.06,0,0-.06,0-.05.05h0l-.42.42,3.5,3.56c1.17-1.14,2.36-2.3,3.54-3.43l-3.45-3.61Zm-14,14.23-1.43,1.55,0,0-.07.08,0,0-.07.08,0,0-.13.14,0,0-.05.05-.05.06,0,.05,0,0-.05.06-.05.05,0,.05-.09.1,0,0-.06.06-.05.05-.05.06-.05.05-.05.06,0,.05-.06.06-.08.09-.05.05-.05.06,0,0-.06.07,0,0-.07.07v0l-.38.42,3.71,3.35c1.1-1.21,2.22-2.43,3.33-3.63l-3.66-3.41Zm-13.19,15c-1.07,1.29-2.11,2.58-3.16,3.88l3.9,3.13c1-1.28,2.07-2.56,3.11-3.82l-3.85-3.19Zm-12.29,15.78,0,0,0,.06,0,.05-1.19,1.63h0l-.17.24,0,0-.05.07,0,.06,0,.05-.06.08h0l-1.24,1.73,4.08,2.9c.94-1.33,1.92-2.68,2.88-4l-4-2.95Zm-11.35,16.47c-.9,1.39-1.8,2.8-2.68,4.21l4.24,2.66c.87-1.39,1.76-2.79,2.64-4.16l-4.2-2.71ZM243.36,373l-.08.13,0,0,0,.08-.05.09v0c-.33.57-.66,1.15-1,1.73l0,.07,0,.05-.06.1v0c-.38.68-.75,1.36-1.12,2l4.38,2.4q1.19-2.16,2.4-4.31L243.36,373ZM234,390.7q-1.1,2.24-2.16,4.5l4.52,2.14c.69-1.48,1.41-3,2.13-4.44L234,390.7Zm-8.27,18.2-.09.22h0l-.59,1.43h0l-.18.44,0,0,0,.08,0,.06,0,.06,0,.09,0,0-.88,2.16,4.64,1.86c.61-1.51,1.24-3.05,1.87-4.55l-4.61-1.94Zm-7.18,18.67-.25.73h0l0,.13v0l0,.11v0l0,.09v.05l0,.13v0l0,.11v.05l0,.09,0,.05,0,.08,0,.06,0,.1,0,0-.09.29h0l0,.13v0c-.27.78-.53,1.57-.8,2.36l4.74,1.58c.52-1.55,1.06-3.11,1.6-4.66l-4.72-1.65Zm-6.06,19.05-.48,1.73h0c-.06.2-.12.41-.17.61v0l0,.1v0l0,.1v0l-.14.48v0l0,.11v0l0,.1v0c0,.15-.09.32-.13.48h0l0,.11v0l0,.11v0l0,.1h0c0,.12-.07.24-.1.36v0l0,.1v.08l4.82,1.3c.43-1.57.87-3.17,1.32-4.74l-4.81-1.38ZM207.59,466h0c-.19.86-.38,1.73-.56,2.59h0l0,.15h0c-.05.2-.09.4-.13.6h0l0,.15h0c-.09.46-.19.92-.28,1.38l4.89,1c.33-1.6.68-3.22,1-4.82L207.59,466Zm-3.76,19.64c-.1.61-.19,1.23-.29,1.85h0l0,.14v0l0,.12v0l0,.13v0c-.14.87-.27,1.75-.4,2.62l5,.72c.24-1.62.49-3.25.75-4.87l-4.94-.79Zm-2.59,19.83c0,.11,0,.22,0,.33V506q-.23,2.25-.42,4.5l5,.43c.14-1.63.3-3.28.46-4.9l-5-.5Zm-1.43,19.94c-.07,1.66-.13,3.33-.18,5l5,.14c.05-1.64.1-3.29.17-4.93l-5-.21Zm4.73,19.93-5,.08c0,.41,0,.83,0,1.24v2h0v1.6h0v.09l5-.15c-.05-1.63-.09-3.29-.11-4.92Zm.88,19.68-5,.37c.12,1.67.26,3.33.41,5l5-.44c-.15-1.63-.28-3.29-.4-4.92Zm2,19.6-4.95.66v.18c.14,1.07.29,2.15.45,3.22v0l0,.11v.25c.06.39.12.78.17,1.16l4.95-.73c-.24-1.62-.47-3.26-.69-4.88Zm3.18,19.45-4.91.95c.26,1.33.52,2.65.8,4v0l0,.11,0,.05v.07l0,.09h0l.12.58,4.89-1c-.33-1.6-.66-3.23-1-4.83Zm4.32,19.22-4.84,1.24c.36,1.43.74,2.87,1.13,4.29h0l0,.12v0l0,.09.08.29,4.83-1.31c-.43-1.58-.85-3.18-1.26-4.76Zm5.45,18.93-4.76,1.53h0l.05.13v0l0,.11,0,.05,0,.09v.05l0,.09,0,0,0,.09v0l0,.14v0l0,.12,0,0,0,.09V645l0,.09,0,0,0,.11v0l.09.28,0,0,0,.1,0,.05,0,.09v.05l0,.1,0,0,0,.13h0l0,.13v.05l0,.09,0,.06,0,.07,0,.07,0,.07,0,.07v0l.1.32v0l0,.11v0c.14.42.28.82.42,1.25l4.74-1.6c-.52-1.55-1-3.12-1.54-4.68ZM227,660.8l-4.67,1.81c.25.63.5,1.26.74,1.89v0l0,.11,0,0,0,.08,0,.07,0,0c.31.8.63,1.6.95,2.39l4.64-1.88c-.61-1.51-1.22-3-1.81-4.58ZM234.61,679,230.06,681c.7,1.51,1.4,3,2.12,4.53l4.51-2.15c-.7-1.47-1.4-3-2.08-4.46Zm8.72,17.67L238.91,699l.14.27h0l.06.12v0l.07.12,0,0,.05.1,0,.05,0,.07,0,.07,0,0,0,.07,0,0,.14.26,0,.06,0,.06,0,.06,0,.07,0,.06,0,.06.06.1v0l.07.13v0l.06.11v0l.07.12h0l1.2,2.19,4.38-2.41c-.79-1.43-1.58-2.89-2.34-4.33Zm9.74,17.12-4.27,2.6c.43.71.87,1.42,1.31,2.13h0l1.32,2.12,4.23-2.66c-.87-1.38-1.74-2.79-2.59-4.19Zm10.73,16.53-4.11,2.84c1,1.38,1.91,2.73,2.88,4.09l4.07-2.9c-.95-1.33-1.91-2.69-2.84-4Zm11.69,15.86-3.94,3.08h0c.71.89,1.41,1.79,2.13,2.68l0,0,.06.08,0,0,0,.05.83,1,3.89-3.14c-1-1.27-2.05-2.57-3.06-3.86Zm12.59,15.16-3.75,3.3.52.59h0l.09.11,0,0,.08.08,0,0,.08.09,0,0,.09.11.05.05,0,0,.06.06,0,0,.06.07,0,0a2.85,2.85,0,0,1,.23.26h0l.08.09h0l.07.09h0l1.73,1.92,3.71-3.36c-1.1-1.21-2.21-2.45-3.29-3.67Zm13.46,14.39L298,779.21l.09.09h0l.05.05.05,0,.05.05.05.06,0,0,.08.07,0,0,.21.21,0,0,.09.09h0l2.77,2.75,3.5-3.57c-1.16-1.15-2.34-2.32-3.49-3.48Zm14.27,13.59L312.47,793l1.35,1.2,0,0,.08.06,0,0,.07,0,.05,0,.05,0,.08.08.05,0,.08.07,0,0,.07.06,0,0,.07.07,0,0,.09.08h0l.11.1,0,0,.08.08,0,0,.07.06,0,0,.07.06,0,0,.09.08.07.06.05,0,.06.06,0,0,.07.07,0,0,.65.56,3.28-3.77c-1.23-1.07-2.47-2.17-3.69-3.26ZM330.86,802l-3.12,3.91.05,0,0,0q1.89,1.5,3.79,3l0,0,0,0,3.06-4c-1.29-1-2.59-2-3.87-3Zm15.76,11.83-2.88,4.09.88.62,0,0,.07.06.06,0,0,0,.07,0,0,0,.28.19h0l.1.06h0l.1.07h0l2.4,1.66,2.82-4.13c-1.34-.92-2.71-1.87-4-2.81ZM363,824.71,360.41,829l.88.55h0l.1.06h0l.09.06,0,0,.09.05,0,0,.14.09.06,0,.06,0,.06,0,.06,0,.07,0,0,0,.08.05,0,0,.12.08,0,0,.09,0,0,0,.08.05.05,0,.08,0,0,0,.25.15,0,0,.09.06,0,0,.09.06,0,0,.38.23h0l.11.07h0l.79.48,2.58-4.29c-1.4-.84-2.82-1.7-4.21-2.57Zm17,9.91L377.69,839l1.86,1h0l.11.05h0l.43.23h0l.1,0h0l.1.06h0l1.75.92,2.32-4.43c-1.45-.75-2.91-1.53-4.35-2.31Zm17.59,8.88L395.55,848l.84.39h0l.13.06.08,0,0,0,.1.05h0c.89.42,1.78.82,2.68,1.23h0l.08,0,.07,0,.05,0,.42.18,2.05-4.55-4.47-2.06Zm18.08,7.83L413.89,856l1.16.46h0l.28.12h0l.1,0,.06,0,.07,0,.07,0,.07,0,.06,0,.06,0,.17.06h0l.09,0,0,0,.09,0,0,0,.09,0,0,0,.31.12h0l.08,0,.06,0,.07,0,.07,0,.06,0,.09,0,0,0,1.3.5,1.79-4.67c-1.53-.58-3.08-1.19-4.59-1.79Zm18.51,6.75-1.58,4.74,1,.34h0l.05,0,.09,0h0l.12,0h0l2.22.71h0l.14,0h0l.14.05h0l.28.09h.05l.08,0,.07,0,.07,0,.07,0,.06,0,.08,0h0l.1,0,1.5-4.77c-1.56-.49-3.13-1-4.68-1.51Zm18.87,5.64-1.29,4.83q2.42.65,4.84,1.26L457.9,865c-1.58-.4-3.19-.82-4.77-1.24Zm19.18,4.52-1,4.9c1.64.33,3.27.66,4.91,1l.93-4.92c-1.61-.3-3.23-.62-4.83-1Zm19.41,3.38-.71,5,1.22.18h0l.12,0h0l.1,0h.05l.09,0h.06l.08,0,.14,0H493l.08,0h.06l.09,0h.32l.34.05h.68l1.39.18.64-5c-1.62-.21-3.26-.43-4.88-.67Zm19.57,2.24-.42,5,1.54.13h.27c1.05.09,2.12.17,3.18.24l.35-5c-1.63-.11-3.29-.24-4.92-.38ZM531,875l-.13,5,.78,0h2.5l1.72,0,.06-5c-1.64,0-3.29,0-4.93-.09Zm24.64-.23c-1.63.07-3.28.13-4.92.18l.16,5,.92,0h.41l2.3-.09h.27l1.09,0-.23-5Zm19.66-1.47c-1.63.17-3.28.33-4.91.47l.45,5,.86-.07h.39l3.72-.37-.51-5Zm19.53-2.61c-1.62.26-3.25.52-4.87.76l.73,5h.18l.12,0h0l1.54-.24h0l.14,0h0l.11,0h.28l.45-.07h0l.12,0h0l1.4-.22h.24l.29,0-.81-4.93Zm19.34-3.75c-1.6.36-3.22.71-4.81,1l1,4.9.85-.18h0l.11,0h.13l.12,0h0l3.2-.7h0l.12,0H615l.24-.05-1.09-4.88ZM633.23,862c-1.58.45-3.17.9-4.75,1.33l1.31,4.82c.9-.24,1.81-.49,2.71-.75h0l.11,0h0l.1,0,.05,0,.09,0,.13,0h0l.11,0h0l.1,0h0l.11,0h0l1.15-.33-1.38-4.8ZM652,856c-1.54.55-3.11,1.09-4.66,1.61l1.6,4.74.29-.1h0l.13,0h0l.09,0,.06,0,.07,0,.07,0,.06,0,.29-.1h0l.09,0,.05,0,.07,0,.07,0,.07,0,.08,0,0,0,.14,0h0l.12,0h0l.12,0h0l2.64-.92L652,856Zm18.38-7.1c-1.51.63-3,1.27-4.56,1.88l1.87,4.63c1.43-.57,2.85-1.16,4.26-1.75h0l.11,0h0l.09,0,.09,0h0l-1.94-4.61Zm17.92-8.18c-1.47.73-3,1.45-4.43,2.15l2.14,4.52c1.5-.72,3-1.44,4.5-2.18l-2.21-4.49Zm17.42-9.21c-1.43.8-2.87,1.61-4.31,2.4l2.41,4.38q2.19-1.2,4.36-2.43l-2.46-4.35Zm16.84-10.23c-1.37.89-2.77,1.78-4.15,2.65l2.65,4.24,2.72-1.72h0l.09-.06,0,0,.09-.06h0l.27-.17.05,0,.06,0,.06,0,.06,0,.07,0,0,0,.09-.06h0l.12-.08,0,0,.1-.06,0,0,.1-.07h0l.12-.08h0l-2.72-4.2Zm16.21-11.19c-1.31,1-2.66,1.94-4,2.89l2.9,4.07.25-.18,0,0,.07-.05.06,0,0,0c.86-.61,1.7-1.22,2.55-1.84h0l.08-.06,0,0,.07,0,0,0,.07,0,.07,0,.06-.05.09-.06,0,0,.07-.05,0,0,.08-.06,0,0,.07,0,.05,0,.1-.07h0l-3-4ZM754.3,798c-1.26,1-2.54,2.09-3.82,3.12l3.14,3.9,1.14-.93h0l.09-.08h0l.16-.13,0,0,.05,0,.07-.06,0,0,.09-.07,0,0,1.55-1.27,0,0,.08-.07,0,0,.06-.05.41-.34L754.3,798Zm14.8-13c-1.2,1.12-2.42,2.24-3.63,3.34l3.36,3.7,0,0,0,0,.06-.06,0,0,.07-.06,0,0,.35-.31h0l.09-.08h0l.36-.34h0l.08-.08h0l.08-.08h0l.24-.23,0,0,.06-.06,0,0,.05-.05.06,0,.05-.05.07-.07,0,0,.11-.1,0,0L771,790l0,0,.09-.07,0,0,.1-.09h0l.22-.21h0l.1-.09,0,0,.1-.09h0L772,789h0l.09-.09,0,0,.09-.08,0,0,.11-.1,0,0,.06,0,0,0L769.1,785Zm14-13.85c-1.13,1.18-2.28,2.37-3.43,3.54l3.57,3.5c.73-.74,1.46-1.48,2.18-2.23,0,0,0,0,0,0l.1-.1h0l.1-.11h0l.21-.22v0l.1-.09h0l.75-.79-3.62-3.45Zm13.18-14.65c-1,1.25-2.14,2.5-3.21,3.74l3.76,3.29.36-.41,0,0,.06-.06.05-.06,0,0,1.72-2h0l.1-.11h0l.2-.23,0,0,.07-.08,0,0,.06-.07,0,0,0,0,.21-.25h0l.07-.09v0l.15-.16-3.82-3.24Zm12.31-15.39c-1,1.31-2,2.62-3,3.91l4,3.07,0-.06,0,0,.07-.1h0c.39-.49.77-1,1.16-1.49l0,0,0-.07,0,0,0-.06.06-.08,0,0,1.5-2-4-3ZM820,725c-.91,1.37-1.84,2.74-2.76,4.09l4.12,2.82c.61-.88,1.21-1.77,1.81-2.65l0,0,0-.07,0-.06,0-.05.06-.09v0l.78-1.16L820,725Zm10.41-16.72c-.82,1.41-1.67,2.84-2.51,4.24l4.28,2.58.53-.88,0,0,0-.08,0-.05,0-.06,0-.08,0,0,.15-.25h0l.07-.12v0l.08-.13h0l.63-1.06v0l.06-.11,0,0L834,712h0l.08-.13,0,0,0-.09,0-.06,0-.07,0-.06,0-.06,0-.06,0,0,.16-.27,0,0,.05-.09v0l.06-.09v0l0-.07-4.32-2.52Zm9.41-17.31c-.73,1.46-1.49,2.93-2.25,4.38l4.42,2.32,0,0v0c.53-1,1.06-2,1.58-3.05l0,0,0-.08,0,0,0-.07,0-.09,0,0c.17-.32.33-.65.49-1l-4.46-2.26Zm8.38-17.83c-.65,1.5-1.32,3-2,4.5l4.56,2.06c.08-.19.17-.37.25-.56v0l0-.11,0,0,0-.07,1.08-2.43h0l.05-.11v0l0-.1v0l.13-.29,0,0,0-.07,0-.07,0-.06,0-.09v0l.18-.42-4.58-2Zm7.3-18.3c-.56,1.53-1.14,3.09-1.72,4.61l4.67,1.79c.59-1.56,1.18-3.12,1.75-4.68l-4.7-1.72Zm6.21-18.7c-.47,1.57-1,3.15-1.45,4.71l4.77,1.51.33-1.07,0-.12v0l0-.13h0l.78-2.53h0l.08-.29,0-.08v0l0-.11v0c0-.12.07-.23.11-.36l-4.79-1.43Zm5.08-19c-.37,1.59-.76,3.2-1.16,4.78l4.85,1.22c.4-1.61.8-3.23,1.18-4.85l-4.87-1.15Zm4-19.3c-.28,1.61-.57,3.24-.88,4.85l4.92.93c0-.2.07-.41.11-.61v-.13l0-.07v-.19c.16-.86.32-1.72.47-2.58h0l.06-.29,0-.11v0l0-.14s0,0,0,0c0-.25.09-.51.14-.77l-4.93-.85Zm2.8-19.5c-.18,1.62-.38,3.27-.59,4.89l5,.63c.09-.66.17-1.33.25-2h0l0-.13v0l0-.09c.1-.89.21-1.81.31-2.7l-5-.56Zm1.66-19.64c-.09,1.63-.19,3.29-.31,4.92l5,.34c0-.36,0-.72.07-1.08h0v-.68l0-.51h0v-.28c0-.27,0-.52.05-.8h0v-.13h0v-.13h0c0-.23,0-.44,0-.67h0v-.67l-5-.27Zm5.5-19.72h-5v1.12c0,1.27,0,2.55,0,3.82l5,.06c0-1.07,0-2.13,0-3.19h0v-.68h0c0-.38,0-.76,0-1.13Zm-.64-20-5,.3c.1,1.64.19,3.29.26,4.93l5-.24c-.08-1.66-.17-3.33-.27-5ZM878.23,499l-5,.6c.19,1.62.38,3.27.55,4.9l5-.53c0-.41-.09-.83-.13-1.24h0l0-.13v-.4h0c-.12-1.07-.24-2.12-.37-3.19Zm-3-19.77-4.92.89c.3,1.61.58,3.24.85,4.85l4.93-.82c-.11-.66-.22-1.33-.34-2h0l0-.13v0l0-.11v-.19l0-.13,0-.09v-.19l0-.1V481l0-.11h0l-.06-.35v-.12l0-.07v-.2c-.06-.31-.11-.61-.17-.91Zm-4.13-19.57-4.86,1.18c.38,1.59.76,3.21,1.12,4.8l4.88-1.11c-.09-.4-.18-.8-.28-1.2v0l0-.12v0l0-.11v0l0-.13v0l0-.11v-.06l0-.08,0-.07v-.07l0-.07,0-.08v-.06l0-.11v0l0-.14v0l0-.13v0l0-.12v0c-.16-.66-.32-1.31-.47-2Zm-5.3-19.28L861,441.86c.48,1.56,1,3.15,1.41,4.72l4.8-1.4q-.69-2.4-1.43-4.79Zm-6.42-18.94-4.69,1.75c.57,1.53,1.14,3.09,1.69,4.63l4.71-1.68,0-.08h0l0-.12v0l0-.1v-.05l0-.08-.05-.13v0l0-.11v0l0-.12v0l0-.14h0c-.44-1.22-.89-2.45-1.34-3.67Zm-7.54-18.52-4.57,2c.66,1.5,1.32,3,2,4.52l4.61-2c-.4-.93-.8-1.87-1.21-2.8h0l0-.12h0l-.14-.31,0,0,0-.07,0-.07,0-.06,0-.07,0-.06,0-.08,0-.05-.05-.13,0,0,0-.09,0-.07,0-.06,0-.07,0-.05,0-.09v0l-.1-.23Zm-8.62-18-4.45,2.28c.75,1.46,1.5,2.94,2.23,4.4l4.48-2.22-.63-1.26h0l-.05-.11,0,0,0-.09,0,0,0-.07c-.06-.13-.14-.27-.2-.41h0l-1.24-2.42Zm-9.67-17.51-4.3,2.55c.83,1.41,1.66,2.84,2.47,4.26l4.34-2.48-.1-.19,0-.07,0-.05,0-.08,0,0-.06-.1v0c-.54-1-1.09-1.89-1.64-2.83l0,0-.05-.08,0-.06,0-.06,0-.08h0c-.13-.21-.24-.41-.37-.63Zm-10.68-16.9-4.15,2.79c.91,1.36,1.83,2.74,2.72,4.11l4.19-2.73-.17-.26h0l-.08-.11,0,0,0-.07,0-.06,0-.05c-.48-.74-1-1.47-1.46-2.2h0l-.07-.1h0l-.06-.1,0,0-.08-.13,0-.08,0,0-.06-.1v0l-.52-.77Zm-11.66-16.25-4,3c1,1.3,2,2.63,3,3.94l4-3q-1.49-2-3-4Zm-12.59-15.54L794.85,322c1.07,1.24,2.14,2.51,3.19,3.76l3.83-3.2-2.57-3.06h0l-.08-.09h0l-.22-.26,0,0-.05-.06,0-.05,0-.05-.05-.06,0,0-.07-.07,0,0Zm-13.47-14.77-3.6,3.47c1.14,1.18,2.28,2.38,3.4,3.57l3.65-3.42-.32-.34,0,0-.07-.08-.07-.07,0,0c-.61-.65-1.22-1.29-1.84-1.93h0l-.07-.08,0,0-.06-.06-.06-.06,0,0c-.29-.3-.57-.6-.86-.89Zm-14.32-14-3.38,3.68,3.6,3.36,3.44-3.63-1-1,0,0-.08-.07,0-.05,0,0-.07-.06h0l-1.49-1.39h0l-.21-.19-.09-.09h0l-.57-.53Zm-15.1-13.1-3.17,3.87c1.27,1,2.55,2.09,3.8,3.14L759.6,280c-1.28-1.07-2.56-2.14-3.85-3.19Zm-15.85-12.2L737,268.7c1.33.95,2.66,1.94,4,2.92l3-4c-1.14-.85-2.29-1.7-3.45-2.54h0l-.09-.07h0l-.27-.19-.05,0-.06-.05,0,0,0,0Zm-16.53-11.26-2.69,4.22c1.38.88,2.77,1.78,4.14,2.68l2.75-4.17c-.32-.22-.66-.43-1-.64l0,0-.08-.05,0,0-.07,0-.07,0,0,0-.12-.08,0,0-.1-.06,0,0-.1-.07h0l-.12-.08h0l-.39-.26h0l-.12-.08h0l-.38-.25,0,0-.09-.06,0,0-.08-.06-.05,0-.06-.05-1.11-.71Zm-17.16-10.26-2.44,4.37c1.43.79,2.87,1.61,4.28,2.43l2.51-4.33h0l-.08-.05,0,0c-1.4-.81-2.8-1.6-4.21-2.39Zm-17.73-9.24-2.18,4.5,4.42,2.18L693,236.1l-.91-.45h0l-.09,0-.06,0,0,0-3.35-1.65Zm-18.25-8.17-1.91,4.62c1.51.62,3,1.27,4.54,1.91l2-4.59-1.86-.8h0l-.12-.05h0l-.12-.05h0l-.12-.06-.1,0,0,0-.1,0h0l-2.07-.86Zm-18.7-7.09-1.64,4.73c1.55.53,3.11,1.08,4.65,1.64l1.7-4.7-.58-.21h0l-.11,0h0l-.13-.05-.06,0-.08,0-.08,0h0l-.1,0h0c-1.15-.42-2.29-.82-3.45-1.22Zm-19.09-6-1.35,4.82c1.57.44,3.17.9,4.73,1.36l1.42-4.79-.14,0-.06,0-.06,0-.1,0h0l-2.23-.65h0l-.09,0-.06,0-.07,0-.09,0h0l-1.8-.51ZM613,207.83,612,212.72c1.6.34,3.22.71,4.81,1.08l1.13-4.87-.37-.09h0l-.11,0h0l-.1,0h0l-.09,0-.13,0h0l-.11,0h0l-.11,0h0l-.13,0h0l-3.5-.78Zm-19.66-3.68-.77,4.94c1.61.25,3.24.52,4.85.8l.85-4.93-2.29-.38h0l-.1,0h-.26l-2.24-.36Zm-19.84-2.52-.48,5c1.62.16,3.27.33,4.9.51l.56-5-2.25-.24h-.42l-.24,0h-.71l-.52-.05h0l-.84-.09Zm-19.95-1.35-.19,5c1.63.07,3.29.14,4.92.23l.26-5-2.33-.12h-.55l-2.11-.08Z"/></g><g id="Capa_2" data-name="Capa 2"><g id="Capa_3-2" data-name="Capa 3"><path class="cls-3" d="M551.41,318.84l-10.39,18a2.93,2.93,0,0,1-1,1.05,2.8,2.8,0,0,1-.77.33,2.91,2.91,0,0,1-2.25-.31l-18-10.39A11.87,11.87,0,0,1,521.16,306q.35-.12.69-.21a11.9,11.9,0,0,1,9,1.18,11.88,11.88,0,1,1,21,11.19c-.07.12-.15.28-.23.41s-.12.2-.18.3Z"/><path class="cls-3" d="M589.09,303.84a22,22,0,0,1-10.31,13.44l-29.39,17,7.19-12.44A17.82,17.82,0,0,0,529,299.9a17.75,17.75,0,0,0-8.66.16,14.75,14.75,0,0,0-2.15.74A22.13,22.13,0,0,1,556.66,279a22.11,22.11,0,0,1,32.43,24.85Z"/><path class="cls-3" d="M641,350v41.57a17.83,17.83,0,0,1-35.66,0,23.75,23.75,0,1,0-47.5,0,17.83,17.83,0,0,1-35.66,0,23.75,23.75,0,0,0-47.5,0,17.83,17.83,0,0,1-35.66,0V350a5.94,5.94,0,0,1,5.94-5.93H635A5.94,5.94,0,0,1,641,350Z"/><path class="cls-3" d="M682.52,450.87v41.67a17.82,17.82,0,0,1-35.63,0,23.76,23.76,0,0,0-47.51-.51h0v.48a17.83,17.83,0,1,1-35.65,0v0a23.76,23.76,0,0,0-47.51,0,17.83,17.83,0,0,1-35.66,0A23.75,23.75,0,0,0,436,481h0a23.83,23.83,0,0,0-3,11.51,17.83,17.83,0,0,1-35.66,0V450.84a5.92,5.92,0,0,1,5.94-5.83H676.53A6,6,0,0,1,682.52,450.87Z"/><path class="cls-3" d="M641,407.28v25.85a5.94,5.94,0,0,1-5.94,5.94H445a5.94,5.94,0,0,1-5.94-5.94V407.28c.33.38.67.74,1,1.07a23.76,23.76,0,0,0,40.55-16.81,17.83,17.83,0,0,1,35.65,0,23.77,23.77,0,0,0,47.54,0h0v0a17.83,17.83,0,0,1,35.65,0A23.75,23.75,0,0,0,640,408.33C640.28,408,640.62,407.66,641,407.28Z"/><path class="cls-3" d="M682.52,508.26v26a5.93,5.93,0,0,1-5.94,5.84H403.39a5.93,5.93,0,0,1-5.94-5.84v-26c.34.38.67.74,1,1.07a23.79,23.79,0,0,0,37.6-5.3h0a24,24,0,0,0,3-11.52,17.83,17.83,0,0,1,35.65,0,23.76,23.76,0,1,0,47.51,0h0a17.83,17.83,0,0,1,35.65,0,23.76,23.76,0,1,0,47.51,0h0a17.83,17.83,0,0,1,35.66,0,23.74,23.74,0,0,0,40.54,16.79C681.85,509,682.18,508.61,682.52,508.26Z"/></g></g><g id="Capa_4" data-name="Capa 4"><path class="cls-4" d="M297.61,811A2055.85,2055.85,0,0,0,58.87,853.58c-.06,0,1.2-38.84-7.29-75.36S23.9,707.7,23.85,707.72A2205.77,2205.77,0,0,1,280,662Q288.8,736.49,297.61,811Z"/><path class="cls-5" d="M297.61,811Q235.3,799.45,171.18,791.8L144.84,644.13Q213.29,651,280,662,288.8,736.49,297.61,811Z"/><path class="cls-4" d="M780.13,811a2055.85,2055.85,0,0,1,238.74,42.61s-1.21-38.84,7.28-75.36,27.68-70.52,27.73-70.5A2206,2206,0,0,0,797.73,662Q788.93,736.49,780.13,811Z"/><path class="cls-5" d="M780.13,811q62.29-11.52,126.43-19.17L932.9,644.13Q864.46,651,797.73,662,788.93,736.49,780.13,811Z"/><path class="cls-3" d="M906.56,791.8a2094,2094,0,0,0-735.38,0L144.84,644.13a2243.86,2243.86,0,0,1,788.06,0Z"/><path class="cls-2" d="M221.43,723.64q1-3.36,2.42-8.61t2.88-11.34q1.5-6.09,3.08-12.47t3-12.11q1.4-5.72,2.4-10.22t1.41-6.88a28.93,28.93,0,0,0-10.08,9.07,32.87,32.87,0,0,0-5.14,13.65,11,11,0,0,1-4.69-2.07,9.61,9.61,0,0,1-3.29-4.51,20.54,20.54,0,0,1,2.66-8.55,25.48,25.48,0,0,1,6.27-7.22,36.18,36.18,0,0,1,9.46-5.37,51.46,51.46,0,0,1,12-3.06,48.89,48.89,0,0,1,15.52.25A36.42,36.42,0,0,1,272,659a28.51,28.51,0,0,1,8.89,8.7,27.93,27.93,0,0,1,4.23,12.17,45,45,0,0,1-1.57,18.26,51.07,51.07,0,0,1-8.05,16.15,49.69,49.69,0,0,1-13,12.15A40.23,40.23,0,0,1,246,732.52a30.53,30.53,0,0,1-14.48-1.1A20.19,20.19,0,0,1,221.43,723.64Zm27.47-65.52a35.35,35.35,0,0,0-9.64,2.65,44.93,44.93,0,0,1,8,2.17A30.13,30.13,0,0,1,251.7,665a40.91,40.91,0,0,0-1.94,4c-.82,1.92-1.77,4.24-2.83,7s-2.17,5.7-3.33,8.92-2.26,6.53-3.31,9.91c-2.75,8.58-4.63,15.31-5.69,20.18s-1.44,8.19-1.19,10a15.84,15.84,0,0,0,3.51.18c1.35-.07,2.8-.21,4.34-.42a35.39,35.39,0,0,0,14.92-5.67,43.79,43.79,0,0,0,11.57-11.22,46.79,46.79,0,0,0,7-15,45,45,0,0,0,1.19-17.12q-1.19-9.81-8.45-14.44T248.9,658.12Z"/><path class="cls-2" d="M325.21,675.81a31.51,31.51,0,0,1-1.25,10.4,22.43,22.43,0,0,1-4.49,8,38.49,38.49,0,0,1-7.68,6.64A98.27,98.27,0,0,1,301,707c0,.38.07.78.08,1.19s0,.86.09,1.3a18.73,18.73,0,0,0,.49,2.55,9.52,9.52,0,0,0,1,2.4,4.82,4.82,0,0,0,1.61,1.71,3.63,3.63,0,0,0,2.4.46,13.39,13.39,0,0,0,5.21-1.71,29.87,29.87,0,0,0,4.69-3.34,40.18,40.18,0,0,0,4.06-4.09q1.88-2.16,3.33-4a19.4,19.4,0,0,1,1.88,1.45,48.58,48.58,0,0,1-9,10.51,29.36,29.36,0,0,1-9.68,5.91c-4.68,0-8.45-1.21-11.34-3.62a13.77,13.77,0,0,1-5-9.33,29.15,29.15,0,0,1,.24-8.1,37.48,37.48,0,0,1,2.36-8.19,44.43,44.43,0,0,1,4.09-7.66,39.18,39.18,0,0,1,5.4-6.48,29.48,29.48,0,0,1,6.24-4.63,17.52,17.52,0,0,1,6.68-2.14Q320.63,671.34,325.21,675.81Zm-6.75,3.86a15.69,15.69,0,0,0-5.51,2.69,23.13,23.13,0,0,0-5.08,5.17,36,36,0,0,0-4,7.19,36.91,36.91,0,0,0-2.44,8.57,46.4,46.4,0,0,0,12.48-10.85Q318.71,686.29,318.46,679.67Z"/><path class="cls-2" d="M333,708.81a47.13,47.13,0,0,1,1-12q1.41-7.8,4.35-18.29a265.4,265.4,0,0,1,9.59-28,81.32,81.32,0,0,1,9.67-17.72,13.78,13.78,0,0,1,3.16.71c1.26.41,2.5.87,3.73,1.39a30.49,30.49,0,0,1,3.33,1.61,8.05,8.05,0,0,1,1.94,1.4A112.27,112.27,0,0,0,357.1,658,141.64,141.64,0,0,0,348,682.18a171.93,171.93,0,0,0-4.69,20.9,64.86,64.86,0,0,0-.84,15.26c.1,1.08.16,1.75.18,2a3.34,3.34,0,0,0,.17.76,8.06,8.06,0,0,1-2.47-.45,2.52,2.52,0,0,1-1.41-1,5,5,0,0,0-1.23-1.28,12.44,12.44,0,0,0-1.74-1.24c-.64-.32-1.24-1.28-1.8-2.86A22.71,22.71,0,0,1,333,708.81Z"/><path class="cls-2" d="M357,706.35a18.3,18.3,0,0,1,0-2.16c0-.87.12-2,.27-3.49s.35-3.23.62-5.31.63-4.58,1.07-7.5a29.64,29.64,0,0,1,.66-3.14,36.35,36.35,0,0,1,1.52-4.61,28.67,28.67,0,0,1,2.5-4.77,10.45,10.45,0,0,1,3.79-3.58,18.67,18.67,0,0,1,4.77,1.6,15.29,15.29,0,0,1,5.25,4,33.12,33.12,0,0,0-3.57,5.27,47.58,47.58,0,0,0-2.45,5.39c-.72,1.85-1.35,3.76-1.91,5.73s-1.2,4.05-1.91,6.22q-.9,2.78-1.58,5.67a19.09,19.09,0,0,0-.61,5c.09,1.14.14,2,.14,2.44s-.16.73-.49.76a5.83,5.83,0,0,1-1.65-.34,10,10,0,0,1-2.59-1.28,10.72,10.72,0,0,1-2.48-2.35A6.48,6.48,0,0,1,357,706.35Zm16.16-43.09a7.22,7.22,0,0,1,.18-1.75,3.7,3.7,0,0,1-1-1.37,4.94,4.94,0,0,1-.49-1.69,13.61,13.61,0,0,1,.08-2.37c.09-1,.24-2.09.43-3.26s.44-2.39.76-3.66.65-2.44,1-3.5a9.74,9.74,0,0,1,3.11.4,25.52,25.52,0,0,1,7.38,3.32,13.22,13.22,0,0,1,2.54,2.09c-.71.75-1.64,1.8-2.8,3.13s-2.26,2.72-3.33,4.18-2.05,2.83-2.92,4.11a21.85,21.85,0,0,0-1.66,2.72,4.3,4.3,0,0,1-2.24-.84A2.26,2.26,0,0,1,373.19,663.26Z"/><path class="cls-2" d="M380.62,694a24.65,24.65,0,0,1,1.62-10.75,32,32,0,0,1,14.31-16.57,23.86,23.86,0,0,1,10.39-3.11c3.57-.21,6.37.46,8.38,2a8.91,8.91,0,0,1,3.27,6.94,13.77,13.77,0,0,1-.43,4.3,15.49,15.49,0,0,1-1.53,3.79,9.7,9.7,0,0,1-2.35,2.77,5,5,0,0,1-2.8,1.18,5.26,5.26,0,0,1-2.54-.57,6.34,6.34,0,0,1-2.21-1.75c4.33-4.17,6.42-7.84,6.23-11q-.16-2.78-2.52-2.64a10.74,10.74,0,0,0-5,2.13,28.09,28.09,0,0,0-5.64,5.16,32,32,0,0,0-6,10.64,30.61,30.61,0,0,0-1.49,11.89q.53,7.75,4.26,9a19.28,19.28,0,0,0,3.48-1.09,38.42,38.42,0,0,0,4.23-2.05c1.5-.83,3-1.78,4.65-2.83s3.13-2.18,4.63-3.36a2.47,2.47,0,0,1,.76.83,2.32,2.32,0,0,1,.36,1,37.08,37.08,0,0,1-3.71,4.16,43.93,43.93,0,0,1-4.44,3.78,42.2,42.2,0,0,1-4.52,3,15.33,15.33,0,0,1-3.89,1.65,15.24,15.24,0,0,1-6.37-1.55,18,18,0,0,1-5.4-4,21.24,21.24,0,0,1-3.88-5.88A20.75,20.75,0,0,1,380.62,694Z"/><path class="cls-2" d="M423.35,701.76a18.24,18.24,0,0,1,0-2.16c.05-.87.18-2,.37-3.48s.46-3.22.79-5.28.76-4.56,1.29-7.47c.11-.65.36-1.69.76-3.12a35.74,35.74,0,0,1,1.67-4.56,27.42,27.42,0,0,1,2.64-4.69,10.39,10.39,0,0,1,3.9-3.46,18.5,18.5,0,0,1,4.71,1.75,15.07,15.07,0,0,1,5.12,4.15,32.92,32.92,0,0,0-3.72,5.16,46.72,46.72,0,0,0-2.62,5.31q-1.16,2.75-2.09,5.67t-2.09,6.15q-1,2.74-1.76,5.62a19.29,19.29,0,0,0-.76,5c0,1.16.08,2,.07,2.45s-.19.73-.52.75a5.86,5.86,0,0,1-1.64-.4,9.94,9.94,0,0,1-2.55-1.36,10.81,10.81,0,0,1-2.4-2.42A6.48,6.48,0,0,1,423.35,701.76Zm17.47-42.57a7.34,7.34,0,0,1,.23-1.74,3.68,3.68,0,0,1-.94-1.4,4.91,4.91,0,0,1-.44-1.71,13.78,13.78,0,0,1,.15-2.36c.13-1,.31-2.08.53-3.24s.52-2.38.88-3.65.73-2.41,1.1-3.46a9.81,9.81,0,0,1,3.09.5,24.28,24.28,0,0,1,3.76,1.47,26,26,0,0,1,3.51,2.07,13.34,13.34,0,0,1,2.48,2.17c-.74.73-1.7,1.74-2.9,3s-2.34,2.65-3.46,4.08-2.13,2.76-3,4a21.55,21.55,0,0,0-1.74,2.67,4.14,4.14,0,0,1-2.21-.91A2.22,2.22,0,0,1,440.82,659.19Z"/><path class="cls-2" d="M481.21,667.07a10.38,10.38,0,0,1,2.42.28,13.52,13.52,0,0,1,2.54.8,10.45,10.45,0,0,1,1.93,1.06c.52.37.78.71.79,1-1.31,2.72-2.51,5.46-3.6,8.2s-2,5.38-2.76,7.9a64.8,64.8,0,0,0-1.7,7,28.71,28.71,0,0,0-.5,5.68,13.9,13.9,0,0,0,.73,4.45,4.35,4.35,0,0,0,2.08,2.49,10.62,10.62,0,0,1-3.09,1.33,14.22,14.22,0,0,1-3.42.58c-3.63.1-5.52-2.2-5.67-6.94-.11-3.64,1-8.67,3.4-15.08a61,61,0,0,1-9.57,15.41,31.62,31.62,0,0,1-5.33,5,13.36,13.36,0,0,1-5,2.44,7.15,7.15,0,0,1-6.19-3,13.79,13.79,0,0,1-2.68-8.13,30.09,30.09,0,0,1,2-11.47,48.78,48.78,0,0,1,5.83-11.33,42,42,0,0,1,8.05-8.84q4.4-3.59,8.63-3.72a8.52,8.52,0,0,1,2.35,1.08,17.55,17.55,0,0,1,2.53,1.94,15,15,0,0,1,2.07,2.29,5,5,0,0,1,1,2,19,19,0,0,0-8.35,4A39.37,39.37,0,0,0,462,681.5a42.89,42.89,0,0,0-5.41,9.73,23.69,23.69,0,0,0-1.87,9.56,2.13,2.13,0,0,0,1.51,2.24c1.94-.45,4.13-2.12,6.6-5a95.87,95.87,0,0,0,8.93-13.22q1-1.76,2.18-3.91t2.47-4.49c.85-1.56,1.67-3.13,2.49-4.72S480.49,668.56,481.21,667.07Z"/><path class="cls-2" d="M529.52,666.76a17.1,17.1,0,0,1-.65,3.8,19.55,19.55,0,0,1-1.37,3.56,13.34,13.34,0,0,1-1.72,2.65,2.46,2.46,0,0,1-1.73,1.06c-.76-.05-1.2-.53-1.34-1.43a2.69,2.69,0,0,1,.24-.91c.17-.42.36-.88.56-1.4s.38-1,.55-1.54a4.32,4.32,0,0,0,.25-1.34,3.78,3.78,0,0,0-.68-2.25,2.11,2.11,0,0,0-1.81-.9q-4.11,0-6.21,4.83t-2,14.07a3.7,3.7,0,0,0,.11,1.15l3.82-.05,3.31,0a2,2,0,0,1,.11.77,1.64,1.64,0,0,1-.4,1.24c-1.56.34-2.79.62-3.7.85a16.4,16.4,0,0,0-2.08.64,1.6,1.6,0,0,0-.86.63,2.32,2.32,0,0,0-.14.91c0,.51,0,1,.07,1.53s.06,1.15.07,1.91q.09,8-4.43,13c-3,3.3-7.22,5.25-12.64,5.87a8.64,8.64,0,0,1-2.93-.71A13.93,13.93,0,0,1,491,713a13.52,13.52,0,0,1-2.42-2.29,8.18,8.18,0,0,1-1.47-2.61,15.79,15.79,0,0,1,1.45-7.05,19.4,19.4,0,0,1,4.28-6,22.12,22.12,0,0,1,6.52-4.29,21,21,0,0,1,8.26-1.73,22.32,22.32,0,0,0-.58-4.71q-.54-2.31-1.14-4.47t-1.14-4.23a17.08,17.08,0,0,1-.57-4.09,12.68,12.68,0,0,1,1-5.17,18.94,18.94,0,0,1,2.92-4.77,18.64,18.64,0,0,1,4.28-3.77,16.16,16.16,0,0,1,5.14-2.18,10,10,0,0,1,3.06,1.66,40.74,40.74,0,0,1,3.79,3.09,34.55,34.55,0,0,1,3.32,3.48A8.94,8.94,0,0,1,529.52,666.76Zm-33,44.18a16.69,16.69,0,0,0,4.53-2.87,21.69,21.69,0,0,0,6.22-9.13,14.29,14.29,0,0,0,.89-5.1,11.84,11.84,0,0,0-4.43,1.85,25.76,25.76,0,0,0-4.5,3.63,23.86,23.86,0,0,0-3.46,4.34,7.41,7.41,0,0,0-1.34,3.86A4,4,0,0,0,496.47,710.94Z"/><path class="cls-2" d="M576.6,660.59a12,12,0,0,1,4.72,1.24A17.32,17.32,0,0,1,586,664.9q-.43-3.85-1.14-7.27a44.71,44.71,0,0,0-2.13-7.11,66.45,66.45,0,0,0-3.84-8q-2.42-4.37-6.09-10a6.31,6.31,0,0,1,1.44-2,17.29,17.29,0,0,1,2.55-2.12,22.62,22.62,0,0,1,3-1.73,9.34,9.34,0,0,1,2.9-.9A37.24,37.24,0,0,1,588,633.3a64,64,0,0,1,4.36,9.71,63,63,0,0,1,2.8,10.68,53.38,53.38,0,0,1,.81,10.49,47.22,47.22,0,0,1-1.45,10.24A62.77,62.77,0,0,1,591,684.65a72,72,0,0,1-5,9.44,55.4,55.4,0,0,1-6.1,7.94,34.36,34.36,0,0,1-6.71,5.69,17.91,17.91,0,0,1-6.9,2.73c-4.62-.57-8.15-2-10.59-4.38s-3.65-5.57-3.63-9.67a27.31,27.31,0,0,1,1.11-7.1,48.28,48.28,0,0,1,2.91-7.61,55.56,55.56,0,0,1,4.26-7.35,48.42,48.42,0,0,1,5.2-6.43,40.17,40.17,0,0,1,5.57-4.82A14.58,14.58,0,0,1,576.6,660.59Zm-11.09,46a17,17,0,0,0,7.15-5,47.11,47.11,0,0,0,6.54-9.16,60.24,60.24,0,0,0,4.86-11.33,41.58,41.58,0,0,0,2-11.72c0-1.08,0-1.75,0-2a3.37,3.37,0,0,0-.09-.77,19.08,19.08,0,0,0-5.3,3.16,55.89,55.89,0,0,0-5.64,5.22,60.21,60.21,0,0,0-5.31,6.5,77.24,77.24,0,0,0-4.48,7,44.74,44.74,0,0,0-3.13,6.78,18.4,18.4,0,0,0-1.17,5.75Q561,705.88,565.51,706.6Z"/><path class="cls-2" d="M635.43,667.48a31.31,31.31,0,0,1-2.71,10.12,22.53,22.53,0,0,1-5.57,7.26,39,39,0,0,1-8.52,5.48,96.72,96.72,0,0,1-11.55,4.6q0,.59-.09,1.2c0,.41-.08.85-.09,1.29A16.49,16.49,0,0,0,607,700a9.7,9.7,0,0,0,.63,2.52,4.74,4.74,0,0,0,1.35,1.91,3.63,3.63,0,0,0,2.3.8,13.42,13.42,0,0,0,5.4-1,29.51,29.51,0,0,0,5.11-2.65,39.17,39.17,0,0,0,4.59-3.47q2.16-1.87,3.86-3.44a19.69,19.69,0,0,1,1.65,1.71,48.57,48.57,0,0,1-10.36,9.13,29.31,29.31,0,0,1-10.41,4.48c-4.62-.67-8.18-2.39-10.69-5.19a13.76,13.76,0,0,1-3.63-9.94,28.74,28.74,0,0,1,1.39-8,36.8,36.8,0,0,1,3.49-7.78,43.89,43.89,0,0,1,5.12-7,39.31,39.31,0,0,1,6.25-5.66,29.58,29.58,0,0,1,6.83-3.69,17.51,17.51,0,0,1,6.91-1.18Q631.52,662.41,635.43,667.48Zm-7.23,2.87a15.61,15.61,0,0,0-5.82,1.88,23.36,23.36,0,0,0-5.76,4.4,35.78,35.78,0,0,0-5,6.55,36.45,36.45,0,0,0-3.63,8.14,46.42,46.42,0,0,0,13.88-9C625.63,678.74,627.75,674.75,628.2,670.35Z"/><path class="cls-2" d="M666.83,716.22a22.89,22.89,0,0,1-6.53-3.08,4,4,0,0,1-1.68-3.46,15.14,15.14,0,0,1,1.15-4.27,58.89,58.89,0,0,1,3.06-6.42q2-3.69,4.75-8.15c1.84-3,3.93-6.16,6.26-9.54l-4.75-.29-3.42-.2c.46-.94,1.67-1.71,3.62-2.3a41.94,41.94,0,0,1,7.68-1.36,128.74,128.74,0,0,1,9.35-11.35q5-5.37,10-9.79a87.65,87.65,0,0,1,9.93-7.67,54.28,54.28,0,0,1,9.38-5c.1-.44.18-.82.25-1.13s.09-.54.1-.67a15.63,15.63,0,0,1,3.85,1,41.67,41.67,0,0,1,4.65,2,38.24,38.24,0,0,1,4,2.31c1.16.77,1.78,1.39,1.88,1.85q-3.9,5.25-8.13,16a178.64,178.64,0,0,0-7.61,26q-.82,3.78-1.57,8.64t-1.23,10.88c-.11,1.4-.23,2.83-.35,4.3s-.17,3-.17,4.61a1,1,0,0,1-.41.06l-.8-.06a15.22,15.22,0,0,1-3.23-.68,33.92,33.92,0,0,1-3.54-1.32,16.31,16.31,0,0,1-2.91-1.6,4.23,4.23,0,0,1-1.46-1.43c0-.83,0-1.63.08-2.41s.12-1.62.19-2.5q.44-5.85,1.34-11.84c.61-4,1.44-8.11,2.52-12.32a6.37,6.37,0,0,0-3.7-1.29c-1.57-.12-3.32-.25-5.26-.38l-6.23-.44-6.48-.44q-2.73,4.1-5.13,8.16a73.32,73.32,0,0,0-4.19,8.23,71.43,71.43,0,0,0-3.33,8.91A55.89,55.89,0,0,0,666.83,716.22Zm43.27-54.81c.34-.88.76-2.08,1.27-3.62s1-3.16,1.47-4.87a21.78,21.78,0,0,0-6,2.72,52.8,52.8,0,0,0-6.93,5.22q-3.6,3.17-7.35,7.18t-7.24,8.61a193,193,0,0,1,19.61.6q1.14-4,2.41-7.89C708.21,666.76,709.12,664.1,710.1,661.41Z"/><path class="cls-2" d="M724.73,707a46.78,46.78,0,0,1,3.16-11.63q2.79-7.41,7.59-17.2A262,262,0,0,1,750,652.37a81.49,81.49,0,0,1,12.72-15.68,13.5,13.5,0,0,1,3,1.27c1.17.63,2.31,1.31,3.43,2a30.36,30.36,0,0,1,3,2.2,7.71,7.71,0,0,1,1.66,1.72,112.74,112.74,0,0,0-16.14,17.44,143.59,143.59,0,0,0-13.34,22.14,170.85,170.85,0,0,0-8.4,19.71,64.65,64.65,0,0,0-3.59,14.85c-.1,1.09-.16,1.75-.18,2a2.5,2.5,0,0,0,0,.77,8.06,8.06,0,0,1-2.35-.88,2.52,2.52,0,0,1-1.2-1.27,5.56,5.56,0,0,0-1-1.48,11.56,11.56,0,0,0-1.48-1.53c-.57-.43-1-1.48-1.25-3.14A22.92,22.92,0,0,1,724.73,707Z"/><path class="cls-2" d="M809.81,692.6a6.94,6.94,0,0,0-4.2,1.36,46.61,46.61,0,0,0-5.61,4.16q-3,2.58-6.35,5.78t-6.38,6.36q-3.07,3.18-5.73,6c-1.78,1.87-3.27,3.34-4.47,4.43a10.56,10.56,0,0,1-3.54-2.95,9.76,9.76,0,0,1-1.86-4.4,57.14,57.14,0,0,1,2.08-6,54.5,54.5,0,0,1,3.11-6.36,65.86,65.86,0,0,1,4.45-6.79,79.49,79.49,0,0,1,6.25-7.34c-1-.12-2.49.38-4.4,1.48a48,48,0,0,0-6.27,4.43q-3.39,2.76-7,6.29T763,706q-4.26,4.57-7.1,8.06t-4,4a10.52,10.52,0,0,1-3.23-4.27,19.86,19.86,0,0,1-1.06-4.83,42.44,42.44,0,0,1,1.32-5.66,54,54,0,0,1,2.57-6.89,85.78,85.78,0,0,1,7.44-13.24q4.43-6.5,8.52-11.86a18.47,18.47,0,0,1,5,2.36,24,24,0,0,1,4.47,4.15,29.17,29.17,0,0,1-3.85,5.91c-1.66,2-3.41,4.19-5.22,6.44a78.94,78.94,0,0,0-5,7,26,26,0,0,0-3.34,7.47q3.23-3.52,7.66-8.08t9-8.49a63.06,63.06,0,0,1,9-6.52q4.44-2.6,7.72-2.2a9.93,9.93,0,0,1,2.61.69,16,16,0,0,1,2.55,1.27,18.45,18.45,0,0,1,1.91,1.34,2.39,2.39,0,0,1,.83.92,24.52,24.52,0,0,1-3,4.91q-2.28,3.06-4.84,6.43c-1.7,2.25-3.3,4.43-4.77,6.55a18.22,18.22,0,0,0-2.75,5.14q5.68-5.82,10.68-10.49a107.69,107.69,0,0,1,9.32-7.91,41.75,41.75,0,0,1,7.91-4.82,12.32,12.32,0,0,1,6.55-1.2,7.86,7.86,0,0,1,3.7,1.5,5.49,5.49,0,0,1,2.12,3.24,46.79,46.79,0,0,1-3.91,6.45q-2.61,3.72-5.31,7.88t-4.91,8.23a21.71,21.71,0,0,0-2.64,7.5,4,4,0,0,0,.27,2.69,2.26,2.26,0,0,0,1.63.84,6,6,0,0,0,2.31-.14,5,5,0,0,1,1.62-.23,1.45,1.45,0,0,1,.58,1.05,7.12,7.12,0,0,1,0,1.06,24.14,24.14,0,0,1-4.44,2,10.92,10.92,0,0,1-4.84.4,9.14,9.14,0,0,1-3.86-1.25,7.06,7.06,0,0,1-2.3-2.41,8,8,0,0,1-1-3.22,16.32,16.32,0,0,1,.05-3.75,23.21,23.21,0,0,1,1.69-6.32,47.91,47.91,0,0,1,2.92-5.82,57.55,57.55,0,0,1,3.36-5.09C808,695.25,809,693.84,809.81,692.6Z"/><path class="cls-2" d="M865.28,690.81a10.55,10.55,0,0,1,2.35.7,13.39,13.39,0,0,1,2.36,1.23,10.78,10.78,0,0,1,1.72,1.38c.45.46.65.85.6,1.16q-2.65,3.68-5,7.45T863.21,710a63.45,63.45,0,0,0-2.91,6.65,28.6,28.6,0,0,0-1.5,5.5,13.74,13.74,0,0,0-.06,4.51,4.33,4.33,0,0,0,1.62,2.82,10.71,10.71,0,0,1-3.29.76,14.19,14.19,0,0,1-3.47,0q-5.4-.79-4.38-7.82.79-5.42,6-14.26a57.8,57.8,0,0,1-5.84,7.5,62,62,0,0,1-6.3,6,32.15,32.15,0,0,1-6.15,4,13.43,13.43,0,0,1-5.37,1.52,7.19,7.19,0,0,1-5.58-4,13.8,13.8,0,0,1-1.22-8.48,30,30,0,0,1,3.94-10.95,49.17,49.17,0,0,1,7.74-10.13,42.25,42.25,0,0,1,9.49-7.29q5-2.76,9.17-2.14a8.38,8.38,0,0,1,2.14,1.47,18.7,18.7,0,0,1,2.15,2.35A16.18,16.18,0,0,1,861,690.6a4.89,4.89,0,0,1,.61,2.17,19.16,19.16,0,0,0-8.94,2.46,39.5,39.5,0,0,0-8.9,6.41,42.91,42.91,0,0,0-7,8.64,23.38,23.38,0,0,0-3.52,9.08,2.13,2.13,0,0,0,1.09,2.47c2-.11,4.46-1.36,7.4-3.76a95,95,0,0,0,11.12-11.44q1.26-1.56,2.84-3.47c1-1.26,2.12-2.59,3.23-4s2.2-2.8,3.28-4.22S864.31,692.16,865.28,690.81Z"/></g></svg>