<svg xmlns="http://www.w3.org/2000/svg" viewBox="0 0 2227.5 2227.5"><defs><style>.cls-1{fill:#ff96a5;}</style></defs><g id="Capa_2_copia" data-name="Capa 2 copia"><path class="cls-1" d="M1113.75,0C498.64,0,0,498.64,0,1113.74H0c0,615.1,498.64,1113.74,1113.75,1113.74A1110.25,1110.25,0,0,0,1547.27,2140c399.73-169.08,680.22-564.9,680.22-1026.22h0C2227.49,498.64,1728.85,0,1113.75,0ZM2181.12,1113.75c0,442.11-268.81,821.45-651.9,983.49a1064.06,1064.06,0,0,1-415.47,83.87c-589.49,0-1067.37-477.87-1067.37-1067.36h0C46.38,524.25,524.26,46.38,1113.75,46.38S2181.12,524.25,2181.12,1113.74Z"/></g><g id="Capa_3" data-name="Capa 3"><path class="cls-1" d="M1158.4,713.57l-40.61,70.33a11.45,11.45,0,0,1-4,4.12,12.22,12.22,0,0,1-3,1.28,11.52,11.52,0,0,1-8.8-1.15l-70.33-40.61a46.39,46.39,0,0,1,8.49-84.19c.89-.31,1.78-.58,2.69-.82a46.23,46.23,0,0,1,35.22,4.64,46.41,46.41,0,1,1,81,45.29c-.21.37-.42.74-.64,1.11Z"/><path class="cls-1" d="M1305.55,655a86.27,86.27,0,0,1-40.29,52.5L1150.41,773.8l28.08-48.63a69.62,69.62,0,0,0-107.87-85.63,69.46,69.46,0,0,0-33.81.57,67.72,67.72,0,0,0-8.45,2.86,86.46,86.46,0,0,1,150.44-85.24A86.47,86.47,0,0,1,1305.55,655Z"/><path class="cls-1" d="M1508.2,835.31V997.74a69.61,69.61,0,0,1-139.22,0,92.81,92.81,0,1,0-185.62,0,69.61,69.61,0,0,1-139.22,0,92.81,92.81,0,0,0-185.62,0,69.61,69.61,0,0,1-139.22,0V835.31a23.2,23.2,0,0,1,23.2-23.2H1485A23.22,23.22,0,0,1,1508.2,835.31Z"/><path class="cls-1" d="M1670.62,1229.37v162.82a69.61,69.61,0,0,1-139.21,0,92.82,92.82,0,0,0-185.63-1.93c0,.65,0,1.29,0,1.93a69.61,69.61,0,1,1-139.22,0,92.81,92.81,0,0,0-185.62,0,69.61,69.61,0,0,1-139.22,0,92.82,92.82,0,0,0-174-45h0a92.26,92.26,0,0,0-11.61,45,69.62,69.62,0,0,1-139.24,0V1229.37a23.19,23.19,0,0,1,23.2-22.81H1647.42A23.21,23.21,0,0,1,1670.62,1229.37Z"/><path class="cls-1" d="M1508.2,1059.12v101a23.22,23.22,0,0,1-23.2,23.2H742.5a23.22,23.22,0,0,1-23.2-23.2v-101q1.92,2.19,4,4.25a92.8,92.8,0,0,0,158.44-65.63,69.61,69.61,0,0,1,139.22,0,92.81,92.81,0,1,0,185.62.1v-.1a69.61,69.61,0,0,1,139.22,0,92.81,92.81,0,0,0,158.44,65.63C1505.6,1062,1506.92,1060.59,1508.2,1059.12Z"/><path class="cls-1" d="M1670.62,1453.57V1555a23.19,23.19,0,0,1-23.2,22.8H580.08a23.19,23.19,0,0,1-23.21-22.8V1453.57q1.92,2.19,4,4.25a92.88,92.88,0,0,0,146.84-20.66h0a92.39,92.39,0,0,0,11.6-45,69.61,69.61,0,0,1,139.22,0,92.81,92.81,0,0,0,185.62,0h0a69.61,69.61,0,0,1,139.22,0,92.81,92.81,0,1,0,185.62,0h0a69.61,69.61,0,0,1,139.22,0,92.81,92.81,0,0,0,158.44,65.63C1668,1456.44,1669.34,1455,1670.62,1453.57Z"/></g></svg>