<?xml version="1.0" encoding="utf-8"?>
<!-- Generator: Adobe Illustrator 25.0.0, SVG Export Plug-In . SVG Version: 6.00 Build 0)  -->
<svg version="1.1" id="Capa_1" xmlns="http://www.w3.org/2000/svg" xmlns:xlink="http://www.w3.org/1999/xlink" x="0px" y="0px"
	 viewBox="0 0 2227.5 2227.5" style="enable-background:new 0 0 2227.5 2227.5;" xml:space="preserve">
<style type="text/css">
	.st0{fill:#BF6469;}
	.st1{fill:#FFFFFF;}
</style>
<g id="Capa_2_copia">
	<path d="M1113.8,2227.5L1113.8,2227.5C498.6,2227.5,0,1728.9,0,1113.8l0,0C0,498.6,498.6,0,1113.8,0l0,0
		c615.1,0,1113.8,498.6,1113.8,1113.8l0,0C2227.5,1728.9,1728.9,2227.5,1113.8,2227.5z"/>
	<path d="M1113.8,2227.5L1113.8,2227.5C498.6,2227.5,0,1728.9,0,1113.8l0,0C0,498.6,498.6,0,1113.8,0l0,0
		c615.1,0,1113.8,498.6,1113.8,1113.8l0,0C2227.5,1728.9,1728.9,2227.5,1113.8,2227.5z"/>
	<path class="st0" d="M1113.8,2227.5L1113.8,2227.5C498.6,2227.5,0,1728.9,0,1113.8l0,0C0,498.6,498.6,0,1113.8,0l0,0
		c615.1,0,1113.8,498.6,1113.8,1113.8l0,0C2227.5,1728.9,1728.9,2227.5,1113.8,2227.5z"/>
</g>
<g id="Capa_3">
	<path class="st1" d="M1158.4,713.6l-40.6,70.3c-1,1.7-2.3,3.1-4,4.1c-0.9,0.6-1.9,1-3,1.3c-3,0.8-6.1,0.4-8.8-1.2l-70.3-40.6
		c-22.2-12.8-29.8-41.2-17-63.4c5.7-9.8,14.7-17.2,25.5-20.8c0.9-0.3,1.8-0.6,2.7-0.8c11.9-3.2,24.6-1.5,35.2,4.6
		c12.1-22.6,40.2-31.2,62.8-19.1c22.6,12.1,31.2,40.2,19.1,62.8c-0.3,0.5-0.6,1.1-0.9,1.6C1158.8,712.8,1158.6,713.2,1158.4,713.6
		L1158.4,713.6z"/>
	<path class="st1" d="M1305.6,655c-5.9,22.2-20.4,41.1-40.3,52.5l-114.8,66.3l28.1-48.6c19.2-33.3,7.8-75.9-25.5-95.1
		c-26.5-15.3-60-11.5-82.4,9.5c-11.1-2.6-22.8-2.4-33.8,0.6c-2.9,0.8-5.7,1.7-8.4,2.9c-23.1-41.8-8-94.4,33.8-117.5
		c41.2-22.8,93-8.4,116.6,32.3c41.4-23.9,94.2-9.7,118.1,31.7C1308.4,609.3,1311.5,632.9,1305.6,655z"/>
	<path class="st1" d="M1508.2,835.3v162.4c0,38.4-31.2,69.6-69.7,69.6c-38.4,0-69.5-31.2-69.6-69.6c0-51.3-41.6-92.8-92.8-92.8
		c-51.3,0-92.8,41.6-92.8,92.8c0,38.4-31.2,69.6-69.7,69.6c-38.4,0-69.5-31.2-69.6-69.6c0-51.3-41.6-92.8-92.8-92.8
		s-92.8,41.6-92.8,92.8c0,38.4-31.2,69.6-69.7,69.6c-38.4,0-69.5-31.2-69.6-69.6V835.3c0-12.8,10.4-23.2,23.2-23.2l0,0H1485
		C1497.8,812.1,1508.2,822.5,1508.2,835.3z"/>
	<path class="st1" d="M1670.6,1229.4v162.8c-0.5,38.4-32,69.2-70.4,68.8c-37.8-0.5-68.3-31-68.8-68.8c0.5-51.3-40.6-93.2-91.8-93.8
		s-93.2,40.6-93.8,91.8l0,0c0,0.7,0,1.3,0,1.9c0,38.4-31.1,69.6-69.6,69.7c-38.4,0-69.6-31.1-69.7-69.6c0,0,0-0.1,0-0.1
		c0-51.3-41.6-92.8-92.8-92.8c-51.3,0-92.8,41.6-92.8,92.8c0,38.4-31.2,69.6-69.7,69.6c-38.4,0-69.5-31.2-69.6-69.6
		c0-51.3-41.6-92.8-92.8-92.8c-33.7,0-64.8,18.3-81.2,47.8l0,0c-7.6,13.8-11.6,29.3-11.6,45c0,38.5-31.2,69.6-69.7,69.6
		c-38.4,0-69.6-31.2-69.6-69.6v-162.8c0.2-12.7,10.5-22.8,23.2-22.8h1067.3C1660.1,1206.6,1670.4,1216.7,1670.6,1229.4z"/>
	<path class="st1" d="M1508.2,1059.1v101c0,12.8-10.4,23.2-23.2,23.2H742.5c-12.8,0-23.2-10.4-23.2-23.2v-101c1.3,1.5,2.6,2.9,4,4.2
		c36.2,36.3,95,36.3,131.2,0c17.4-17.4,27.2-41,27.2-65.7c0-38.4,31.2-69.6,69.7-69.6c38.4,0,69.5,31.2,69.6,69.6
		c0,51.3,41.5,92.8,92.8,92.9s92.8-41.5,92.9-92.8l0,0v-0.1c0-38.4,31.2-69.6,69.7-69.6c38.4,0,69.5,31.2,69.6,69.6
		c0,51.3,41.5,92.8,92.8,92.8c24.6,0,48.2-9.8,65.6-27.2C1505.6,1062,1506.9,1060.6,1508.2,1059.1z"/>
	<path class="st1" d="M1670.6,1453.6V1555c-0.2,12.7-10.5,22.8-23.2,22.8H580.1c-12.7,0-23-10.1-23.2-22.8v-101.4
		c1.3,1.5,2.6,2.9,4,4.2c36.3,36.2,95.1,36.2,131.4-0.1c6.1-6.1,11.3-13,15.5-20.6l0,0c7.6-13.8,11.6-29.3,11.6-45
		c0-38.4,31.2-69.6,69.7-69.6c38.4,0,69.5,31.2,69.6,69.6c0,51.3,41.6,92.8,92.8,92.8s92.8-41.6,92.8-92.8l0,0
		c0-38.4,31.2-69.6,69.7-69.6c38.4,0,69.5,31.2,69.6,69.6c0,51.3,41.6,92.8,92.8,92.8c51.3,0,92.8-41.6,92.8-92.8l0,0
		c0-38.4,31.2-69.6,69.7-69.6c38.4,0,69.5,31.2,69.6,69.6c0,51.3,41.5,92.8,92.8,92.8c24.6,0,48.2-9.8,65.6-27.2
		C1668,1456.4,1669.3,1455,1670.6,1453.6z"/>
</g>
</svg>
