<svg id="Capa_2_copia" data-name="Capa 2 copia" xmlns="http://www.w3.org/2000/svg" viewBox="0 0 2227.5 2227.5"><defs><style>.cls-1{fill:#bf6469;}</style></defs><path class="cls-1" d="M2140,680.23C1970.9,280.49,1575.08,0,1113.75,0,498.65,0,0,498.65,0,1113.75a1110.35,1110.35,0,0,0,87.52,433.52C256.6,1947,652.42,2227.5,1113.75,2227.5A1110.17,1110.17,0,0,0,1547.27,2140C1947,1970.9,2227.5,1575.08,2227.5,1113.75A1110.25,1110.25,0,0,0,2140,680.23ZM1062.2,525.48a86.45,86.45,0,0,1,116.6,32.25,86.46,86.46,0,1,1,86.46,149.76L1150.41,773.8l28.08-48.63a69.62,69.62,0,0,0-107.87-85.63,69.6,69.6,0,0,0-42.26,3.43A86.46,86.46,0,0,1,1062.2,525.48Zm-47.55,158.7a46.47,46.47,0,0,1,25.5-20.83c.89-.31,1.78-.58,2.69-.82a46.28,46.28,0,0,1,35.22,4.64,46.41,46.41,0,0,1,81,45.29c-.21.38-.43.75-.65,1.11h0l-40.61,70.33a11.44,11.44,0,0,1-7,5.4,11.48,11.48,0,0,1-8.8-1.15l-70.33-40.61A46.39,46.39,0,0,1,1014.65,684.18ZM719.3,835.31a23.2,23.2,0,0,1,23.2-23.2H1485a23.23,23.23,0,0,1,23.2,23.2V997.74a69.61,69.61,0,0,1-139.22,0,92.81,92.81,0,1,0-185.62,0,69.61,69.61,0,1,1-139.22,0,92.81,92.81,0,0,0-185.62,0,69.61,69.61,0,0,1-139.22,0Zm0,223.81c1.28,1.47,2.62,2.88,4,4.25a92.8,92.8,0,0,0,158.44-65.63,69.61,69.61,0,0,1,139.22,0,92.81,92.81,0,1,0,185.62.1v-.1a69.61,69.61,0,0,1,139.22,0,92.81,92.81,0,0,0,158.44,65.63q2-2,4-4.25v101a23.23,23.23,0,0,1-23.2,23.21H742.5a23.24,23.24,0,0,1-23.2-23.21ZM1670.62,1555a23.2,23.2,0,0,1-23.2,22.8H580.08a23.2,23.2,0,0,1-23.21-22.8V1453.58c1.28,1.46,2.62,2.87,4,4.25a92.79,92.79,0,0,0,158.44-65.48v-.18a69.61,69.61,0,1,1,139.22,0,92.81,92.81,0,0,0,185.62,0,69.61,69.61,0,1,1,139.22,0,92.81,92.81,0,1,0,185.62,0,69.62,69.62,0,0,1,69.62-69.57h0a69.61,69.61,0,0,1,69.56,69.57,92.81,92.81,0,0,0,158.44,65.63q2.05-2,4-4.22Zm0-162.83a69.61,69.61,0,0,1-139.21,0,92.82,92.82,0,0,0-185.63-1.92v1.92a69.61,69.61,0,1,1-139.22,0,92.81,92.81,0,0,0-185.62,0,69.61,69.61,0,0,1-139.22,0,92.81,92.81,0,0,0-185.61-.18v.18a69.62,69.62,0,0,1-139.24,0V1229.37a23.2,23.2,0,0,1,23.2-22.81H1647.42a23.21,23.21,0,0,1,23.2,22.81Z"/></svg>