<?xml version="1.0" encoding="utf-8"?>
<!-- Generator: Adobe Illustrator 25.0.0, SVG Export Plug-In . SVG Version: 6.00 Build 0)  -->
<svg version="1.1" id="Capa_1" xmlns="http://www.w3.org/2000/svg" xmlns:xlink="http://www.w3.org/1999/xlink" x="0px" y="0px"
	 viewBox="0 0 1113.8 1063.3" style="enable-background:new 0 0 1113.8 1063.3;" xml:space="preserve">
<style type="text/css">
	.st0{fill:#FF96A5;}
	.st1{fill:#FFFFFF;}
	.st2{fill:#402823;}
</style>
<path class="st0" d="M601.5,199.1l-40.6,70.3c-1,1.7-2.3,3.1-4,4.1c-0.9,0.6-1.9,1-3,1.3c-3,0.8-6.1,0.4-8.8-1.1l-70.3-40.6
	c-22.2-12.8-29.8-41.2-17-63.4c5.7-9.8,14.7-17.2,25.5-20.8c0.9-0.3,1.8-0.6,2.7-0.8c11.9-3.2,24.6-1.5,35.2,4.6
	c12.5-22.4,40.8-30.4,63.2-17.9c22.4,12.5,30.4,40.8,17.9,63.2C602,198.3,601.8,198.7,601.5,199.1L601.5,199.1z"/>
<path class="st0" d="M748.7,140.5c-5.9,22.2-20.4,41.1-40.3,52.5l-114.9,66.3l28.1-48.6c19.2-33.3,7.8-75.9-25.5-95.1
	c-26.5-15.3-60-11.5-82.4,9.5c-11.1-2.6-22.8-2.4-33.8,0.6c-2.9,0.8-5.7,1.7-8.5,2.9c-23.1-41.8-8-94.4,33.8-117.5
	c41.2-22.8,93-8.4,116.6,32.3c41.4-23.9,94.2-9.7,118.1,31.7C751.5,94.8,754.6,118.4,748.7,140.5z"/>
<path class="st1" d="M951.3,320.8v162.4c0,38.4-31.2,69.6-69.6,69.6c-38.4,0-69.6-31.2-69.6-69.6c0-51.3-41.6-92.8-92.8-92.8
	s-92.8,41.6-92.8,92.8c0,38.4-31.2,69.6-69.6,69.6c-38.4,0-69.6-31.2-69.6-69.6c0-51.3-41.6-92.8-92.8-92.8s-92.8,41.6-92.8,92.8
	c0,38.4-31.2,69.6-69.6,69.6c-38.4,0-69.6-31.2-69.6-69.6V320.8c0-12.8,10.4-23.2,23.2-23.2l0,0h742.5
	C940.9,297.6,951.3,308,951.3,320.8z"/>
<path class="st1" d="M1113.8,714.9v162.8c-0.5,38.4-32,69.2-70.4,68.8c-37.8-0.5-68.3-31-68.8-68.8c0.5-51.3-40.6-93.2-91.9-93.8
	s-93.2,40.6-93.8,91.9c0,0.6,0,1.3,0,1.9c0,38.4-31.2,69.6-69.6,69.6c-38.4,0-69.6-31.2-69.6-69.6c0-51.3-41.6-92.8-92.8-92.8
	s-92.8,41.6-92.8,92.8c0,38.4-31.2,69.6-69.6,69.6c-38.4,0-69.6-31.2-69.6-69.6c0-51.3-41.6-92.8-92.8-92.8
	c-33.7,0-64.8,18.3-81.2,47.8l0,0c-7.6,13.8-11.6,29.3-11.6,45c0,38.5-31.2,69.6-69.6,69.6S0,916.2,0,877.7V714.9
	c0.2-12.7,10.5-22.8,23.2-22.8h1067.4C1103.2,692.1,1113.5,702.2,1113.8,714.9z"/>
<path class="st2" d="M951.3,544.6v101c0,12.8-10.4,23.2-23.2,23.2H185.6c-12.8,0-23.2-10.4-23.2-23.2v-101c1.3,1.5,2.6,2.9,4,4.2
	c36.2,36.3,95,36.3,131.2,0c17.4-17.4,27.2-41,27.2-65.7c0-38.4,31.2-69.6,69.6-69.6c38.4,0,69.6,31.2,69.6,69.6
	c0,51.3,41.5,92.8,92.8,92.9c51.3,0,92.8-41.5,92.9-92.8c0,0,0-0.1,0-0.1c0-38.4,31.2-69.6,69.7-69.6c38.4,0,69.5,31.2,69.6,69.6
	c0,51.3,41.5,92.8,92.8,92.8c24.6,0,48.2-9.8,65.6-27.2C948.7,547.5,950,546.1,951.3,544.6z"/>
<path class="st2" d="M1113.8,939.1v101.4c-0.2,12.7-10.5,22.8-23.2,22.8H23.2c-12.7,0-23-10.1-23.2-22.8V939.1
	c1.3,1.5,2.6,2.9,4,4.2c36.3,36.2,95.1,36.2,131.4-0.1c6.1-6.1,11.3-13,15.5-20.6l0,0c7.6-13.8,11.6-29.3,11.6-45
	c0-38.4,31.2-69.6,69.6-69.6c38.4,0,69.6,31.2,69.6,69.6c0,51.3,41.6,92.8,92.8,92.8s92.8-41.6,92.8-92.8l0,0
	c0-38.4,31.2-69.6,69.6-69.6c38.4,0,69.6,31.2,69.6,69.6c0,51.3,41.6,92.8,92.8,92.8s92.8-41.6,92.8-92.8l0,0
	c0-38.4,31.2-69.6,69.7-69.6c38.4,0,69.5,31.2,69.6,69.6c0,51.3,41.5,92.8,92.8,92.8c24.6,0,48.2-9.8,65.6-27.2
	C1111.1,942,1112.5,940.5,1113.8,939.1z"/>
</svg>
