<svg id="Capa_1" data-name="Capa 1" xmlns="http://www.w3.org/2000/svg" viewBox="0 0 1113.76 1063.32"><path d="M601.53,199.08l-40.61,70.33a11.41,11.41,0,0,1-4,4.12,11.85,11.85,0,0,1-3,1.28,11.52,11.52,0,0,1-8.8-1.15l-70.33-40.61a46.39,46.39,0,0,1,8.49-84.19c.89-.31,1.78-.58,2.69-.82a46.23,46.23,0,0,1,35.22,4.64,46.41,46.41,0,1,1,80.38,46.4Z"/><path d="M748.68,140.5A86.25,86.25,0,0,1,708.39,193L593.54,259.31l28.08-48.63a69.62,69.62,0,0,0-107.87-85.63,69.4,69.4,0,0,0-33.81.57,68.28,68.28,0,0,0-8.45,2.86A86.46,86.46,0,0,1,621.93,43.24,86.47,86.47,0,0,1,748.68,140.5Z"/><path d="M951.33,320.82V483.25a69.61,69.61,0,0,1-139.22,0,92.81,92.81,0,1,0-185.62,0,69.61,69.61,0,0,1-139.22,0,92.81,92.81,0,1,0-185.62,0,69.61,69.61,0,0,1-139.22,0V320.82a23.2,23.2,0,0,1,23.2-23.2h742.5a23.22,23.22,0,0,1,23.2,23.2Z"/><path d="M1113.75,714.88V877.7a69.61,69.61,0,0,1-139.21,0,92.82,92.82,0,1,0-185.63,0,69.61,69.61,0,0,1-139.22,0,92.81,92.81,0,1,0-185.62,0,69.61,69.61,0,0,1-139.22,0,92.82,92.82,0,0,0-174-45h0a92.29,92.29,0,0,0-11.61,45A69.61,69.61,0,0,1,0,877.7V714.88a23.19,23.19,0,0,1,23.2-22.81H1090.55a23.21,23.21,0,0,1,23.2,22.81Z"/><path d="M951.33,544.63v101a23.22,23.22,0,0,1-23.2,23.2H185.63a23.22,23.22,0,0,1-23.2-23.2v-101q1.92,2.19,4,4.25a92.8,92.8,0,0,0,158.44-65.63,69.61,69.61,0,0,1,139.22,0,92.81,92.81,0,1,0,185.62,0,69.61,69.61,0,0,1,139.22,0,92.81,92.81,0,0,0,158.44,65.63Q949.41,546.83,951.33,544.63Z"/><path d="M1113.76,715.28c0,.13,0,.27,0,.4v-.8C1113.76,715,1113.76,715.15,1113.76,715.28Z"/><path d="M1113.76,1040.12c0,.13,0,.27,0,.4v-.8C1113.76,1039.85,1113.76,1040,1113.76,1040.12Z"/><path d="M0,714.88v.8c0-.13,0-.27,0-.4S0,715,0,714.88Z"/><path d="M1113.75,939.08v101.44a23.19,23.19,0,0,1-23.2,22.8H23.21A23.19,23.19,0,0,1,0,1040.52V939.08q1.92,2.19,4,4.25a92.88,92.88,0,0,0,146.84-20.66h0a92.39,92.39,0,0,0,11.6-45,69.61,69.61,0,0,1,139.22,0,92.81,92.81,0,1,0,185.62,0,69.61,69.61,0,0,1,139.22,0,92.81,92.81,0,1,0,185.62,0,69.61,69.61,0,0,1,139.22,0,92.81,92.81,0,0,0,158.44,65.63Q1111.83,941.28,1113.75,939.08Z"/><path d="M0,1039.72v.8c0-.13,0-.27,0-.4S0,1039.85,0,1039.72Z"/></svg>