<svg xmlns="http://www.w3.org/2000/svg" viewBox="0 0 1080 1080"><defs><style>.cls-1{fill:#1d1d1b;}.cls-2{fill:#3c3c3b;}.cls-3{fill:#fff;}.cls-4{fill:#c47987;}.cls-5{fill:#b16e7a;}.cls-6{fill:#f192a4;}</style></defs><g id="Capa_3" data-name="Capa 3"><path class="cls-1" d="M945.11,563.59a27,27,0,0,1-14,22.09,27,27,0,0,1-7.94,45,27,27,0,0,1-13.14,43.78,27,27,0,0,1-18.13,42A27,27,0,0,1,869.05,756a27,27,0,0,1-27.35,36.67A27,27,0,0,1,810.29,826a27,27,0,0,1-35.08,29.39A27,27,0,0,1,737,880.47,27.07,27.07,0,0,1,696,901a27.05,27.05,0,0,1-43,15.63,27.08,27.08,0,0,1-44.56,10.54,27.07,27.07,0,0,1-45.48,5.3,27.06,27.06,0,0,1-45.78,0,27.06,27.06,0,0,1-45.47-5.3,27.07,27.07,0,0,1-44.56-10.54,27.06,27.06,0,0,1-43-15.63,27.07,27.07,0,0,1-40.93-20.51A27,27,0,0,1,305,855.35,27.05,27.05,0,0,1,269.89,826a27,27,0,0,1-31.4-33.25A27,27,0,0,1,211.14,756a27,27,0,0,1-22.9-39.58,27,27,0,0,1-18.13-42A27,27,0,0,1,157,630.7a27,27,0,0,1-7.94-45,27,27,0,0,1-2.68-45.63A27,27,0,0,1,149,494.41a27,27,0,0,1,7.94-45,27,27,0,0,1,13.13-43.78,27,27,0,0,1,18.13-42,27,27,0,0,1,22.9-39.58,27,27,0,0,1,27.35-36.67,27,27,0,0,1,31.4-33.25A27,27,0,0,1,305,224.75a27,27,0,0,1,38.24-25.13,27.08,27.08,0,0,1,40.93-20.51,27.06,27.06,0,0,1,43-15.63,27.07,27.07,0,0,1,44.56-10.54,27.06,27.06,0,0,1,45.47-5.3,27.06,27.06,0,0,1,45.78,0,27.07,27.07,0,0,1,45.48,5.3A27.08,27.08,0,0,1,653,163.48a27.05,27.05,0,0,1,43,15.63A27.08,27.08,0,0,1,737,199.62a27,27,0,0,1,38.25,25.13,27,27,0,0,1,35.08,29.38,27,27,0,0,1,31.41,33.25,27,27,0,0,1,27.35,36.67,27,27,0,0,1,22.89,39.58,27,27,0,0,1,18.13,42,27,27,0,0,1,13.14,43.78,27,27,0,0,1,7.94,45,27,27,0,0,1,2.67,45.64A26.92,26.92,0,0,1,945.11,563.59Z"/><ellipse class="cls-2" cx="540.09" cy="540.05" rx="351.61" ry="351.03"/><path class="cls-3" d="M540.09,200h-5l.07,5c1.63,0,3.29,0,4.93,0v-5Zm-15,.33-4,.19h-.37l-.61,0,.29,5c1.63-.09,3.28-.18,4.92-.25l-.22-5Zm-15,1c-1.66.15-3.32.3-5,.47l.5,5c1.63-.17,3.28-.33,4.91-.47l-.44-5Zm-14.91,1.63-2,.27h0l-.11,0H493l-.09,0h-.12l-2.55.37.73,4.94c1.61-.23,3.26-.46,4.88-.67l-.66-5Zm-14.82,2.28c-1.64.29-3.29.59-4.92.91l.94,4.91c1.61-.31,3.24-.61,4.85-.9l-.87-4.92Zm-14.71,2.93c-1.63.37-3.25.74-4.87,1.13l1.16,4.86c1.59-.38,3.2-.75,4.8-1.11l-1.09-4.88Zm-14.56,3.58-3,.83h0l-.06,0-.08,0h-.05l-.1,0h0l-.12,0h0l-1.33.38h0l1.37,4.81c1.57-.45,3.17-.89,4.75-1.32l-1.3-4.83ZM436.72,216l-2.67.86h0l-.1,0-.05,0-.09,0h0l-.09,0-.05,0-.11,0-.07,0-.09,0-.06,0-.08,0-.06,0-.07,0-.07,0-.08,0h0l-.14,0h0l-.14,0,0,0-.1,0h0l-.11,0h0l-.28.1,1.58,4.74c1.55-.52,3.13-1,4.69-1.53L436.72,216Zm-14.19,4.85h0l-.06,0-.29.11h0l-.08,0-.05,0-.08,0-.06,0-.08,0-.06,0-.08,0-.12.05-.05,0-.08,0-.06,0-.08,0-.05,0-.11,0h0l-2,.76h0l-.11,0h0l-.09,0-.92.35,1.8,4.67c1.52-.59,3.07-1.17,4.61-1.73l-1.73-4.7Zm-14,5.48-.67.28,0,0-.07,0-.07,0-.05,0-.1,0h0L405,227.81l0,0-.08,0-.07,0-.05,0-.09,0h0l-.69.3,2,4.58c1.5-.65,3-1.3,4.53-1.93l-1.93-4.62Zm-13.7,6.1q-2.26,1.06-4.51,2.16l2.2,4.49c1.46-.72,3-1.44,4.44-2.13l-2.13-4.52Zm-13.43,6.69q-2.2,1.15-4.4,2.36l2.39,4.39c1.43-.78,2.9-1.57,4.34-2.33l-2.33-4.42Zm-13.11,7.28q-2.16,1.26-4.3,2.55l2.58,4.28c1.4-.85,2.83-1.69,4.24-2.52l-2.52-4.31Zm-12.78,7.85c-.9.57-1.79,1.16-2.68,1.74h0l-.1.06h0a2.53,2.53,0,0,1-.27.18l0,0-.06,0-.07.05,0,0-.1.07h0l-.78.52,2.77,4.16c1.37-.91,2.75-1.82,4.13-2.7l-2.71-4.2Zm-12.43,8.4-.19.14h0l-.09.06,0,0-.06,0-1.9,1.36h0l-.11.08,0,0-.07,0-.06.05,0,0-1.45,1,3,4c1.32-1,2.66-1.94,4-2.88l-2.89-4.08Zm-12,8.94c-1.31,1-2.63,2.06-3.93,3.1l3.13,3.9c1.28-1,2.58-2.05,3.87-3.05l-3.07-3.95ZM319.44,281l-.68.58h0l-.08.06,0,0-.07.06,0,0-.06,0-.07.06,0,0-.12.09h0l-.11.09h0l-.11.09h0l-2.36,2L319,288c1.23-1.08,2.48-2.16,3.73-3.22L319.44,281Zm-11.21,10c-1.22,1.13-2.44,2.28-3.64,3.43L308,298c1.18-1.13,2.39-2.26,3.59-3.37l-3.4-3.67Zm-10.77,10.44-1.61,1.64h0l-.07.07,0,0-.05.05-.07.08,0,0c-.55.55-1.09,1.12-1.63,1.68l3.61,3.46c1.13-1.18,2.29-2.37,3.44-3.53l-3.56-3.52Zm-10.3,10.91c-1.12,1.24-2.22,2.48-3.33,3.73l3.76,3.3c1.08-1.23,2.18-2.47,3.28-3.68l-3.71-3.35Zm-9.81,11.34c-1.07,1.29-2.11,2.58-3.16,3.88l3.9,3.13c1-1.28,2.07-2.56,3.11-3.82l-3.85-3.19ZM268,335.43l-.74,1,0,0-.07.09,0,0-.05.07,0,.05,0,.05-.2.27h0l-1.66,2.25h0l-.06.09,0,0,0,.05,4,2.95,2.94-3.95-4-3Zm-8.77,12.16c-.88,1.27-1.74,2.54-2.6,3.83h0l-.07.09,0,0-.05.06-.07.12,4.16,2.77c.91-1.36,1.84-2.73,2.76-4.08l-4.11-2.83ZM251,360.12c-.88,1.42-1.76,2.84-2.62,4.26l4.28,2.59c.84-1.4,1.71-2.81,2.58-4.19L251,360.12ZM243.36,373l-.08.13,0,0,0,.08-.05.09v0c-.33.57-.66,1.15-1,1.73l0,.07,0,.05-.06.1v0c-.38.68-.75,1.36-1.12,2l4.38,2.4q1.19-2.16,2.4-4.31L243.36,373Zm-7.1,13.21c-.13.25-.25.5-.38.74h0l-.06.11h0l-.08.16,0,.07,0,.05-.05.09v0l-.06.12h0L234,390.7l4.49,2.2c.72-1.47,1.46-2.95,2.21-4.41l-4.46-2.27Zm-6.51,13.52c-.25.56-.49,1.1-.75,1.66h0l0,.1,0,0,0,.09,0,0,0,.08,0,.06,0,.1-.05.1,0,0,0,.09,0,0,0,.11v0c-.3.66-.59,1.32-.88,2l4.58,2c.66-1.5,1.33-3,2-4.5l-4.56-2.07Zm-5.9,13.79q-.93,2.31-1.82,4.65h0l4.67,1.8c.59-1.53,1.19-3.07,1.8-4.59l-4.64-1.86Zm-5.28,14-.25.73h0l0,.13v0l0,.1v.05l0,.09v.05l0,.13v0l0,.11v.05l0,.09,0,.05,0,.08,0,.06,0,.1,0,0-.09.29h0l0,.13v0c-.27.78-.53,1.57-.8,2.36l4.74,1.58c.52-1.55,1.06-3.11,1.6-4.66l-4.72-1.65Zm-4.65,14.26c-.48,1.59-.95,3.2-1.41,4.79l4.81,1.38c.45-1.57.92-3.16,1.39-4.73l-4.79-1.44Zm-4,14.45q-.49,1.94-1,3.87v0l0,.09v.05l0,.08v.06l0,.08,0,.08,0,.05,0,.14v0l0,.11v0l0,.11h0l4.86,1.16c.38-1.59.78-3.2,1.18-4.78l-4.85-1.23Zm-3.36,14.62c-.08.35-.15.71-.22,1.06h0l0,.13v0l0,.11v0l0,.1,0,.13v.05l0,.11v0l0,.12h0c-.2,1-.39,2-.58,3l4.91.94c.31-1.61.63-3.23,1-4.83l-4.89-1Zm-2.72,14.75c-.1.61-.19,1.23-.29,1.85h0l0,.14v0l0,.12v0l0,.13v0c-.14.87-.27,1.75-.4,2.62l5,.72c.24-1.62.49-3.25.75-4.87l-4.94-.79Zm-2.05,14.85v.19l0,.09v.27c0,.16,0,.32-.05.48h0c-.15,1.31-.29,2.62-.42,3.94l5,.5c.17-1.63.34-3.28.53-4.9l-5-.58Zm-1.4,14.94v.32c-.11,1.55-.21,3.11-.29,4.67l5,.28c.09-1.63.2-3.28.31-4.91l-5-.36Zm-.75,15c0,.78,0,1.55,0,2.33h0v.42h0c0,.74,0,1.48,0,2.23l5,.06c0-1.63.05-3.29.1-4.92l-5-.14Zm4.91,14.93-5,.08c0,.41,0,.83,0,1.24v2h0v1.6h0v.09l5-.15c-.05-1.63-.09-3.29-.11-4.92Zm.55,14.77-5,.3c.07,1.2.15,2.42.23,3.62v.27h0c0,.36.05.73.08,1.09l5-.37c-.12-1.63-.23-3.28-.33-4.91Zm1.2,14.73-5,.51c.17,1.67.36,3.32.55,5l5-.58c-.19-1.63-.38-3.27-.54-4.9Zm1.84,14.66-4.95.73c0,.34.11.69.16,1v.11l0,.08v0l0,.1v0l0,.14h0c.17,1.13.35,2.27.53,3.4l4.94-.81c-.27-1.61-.52-3.25-.76-4.87Zm2.49,14.57-4.91.95c.26,1.33.52,2.65.8,4v0l0,.11,0,.05v.07l0,.09h0l.12.58,4.89-1c-.33-1.6-.66-3.23-1-4.83Zm3.13,14.44-4.86,1.17.58,2.39h0l0,.09,0,.06v.07l0,.08,0,.05,0,.11v0c0,.15.07.3.11.44h0l0,.14v0l0,.12v0l.07.29h0l0,.13v.06l0,.07,0,.08,0,0,0,.1h0c0,.13.07.26.11.4l4.84-1.24c-.41-1.58-.8-3.19-1.19-4.78Zm3.78,14.29-4.81,1.38v0l0,.08,0,.05,0,.11v0c.37,1.29.76,2.59,1.15,3.88h0l.08.28,0,.09v0l0,.12h0l0,.07,4.78-1.45c-.47-1.57-.94-3.15-1.39-4.72Zm4.4,14.1-4.74,1.6.28.82v0l0,.08,0,.08,0,0,0,.13h0c.37,1.08.75,2.16,1.13,3.24V653l0,.08,0,.08v0l0,.05,4.72-1.67c-.55-1.54-1.09-3.1-1.61-4.65Zm5,13.89-4.67,1.81c.25.63.5,1.26.74,1.89v0l0,.11,0,0,0,.08,0,.07,0,0c.31.8.63,1.6.95,2.39l4.64-1.88c-.61-1.51-1.22-3-1.81-4.58Zm5.64,13.66-4.58,2,.06.14h0l0,.12v0l0,.1v0l.06.12,0,.08,0,0,0,.09,0,0,0,.1v0l.25.57h0l.05.11h0l.21.46h0l.05.11h0l.05.11h0l.2.45v0l0,.11h0l.05.11h0c.07.15.13.3.2.46h0l.47,1.06,4.55-2.08c-.68-1.49-1.35-3-2-4.5Zm6.24,13.4-4.48,2.21q1.09,2.23,2.24,4.47l4.45-2.28c-.74-1.46-1.49-2.94-2.21-4.4Zm6.83,13.1-4.38,2.41c.14.27.29.54.44.81l0,0,0,.07,0,.07,0,0c.62,1.11,1.24,2.22,1.87,3.32l4.34-2.47c-.81-1.42-1.61-2.87-2.4-4.3Zm7.4,12.79-4.27,2.6c.43.71.87,1.42,1.31,2.13h0l1.32,2.12,4.23-2.66c-.87-1.38-1.74-2.79-2.59-4.19Zm8,12.45L256.88,729l.95,1.42h0l.08.11v0l.08.11v0l.08.12h0l.08.11,0,0,.06.09,0,0,.06.08,0,0,.06.09,0,0,.07.11,0,0,0,.06.05.07,0,0,.05.07,0,0,.92,1.34,4.11-2.84c-.93-1.35-1.86-2.72-2.77-4.08Zm8.5,12.09-4,3,.46.62,0,0,.05.07,0,.06,0,0c.78,1.06,1.57,2.1,2.36,3.14h0l0,0,4-3c-1-1.3-2-2.63-3-4Zm9,11.71-3.89,3.14c1,1.29,2.11,2.59,3.17,3.87l3.84-3.2c-1-1.26-2.09-2.54-3.12-3.81Zm9.53,11.3-3.75,3.3.52.59h0l.09.11,0,0,.08.08,0,0,.08.09,0,0,.09.11.05.05,0,0,.06.06,0,0,.06.07,0,0a2.85,2.85,0,0,1,.23.26h0l.08.09h0l.07.09h0l1.73,1.92,3.71-3.36c-1.1-1.21-2.21-2.45-3.29-3.67Zm10,10.87-3.61,3.47.21.21,0,0,.06.06.05.06,0,0,.07.08h0c.91,1,1.82,1.87,2.75,2.81h0l.08.08,0,0,.07.08h0l.07.07,3.55-3.52c-1.15-1.16-2.31-2.34-3.44-3.52Zm10.48,10.42-3.45,3.62.45.42,0,0,.06.06.06,0,0,0,.07.06h0c1,.92,1.94,1.83,2.93,2.74l3.39-3.67c-1.2-1.11-2.41-2.24-3.59-3.37Zm10.92,9.95-3.28,3.77,1.35,1.17,0,0,.07,0,.05.05,0,0,.34.3h0l1.9,1.62,3.23-3.82c-1.25-1.06-2.5-2.14-3.74-3.21ZM330.86,802l-3.12,3.91.05,0,0,0q1.89,1.5,3.79,3l0,0,0,0,3.06-4c-1.29-1-2.59-2-3.87-3Zm11.75,9-2.94,4c.86.63,1.74,1.26,2.61,1.88l0,0,.06.05.06,0,.05,0,.1.07h0l1.15.81,2.88-4.09c-1.34-.94-2.68-1.91-4-2.87Zm12.14,8.43L352,823.56c.9.6,1.78,1.18,2.69,1.76h0l.09.06,0,0,.09.06h0l.29.18,0,0,.08.05,0,0,.09,0h0c.23.16.49.32.73.47l2.7-4.21c-1.38-.88-2.77-1.78-4.13-2.69Zm12.5,7.89-2.58,4.29q2.15,1.29,4.31,2.54l2.51-4.32c-1.41-.82-2.84-1.66-4.24-2.51Zm12.83,7.34L377.69,839l1.86,1h0l.11.05h0l.43.23h0l.1,0h0l.1.06h0l1.75.92,2.32-4.43c-1.45-.75-2.91-1.53-4.35-2.31Zm13.14,6.76L391,845.87l.91.44,0,0,.08,0,.05,0,.07,0,.08,0,.05,0,.12.06,0,0,.09,0,.06,0,.07,0,.06,0,.07,0,.06,0,.07,0,.15.07h0l.08,0,0,0,.09,0,0,0,.09,0,0,0,.09,0h0l.33.16h0l.1.05h0l.1,0h0l.31.14,0,0,.08,0,.06,0,.06,0,.08,0,0,0,.7.33,2.12-4.53-4.45-2.12Zm13.43,6.17-2,4.59q2.29,1,4.6,2l1.92-4.62c-1.51-.63-3-1.27-4.53-1.92Zm13.69,5.57-1.79,4.67,1.9.72h0l.13,0h0l.1,0h0l.09,0,0,0,.11,0,.11,0h0l.1,0h0l.11,0h0l1.84.68,1.71-4.7c-1.53-.56-3.09-1.14-4.61-1.72Zm13.92,5-1.58,4.74,1,.34h0l.05,0,.09,0h0l.12,0h0l2.22.71h0l.14,0h0l.14.05h0l.28.09h.05l.08,0,.07,0,.07,0,.07,0,.06,0,.08,0h0l.1,0,1.5-4.77c-1.56-.49-3.13-1-4.68-1.51Zm14.12,4.34L447,867.23l4.06,1.12h0l.11,0,.05,0,.08,0,.07,0h0l.41.11,1.29-4.83c-1.58-.42-3.18-.86-4.75-1.3Zm14.31,3.7L461.54,871l.75.18h0l.1,0h.05l.09,0,.06,0h.07l.08,0h.05l.31.07h0l.1,0h0l.1,0h0l.1,0h0l.5.12h0l.12,0h0l2.21.49,1.07-4.88c-1.6-.35-3.21-.72-4.8-1.1Zm14.45,3.07-.93,4.92,2.46.45h0l.15,0h0l.14,0h0l.6.11h0l.13,0h0l.13,0h0l.14,0h0l.15,0h.14l.08,0h.19l.11,0h0l.41.07.86-4.92c-1.61-.29-3.24-.58-4.85-.89Zm14.58,2.43-.71,5,1.22.18h0l.12,0h0l.1,0h.05l.09,0h.06l.08,0,.14,0H493l.08,0h.06l.09,0h.32l.34.05h.68l1.39.18.64-5c-1.62-.21-3.26-.43-4.88-.67Zm14.67,1.79-.49,5c1.65.16,3.31.31,5,.45l.42-5c-1.62-.14-3.27-.29-4.9-.45Zm14.74,1.14-.28,5c1,.06,1.95.11,2.93.15h.74l1.32.06.21-5c-1.64-.07-3.29-.15-4.92-.24Zm14.77.5-.06,5,2.39,0h2.61v-5h-.74c-1.4,0-2.8,0-4.19,0Zm19.71-.32c-1.63.07-3.28.13-4.92.18l.16,5,.92,0h.41l2.3-.09h.27l1.09,0-.23-5Zm14.75-1c-1.63.15-3.28.28-4.91.41l.37,5c1.67-.12,3.33-.26,5-.41l-.45-5Zm14.69-1.63c-1.62.21-3.26.42-4.89.61l.59,5c1.14-.13,2.25-.27,3.39-.42h.5l1.07-.15-.66-4.95Zm14.6-2.28c-1.61.29-3.24.57-4.85.83l.81,4.93.45-.07h.13l.1,0h0l.12,0h0c1.37-.22,2.72-.46,4.08-.7l-.88-4.92Zm14.49-2.92c-1.6.36-3.22.71-4.81,1l1,4.9.85-.18h0l.11,0h.13l.12,0h0l3.2-.7h0l.12,0H615l.24-.05-1.09-4.88Zm14.34-3.56c-1.58.43-3.18.85-4.76,1.25l1.24,4.85,1.8-.47h0l.1,0H627l.09,0,.06,0,.08,0,.06,0,.09,0,.12,0,.06,0,.08,0h.06l.08,0,.06,0,.08,0h0l.09,0h0l.18,0h0l.08,0,.06,0h.07l.07,0,.07,0,.08,0,0,0,.13,0h0l.9-.25-1.31-4.82Zm14.17-4.19c-1.56.49-3.14,1-4.7,1.46l1.45,4.79,3.08-1h0l.1,0,0,0,.08,0,.08,0,.05,0,.13,0h0l1.19-.38-1.53-4.76Zm14-4.82c-1.53.57-3.09,1.13-4.63,1.67l1.66,4.72c1.58-.56,3.14-1.12,4.71-1.7l-1.74-4.69Zm13.75-5.43c-1.51.63-3,1.27-4.56,1.88l1.87,4.63c1.43-.57,2.85-1.16,4.26-1.75h0l.11,0h0l.09,0,.09,0h0l-1.94-4.61Zm13.49-6c-1.48.7-3,1.4-4.47,2.07l2.07,4.55q2.28-1,4.54-2.1l-2.14-4.52Zm13.21-6.63c-1.45.77-2.92,1.53-4.37,2.28L695,843c1.06-.54,2.13-1.09,3.19-1.65h0l.11,0,0,0,.1-.06h0l.1-.06.05,0,.1-.05.07,0,.05,0,.09,0,0,0,.48-.25-2.34-4.42ZM710,829c-1.41.83-2.84,1.66-4.26,2.47l2.46,4.35.89-.51h0l.1-.05,0,0,.07,0,.09-.05h0l.13-.08h0c1-.57,2-1.14,3-1.72L710,829Zm12.58-7.76c-1.37.89-2.77,1.78-4.15,2.65l2.65,4.24,2.72-1.72h0l.09-.06,0,0,.09-.06h0l.27-.17.05,0,.06,0,.06,0,.06,0,.07,0,0,0,.09-.06h0l.12-.08,0,0,.1-.06,0,0,.1-.07h0l.12-.08h0l-2.72-4.2Zm12.22-8.3c-1.33.94-2.69,1.9-4,2.82l2.84,4.12,2.11-1.47h0l.1-.07h0l.15-.1.06,0,0,0,.08-.06,0,0,.09-.07h0l1.39-1-2.9-4.07Zm11.85-8.84c-1.29,1-2.6,2-3.91,3l3,4,.58-.44,0,0,.06,0,.07,0,0,0,.1-.08h0c1-.78,2.06-1.58,3.09-2.38l-3.08-3.94Zm11.45-9.35c-1.24,1.06-2.51,2.13-3.77,3.17l3.19,3.85c1.28-1.06,2.55-2.13,3.83-3.22l-3.25-3.8Zm11-9.84c-1.2,1.12-2.42,2.24-3.63,3.34l3.36,3.7,0,0,0,0,.06-.06,0,0,.07-.06,0,0,.35-.31h0l.09-.08h0l.36-.34h0l.08-.08h0l.08-.08h0l.24-.23,0,0,.06-.06,0,0,.05-.05.06,0,.05-.05.07-.07,0,0,.11-.1,0,0L771,790l0,0,.09-.07,0,0,.1-.09h0l.22-.21h0l.1-.09,0,0,.1-.09h0L772,789h0l.09-.09,0,0,.09-.08,0,0,.11-.1,0,0,.06,0,0,0L769.1,785Zm10.58-10.31c-1.14,1.16-2.31,2.34-3.47,3.49l3.51,3.55,0,0,0,0c.6-.59,1.19-1.18,1.78-1.78h0l.07-.07,0,0,.06-.06,0,0,.05,0,.1-.1,0,0,.09-.09h0l.1-.1h0c.37-.36.74-.74,1.1-1.11l-3.57-3.5Zm10.13-10.77c-1.09,1.22-2.21,2.44-3.32,3.64l3.66,3.4,2-2.18h0l.09-.1v0l.1-.1h0l.1-.1,0,0,0-.06.06-.06,0,0,.06-.06,0,0,.23-.26h0l.07-.08,0,0,.07-.08,0,0,.07-.08h0l.16-.18h0l.06-.07,0,0,0,0-3.72-3.35Zm9.64-11.2c-1,1.26-2.1,2.54-3.16,3.78l3.82,3.24.26-.31h0l.08-.09h0l.08-.09h0l.23-.27,0,0,.06-.07,0,0,.06-.07,0,0,0-.06.05-.06.07-.08.05-.07,0,0,.06-.07,0,0,.07-.07,0,0,.09-.1h0l.19-.23,0,0,.08-.1h0l1.49-1.8-3.86-3.18Zm9.15-11.61c-1,1.31-2,2.62-3,3.91l4,3.07,0-.06,0,0,.07-.1h0c.39-.49.77-1,1.16-1.49l0,0,0-.07,0,0,0-.06.06-.08,0,0,1.5-2-4-3Zm8.62-12c-.92,1.35-1.87,2.71-2.82,4l4.09,2.89c.52-.75,1-1.48,1.56-2.24h0l.07-.09h0l.21-.3h0l.06-.09,0,0,.06-.08,0,0,.06-.09h0l.21-.31h0l.06-.09h0l.48-.71-4.12-2.82Zm8.09-12.37c-.87,1.38-1.75,2.79-2.64,4.16l4.21,2.71c.16-.26.33-.52.5-.78l0-.08,0,0c.7-1.11,1.41-2.22,2.1-3.34l-4.24-2.64ZM832.84,704c-.8,1.43-1.63,2.87-2.45,4.28l4.32,2.52.21-.36h0l.06-.11h0l.31-.54h0c.12-.22.25-.44.38-.66h0l1.51-2.65L832.84,704Zm7-13c-.73,1.46-1.49,2.93-2.25,4.38l4.42,2.32,0,0v0c.53-1,1.06-2,1.58-3.05l0,0,0-.08,0,0,0-.07,0-.09,0,0c.17-.32.33-.65.49-1l-4.46-2.26Zm6.38-13.33c-.67,1.49-1.36,3-2.06,4.47l4.53,2.13c.57-1.21,1.12-2.41,1.68-3.63v0l0-.08,0-.06,0-.07,0-.08,0,0c.08-.19.17-.37.25-.56l-4.56-2.06ZM852,664c-.6,1.52-1.23,3-1.85,4.56l4.61,1.93c.43-1,.86-2.08,1.27-3.11l0,0,0-.09,0,0,0-.08,0-.07,0-.06.05-.13v0l0-.12h0c.12-.29.23-.58.35-.86L852,664Zm5.18-13.84c-.54,1.54-1.1,3.1-1.66,4.64l4.7,1.72c.13-.36.25-.71.38-1.06l0-.11v0l0-.12h0l1.2-3.38-4.72-1.65Zm4.55-14.06c-.47,1.57-1,3.15-1.45,4.71l4.77,1.51.33-1.07,0-.12v0l0-.13h0l.78-2.53h0l.08-.29,0-.08v0l0-.11v0c0-.12.07-.23.11-.36l-4.79-1.43Zm3.92-14.25c-.4,1.59-.82,3.19-1.24,4.77l4.83,1.29.08-.29v0l0-.1,0-.06v-.05c.38-1.44.75-2.87,1.12-4.32l-4.85-1.22Zm3.28-14.4c-.33,1.6-.67,3.22-1,4.82l4.88,1.07c.13-.61.27-1.22.4-1.83h0l0-.13v0l0-.11v0l0-.11v0l0-.1,0-.12v-.06l0-.09v0l0-.1v0l0-.11h0c.14-.65.27-1.27.4-1.92l-4.9-1Zm2.64-14.54c-.26,1.61-.53,3.25-.81,4.86l4.93.85c.12-.71.25-1.43.37-2.15h0c0-.15.05-.31.07-.46v0l0-.12v0l0-.11v-.19l0-.12v0l0-.3v0l0-.14h0c.07-.41.13-.82.2-1.23l-4.94-.78Zm2-14.64c-.18,1.62-.38,3.27-.59,4.89l5,.63c.09-.66.17-1.33.25-2h0l0-.13v0l0-.09c.1-.89.21-1.81.31-2.7l-5-.56Zm1.35-14.72c-.11,1.63-.24,3.28-.38,4.91l5,.42.27-3.42h0c0-.52.07-1,.11-1.56l-5-.34Zm.7-14.77c0,1.64-.09,3.3-.16,4.93l5,.2v0h0l0-.67v-.57c0-.12,0-.23,0-.36v-1.81h0c0-.51,0-1,0-1.53l-5-.13Zm5.06-14.88-5,.09c0,1.64,0,3.3,0,4.93h5v-1.58c0-1.14,0-2.28,0-3.43Zm-.59-15-5,.3c.1,1.64.19,3.29.26,4.93l5-.24c-.08-1.66-.17-3.33-.27-5ZM878.79,504l-5,.53c.17,1.62.33,3.27.48,4.9l5-.45-.15-1.65v-.54l0-.3h0c-.09-.82-.17-1.65-.26-2.48Zm-1.9-14.87-4.95.74c.25,1.61.48,3.25.7,4.87l5-.67,0-.09h0c-.13-1-.27-1.94-.41-2.91h0v-.14c0-.16,0-.31-.07-.48v0l0-.09v-.06l0-.08v-.33c0-.12,0-.24,0-.36h0l0-.12v0l0-.2Zm-2.56-14.78-4.91,1c.32,1.6.62,3.23.91,4.84l4.92-.89c-.24-1.33-.48-2.66-.74-4h0l0-.13v0l0-.1v-.05l0-.09v-.06l0-.06c0-.12,0-.26-.07-.38Zm-3.21-14.66-4.86,1.18c.38,1.59.76,3.21,1.12,4.8l4.88-1.11c-.09-.4-.18-.8-.28-1.2v0l0-.12v0l0-.11v0l0-.13v0l0-.11v-.06l0-.08,0-.07v-.07l0-.07,0-.08v-.06l0-.11v0l0-.14v0l0-.13v0l0-.12v0c-.16-.66-.32-1.31-.47-2Zm-3.87-14.49-4.8,1.4c.46,1.57.91,3.16,1.34,4.74l4.82-1.33c-.38-1.4-.78-2.8-1.18-4.2v0l0-.1v-.06l0-.07,0-.08v0l-.07-.24Zm-4.5-14.31L858,432.48c.52,1.55,1,3.12,1.55,4.68l4.75-1.54c-.38-1.18-.77-2.36-1.16-3.54l0-.06,0-.07,0-.08v0l-.33-1Zm-5.13-14.09L853,418.6c.59,1.52,1.18,3.07,1.75,4.6l4.69-1.75c-.15-.38-.29-.77-.44-1.16v0l0-.11v-.05l0-.07,0-.07v0c-.29-.77-.59-1.56-.89-2.32l0-.1v0l-.27-.72Zm-5.76-13.85-4.57,2c.66,1.5,1.32,3,2,4.52l4.61-2c-.4-.93-.8-1.87-1.21-2.8h0l0-.12h0l-.14-.31,0,0,0-.07,0-.07,0-.06,0-.07,0-.06,0-.08,0-.05-.05-.13,0,0,0-.09,0-.07,0-.06,0-.07,0-.05,0-.09v0l-.1-.23Zm-6.36-13.58L841,391.57c.72,1.47,1.45,3,2.15,4.43l4.51-2.15q-1.06-2.27-2.18-4.5Zm-7-13.29-4.37,2.42c.79,1.43,1.58,2.89,2.35,4.33l4.41-2.35c-.51-1-1-1.93-1.56-2.89h0l-.07-.13h0l-.15-.27h0l-.06-.11,0,0,0-.09,0-.05,0-.07,0-.06,0-.06-.08-.15,0,0,0-.09v0l-.06-.1h0l-.12-.21Zm-7.54-13-4.26,2.61c.85,1.39,1.71,2.81,2.54,4.22l4.3-2.55-.34-.57h0l-.15-.27-.05-.07,0,0,0-.08,0,0-.06-.1v0c-.08-.13-.16-.26-.23-.39v0l-.08-.12h0c-.11-.17-.21-.35-.32-.53h0c-.4-.67-.81-1.34-1.22-2Zm-8.1-12.62-4.15,2.79c.91,1.36,1.83,2.74,2.72,4.11l4.19-2.73-.17-.26h0l-.08-.11,0,0,0-.07,0-.06,0-.05c-.48-.74-1-1.47-1.46-2.2h0l-.07-.1h0l-.06-.1,0,0-.08-.13,0-.08,0,0-.06-.1v0l-.52-.77Zm-8.66-12.25-4,3c1,1.32,1.95,2.66,2.91,4l4.06-2.91L817,342v0l-.07-.09,0,0,0-.06-1.37-1.89,0,0,0-.06,0-.06,0-.05-.06-.07,0,0c-.33-.46-.67-.92-1-1.37Zm-9.18-11.86-3.88,3.15c1,1.27,2.06,2.56,3.07,3.85l3.93-3.09-.44-.57h0l-.08-.09h0l-.29-.38,0,0-.05-.07,0,0-.05-.07,0,0,0-.06-.08-.11,0,0-.06-.08,0,0-.06-.08,0,0-.07-.08,0,0-.19-.23v0l-.08-.1,0,0-.07-.09,0,0-.09-.1h0l-.18-.24,0,0-.07-.09,0,0-.07-.09,0,0-.08-.1h0l-.09-.11,0-.05-.05-.06,0-.06,0-.05-.05-.06,0,0-.35-.43Zm-9.69-11.45-3.75,3.32c1.09,1.22,2.18,2.47,3.24,3.71l3.79-3.26h0l-.09-.11,0-.06,0,0-.06-.07,0,0-.07-.08v0c-1-1.13-1.95-2.24-2.93-3.36Zm-10.19-11-3.6,3.47c1.14,1.18,2.28,2.38,3.4,3.57l3.65-3.42-.32-.34,0,0-.07-.08-.07-.07,0,0c-.61-.65-1.22-1.29-1.84-1.93h0l-.07-.08,0,0-.06-.06-.06-.06,0,0c-.29-.3-.57-.6-.86-.89Zm-10.66-10.56L771.07,297c1.19,1.13,2.38,2.28,3.55,3.42l3.49-3.58-2.66-2.57h0l-.08-.08,0,0-.06,0-.07-.07,0,0-.67-.65ZM763.4,283.29l-3.28,3.78c1.24,1.07,2.48,2.16,3.7,3.25l3.33-3.73h0c-1.23-1.11-2.48-2.2-3.73-3.29Zm-11.54-9.58-3.11,3.92c1.28,1,2.57,2.05,3.83,3.09l3.17-3.87-.11-.09,0,0-.05-.05-.07-.05,0,0-2.06-1.66,0,0-.07-.05-.06-.06,0,0-1.33-1.06Zm-12-9.06L737,268.7c1.33.95,2.66,1.94,4,2.92l3-4c-1.14-.85-2.29-1.7-3.45-2.54h0l-.09-.07h0l-.27-.19-.05,0-.06-.05,0,0,0,0Zm-12.33-8.53-2.75,4.17c1.36.9,2.74,1.82,4.09,2.74l2.81-4.13c-1.07-.73-2.15-1.46-3.24-2.18h0l-.11-.08,0,0-.08-.05,0,0-.06,0-.57-.37Zm-12.7-8-2.57,4.29c1.4.84,2.82,1.7,4.21,2.56l2.63-4.26-.46-.28h0c-1.27-.78-2.53-1.54-3.8-2.3Zm-13-7.42-2.38,4.4c1.44.78,2.89,1.58,4.32,2.38l2.44-4.37q-2.18-1.22-4.38-2.41Zm-13.35-6.83-2.18,4.5,4.42,2.18L693,236.1l-.91-.45h0l-.09,0-.06,0,0,0-3.35-1.65Zm-13.65-6.23-2,4.59c1.5.65,3,1.31,4.51,2l2-4.56q-2.13-1-4.29-1.89h0l-.13-.06h0l-.14-.06ZM660.93,222l-1.77,4.68c1.52.58,3.07,1.18,4.59,1.78l1.84-4.65L660.93,222Zm-14.14-5-1.57,4.75c1.56.51,3.13,1,4.67,1.58l1.64-4.73-2.3-.78h0l-.1,0h0l-.09,0h0l-.09,0,0,0-.18-.06h0l-.08,0-.06,0-.07,0-.07,0-.07,0-.06,0-.08,0-.06,0-.13,0-.07,0-.07,0-.06,0-.08,0-.06,0-.07,0-.07,0-.07,0-.06,0-.29-.1h0l-.09,0h0l-.05,0Zm-14.35-4.37-1.35,4.82c1.57.44,3.17.9,4.73,1.36l1.42-4.79-.14,0-.06,0-.06,0-.1,0h0l-2.23-.65h0l-.09,0-.06,0-.07,0-.09,0h0l-1.8-.51Zm-14.53-3.73-1.13,4.87c1.59.37,3.2.76,4.78,1.15l1.21-4.85-3.63-.88h0l-.14,0h0l-.13,0h0l-.14,0h-.06l-.08,0-.08,0h-.05l-.1,0h0l-.11,0h0l-.26-.06Zm-14.67-3.08-.92,4.91c1.6.3,3.23.62,4.83.94l1-4.9-2.53-.5h0l-.13,0h0l-.12,0h0l-.33-.07h-.13l-.08,0h-.06l-.1,0h0l-.14,0h0l-1.22-.23Zm-14.81-2.44-.7,5c1.62.23,3.26.48,4.88.73l.77-4.94h-.54l-.31,0h-.32l-.11,0h0c-1.21-.19-2.42-.36-3.64-.54Zm-14.89-1.78-.48,5c1.62.16,3.27.33,4.9.51l.56-5-2.25-.24h-.42l-.24,0h-.71l-.52-.05h0l-.84-.09Zm-15-1.12-.26,5c1.63.09,3.29.19,4.92.3l.34-5-2.33-.15h-.51l-1.62-.09h-.54Zm-15-.48-.05,5c1.63,0,3.29.05,4.92.09l.12-5-1.08,0h-.41l-3.5-.05Z"/></g><g id="Capa_2" data-name="Capa 2"><g id="Capa_3-2" data-name="Capa 3"><path class="cls-3" d="M551.41,318.84l-10.39,18a2.93,2.93,0,0,1-1,1.05,2.8,2.8,0,0,1-.77.33,2.91,2.91,0,0,1-2.25-.31l-18-10.39A11.87,11.87,0,0,1,521.16,306q.35-.12.69-.21a11.9,11.9,0,0,1,9,1.18,11.88,11.88,0,1,1,21,11.19c-.07.12-.15.28-.23.41s-.12.2-.18.3Z"/><path class="cls-3" d="M589.09,303.84a22,22,0,0,1-10.31,13.44l-29.39,17,7.19-12.44A17.82,17.82,0,0,0,529,299.9a17.75,17.75,0,0,0-8.66.16,14.75,14.75,0,0,0-2.15.74A22.13,22.13,0,0,1,556.66,279a22.11,22.11,0,0,1,32.43,24.85Z"/><path class="cls-3" d="M641,350v41.57a17.83,17.83,0,0,1-35.66,0,23.75,23.75,0,1,0-47.5,0,17.83,17.83,0,0,1-35.66,0,23.75,23.75,0,0,0-47.5,0,17.83,17.83,0,0,1-35.66,0V350a5.94,5.94,0,0,1,5.94-5.93H635A5.94,5.94,0,0,1,641,350Z"/><path class="cls-3" d="M682.52,450.87v41.67a17.82,17.82,0,0,1-35.63,0,23.76,23.76,0,0,0-47.51-.51h0v.48a17.83,17.83,0,1,1-35.65,0v0a23.76,23.76,0,0,0-47.51,0,17.83,17.83,0,0,1-35.66,0A23.75,23.75,0,0,0,436,481h0a23.83,23.83,0,0,0-3,11.51,17.83,17.83,0,0,1-35.66,0V450.84a5.92,5.92,0,0,1,5.94-5.83H676.53A6,6,0,0,1,682.52,450.87Z"/><path class="cls-3" d="M641,407.28v25.85a5.94,5.94,0,0,1-5.94,5.94H445a5.94,5.94,0,0,1-5.94-5.94V407.28c.33.38.67.74,1,1.07a23.76,23.76,0,0,0,40.55-16.81,17.83,17.83,0,0,1,35.65,0,23.77,23.77,0,0,0,47.54,0h0v0a17.83,17.83,0,0,1,35.65,0A23.75,23.75,0,0,0,640,408.33C640.28,408,640.62,407.66,641,407.28Z"/><path class="cls-3" d="M682.52,508.26v26a5.93,5.93,0,0,1-5.94,5.84H403.39a5.93,5.93,0,0,1-5.94-5.84v-26c.34.38.67.74,1,1.07a23.79,23.79,0,0,0,37.6-5.3h0a24,24,0,0,0,3-11.52,17.83,17.83,0,0,1,35.65,0,23.76,23.76,0,1,0,47.51,0h0a17.83,17.83,0,0,1,35.65,0,23.76,23.76,0,1,0,47.51,0h0a17.83,17.83,0,0,1,35.66,0,23.74,23.74,0,0,0,40.54,16.79C681.85,509,682.18,508.61,682.52,508.26Z"/></g></g><g id="Capa_4" data-name="Capa 4"><path class="cls-4" d="M297.61,811A2055.85,2055.85,0,0,0,58.87,853.58c-.06,0,1.2-38.84-7.29-75.36S23.9,707.7,23.85,707.72A2205.77,2205.77,0,0,1,280,662Q288.8,736.49,297.61,811Z"/><path class="cls-5" d="M297.61,811Q235.3,799.45,171.18,791.8L144.84,644.13Q213.29,651,280,662,288.8,736.49,297.61,811Z"/><path class="cls-4" d="M780.13,811a2055.85,2055.85,0,0,1,238.74,42.61s-1.21-38.84,7.28-75.36,27.68-70.52,27.73-70.5A2206,2206,0,0,0,797.73,662Q788.93,736.49,780.13,811Z"/><path class="cls-5" d="M780.13,811q62.29-11.52,126.43-19.17L932.9,644.13Q864.46,651,797.73,662,788.93,736.49,780.13,811Z"/><path class="cls-6" d="M906.56,791.8a2094,2094,0,0,0-735.38,0L144.84,644.13a2243.86,2243.86,0,0,1,788.06,0Z"/><path class="cls-3" d="M241.16,727a44.4,44.4,0,0,1-12.28-.09,41.46,41.46,0,0,1-8.88,2.58,48.89,48.89,0,0,1-5.29.61c-.1-3.81.47-13.59,1.8-29.36s1.92-24.67,1.61-26.73a10.08,10.08,0,0,0-2.18-5.16,12.37,12.37,0,0,0-3.22-2.92l-1.6-.83c0-.49.06-1,.1-1.47A91.85,91.85,0,0,1,222,660.53a144.24,144.24,0,0,1,14.41-2.86c9.59-1.32,17.12-.31,22.54,3s8.66,9.31,9.74,18.07a57.27,57.27,0,0,1-1.24,21.1A41.77,41.77,0,0,1,258,717.87,26.88,26.88,0,0,1,241.16,727Zm-1.45-63.67a37.06,37.06,0,0,0-6,1.42c.25,6.81-.33,16.89-1.65,30.23s-1.95,21.83-2,25.45a16,16,0,0,0,6.8.19,12.43,12.43,0,0,0,7.55-4.3,24.45,24.45,0,0,0,5-8.77,69.28,69.28,0,0,0,2.63-11.2,73.53,73.53,0,0,0,.41-19.62c-.76-5.77-2.09-9.59-4-11.43S243.63,662.79,239.71,663.32Z"/><path class="cls-3" d="M275.1,704.62c-1-7.94.8-14.53,5.39-19.75a25.49,25.49,0,0,1,16.75-8.94,16.76,16.76,0,0,1,10.24,1.69,8.66,8.66,0,0,1,4.67,7,12.23,12.23,0,0,1-1.68,8,17.32,17.32,0,0,1-5.52,5.52,49.39,49.39,0,0,1-12.7,5.67l-2.4.57c1.17,5.92,4.1,8.6,8.8,8.08a13.66,13.66,0,0,0,5-1.72,20.12,20.12,0,0,0,4-2.75l1.4-1.31c.91.93,1.83,1.86,2.74,2.8a16.38,16.38,0,0,1-2.93,3.11,43.58,43.58,0,0,1-4.22,3.35,27.47,27.47,0,0,1-12.42,4.49q-6.93.81-11.51-3.37T275.1,704.62ZM297,694.71a11.88,11.88,0,0,0,2.12-8.74q-.57-5.15-3.84-4.79c-2.59.29-4.36,2.57-5.28,6.83a35.78,35.78,0,0,0-.75,11.73A14.19,14.19,0,0,0,297,694.71Z"/><path class="cls-3" d="M325.53,716.87a8,8,0,0,1-6-1.61,8.31,8.31,0,0,1-2.9-5.93c-.27-2.64.51-11.25,2.43-25.82s2.64-25,2-31.32c-.35-1.38-.69-2.76-1-4.14A49.3,49.3,0,0,1,335,644q1.17,1.25,1.47,4.59c.47,5.1-.38,15.12-2.45,30.07s-2.93,23.61-2.7,26,.65,3.56,1.25,3.5l6.85-3.06,2.12,3.18a44.87,44.87,0,0,1-7.86,5.56A21.36,21.36,0,0,1,325.53,716.87Z"/><path class="cls-3" d="M362.27,675.67c.22,2.68-.33,7.36-1.62,14.05s-1.85,11-1.68,13,.56,3,1.16,2.94a24.88,24.88,0,0,0,4.5-2.2l1.17-.68,2,3.21c-.57.57-1.32,1.27-2.27,2.11a37.15,37.15,0,0,1-5.39,3.58,18.26,18.26,0,0,1-7.49,2.61,7.43,7.43,0,0,1-5.72-1.57,7.61,7.61,0,0,1-2.52-5.36c-.21-2.33.26-6.54,1.42-12.66s1.67-10.06,1.51-11.84a12.3,12.3,0,0,0-3.33-7.32c-.34-.35-.68-.71-1-1.06v-1.26c3.53-1.28,9.38-2.28,17.53-2.95C361.46,671.21,362.06,673,362.27,675.67Zm-13-14.95a6.41,6.41,0,0,1-2.5-4.84,7.08,7.08,0,0,1,2.36-5.79,9.91,9.91,0,0,1,6.39-3,8.19,8.19,0,0,1,6,1.44,6.52,6.52,0,0,1,2.48,4.85,7,7,0,0,1-2.51,5.74,10.22,10.22,0,0,1-6.35,2.94A8.17,8.17,0,0,1,349.22,660.72Z"/><path class="cls-3" d="M392.43,672.28q-4.11.27-6.12,6.82a37.48,37.48,0,0,0-1.48,13.82q.82,11.49,8.3,11a13.77,13.77,0,0,0,5.08-1.45,26.12,26.12,0,0,0,4.22-2.43l1.45-1.25,2.51,2.83a17,17,0,0,1-3.06,3,47.22,47.22,0,0,1-4.36,3.16,28.37,28.37,0,0,1-5.31,2.47,23.71,23.71,0,0,1-6.48,1.41q-7.86.57-12.16-4t-5-12.81q-.9-11.38,5.26-19c4.12-5.06,9.73-7.85,16.79-8.32q6.88-.47,11.13,2.21c2.83,1.79,4.32,4.1,4.49,6.94a10.42,10.42,0,0,1-2.42,7.51,20.47,20.47,0,0,1-6-.68,14,14,0,0,1-5.27-2.26q.48-4.26,1-8.53A4.9,4.9,0,0,0,392.43,672.28Z"/><path class="cls-3" d="M430.87,671.19c.13,2.69-.57,7.35-2.07,14s-2.19,11-2.08,13,.46,3,1.06,3a23.73,23.73,0,0,0,4.57-2l1.19-.64,1.88,3.28c-.58.54-1.36,1.21-2.33,2a36.79,36.79,0,0,1-5.5,3.4,18.09,18.09,0,0,1-7.56,2.38,7.44,7.44,0,0,1-5.67-1.75,7.62,7.62,0,0,1-2.34-5.44q-.21-3.5,1.81-12.6T415.71,678a12.31,12.31,0,0,0-3.1-7.42l-1-1.1,0-1.25c3.58-1.17,9.45-2,17.61-2.4C430.2,666.71,430.73,668.51,430.87,671.19Zm-12.58-15.35a6.46,6.46,0,0,1-2.34-4.92,7.11,7.11,0,0,1,2.54-5.71,10,10,0,0,1,6.47-2.75,8.25,8.25,0,0,1,5.92,1.63A6.51,6.51,0,0,1,433.2,649a7,7,0,0,1-2.68,5.66,10.28,10.28,0,0,1-6.44,2.73A8.26,8.26,0,0,1,418.29,655.84Z"/><path class="cls-3" d="M468,666.5a15.19,15.19,0,0,0,1.05-2.53c3.22-.1,7.58.66,13,2.31A122.18,122.18,0,0,0,478.46,683a81.82,81.82,0,0,0-1.18,12.42c.07,2.47.38,3.69.92,3.67a22,22,0,0,0,4.41-1.94l1.2-.61,1.91,3.32c-.6.52-1.38,1.18-2.33,2a35,35,0,0,1-5.42,3.26,17.06,17.06,0,0,1-7.21,2.19c-4.17.13-6.66-1.57-7.46-5.13-4.19,3.73-8,5.67-11.46,5.81a11.61,11.61,0,0,1-8.94-3.46q-3.76-3.67-4.15-11.92c-.4-8.57,1.15-15.42,4.7-20.54s8-7.78,13.36-8A23.6,23.6,0,0,1,468,666.5Zm-10.48,33.12a10.89,10.89,0,0,0,5.4-2,108.08,108.08,0,0,1,3.88-26.93,14.46,14.46,0,0,0-5.28-1.07c-2.46.09-4.49,2.42-6.05,7a40.8,40.8,0,0,0-2,15Q453.79,699.77,457.54,699.62Z"/><path class="cls-3" d="M517.54,692.62q.06,6.06-5.51,10a22.22,22.22,0,0,1-12.72,4c-4.78.09-8.58-.78-11.42-2.64s-4.28-3.51-4.32-5c0-.9,1.12-2.38,3.44-4.46a17.26,17.26,0,0,1,5.91-3.83q5.16,3.45,8.53,11.07,3.74-.35,3.69-3.42c-.05-2.94-2.84-7.08-8.45-12.38s-8.48-9.53-8.55-12.73,1.4-5.72,4.45-7.54a22,22,0,0,1,11.12-2.85q6.54-.11,9.86,2a6.69,6.69,0,0,1,3.35,5.82c0,2.47-2,5.89-6.13,10.3.48.44,1.1,1,1.86,1.75a22.47,22.47,0,0,1,3,4.14A11.21,11.21,0,0,1,517.54,692.62Zm-5.75-21.82q0-3.36-5-3.29a7.49,7.49,0,0,0-3.89,1c-1,.63-1.51,1.32-1.5,2.09,0,1.41,1.56,3.36,4.6,5.88l1.56,1.22C510.41,675.33,511.82,673,511.79,670.8Z"/><path class="cls-3" d="M590.51,699.86c-5.85,4.53-10.91,6.77-15.25,6.7s-6.82-2.16-7.44-6.26a23.51,23.51,0,0,1-6.83,4.43,16.8,16.8,0,0,1-6.57,1.57,10.6,10.6,0,0,1-8.27-4.07q-3.42-4.05-3.41-12.49,0-12.68,5.78-19.9c3.85-4.82,8.22-7.2,13.06-7.15a22.33,22.33,0,0,1,12.15,3.23c2.29-10.34,3.52-18.47,3.62-24.42l-.45-4a49.2,49.2,0,0,1,15.37-2.18A8.08,8.08,0,0,1,593,639c-.11,4.67-1.88,14.11-5.22,28.35s-5,23.91-5.11,29c0,1.54.32,2.31,1.07,2.33a15.56,15.56,0,0,0,3.89-1.74l1-.56Zm-24-31.45c-2.39,0-4.49,2.15-6.27,6.55A35.37,35.37,0,0,0,557.5,688q-.06,6.48.89,8.31a3.09,3.09,0,0,0,2.87,1.85,10.49,10.49,0,0,0,6.62-2.51c.24-2.56,1.87-11.05,5-25.47A14.44,14.44,0,0,0,566.5,668.41Z"/><path class="cls-3" d="M593.21,689.17q.3-12,8.23-18.75A25.44,25.44,0,0,1,619.29,664a16.65,16.65,0,0,1,9.87,3.18,8.66,8.66,0,0,1,3.58,7.59,12.24,12.24,0,0,1-2.83,7.71,17.43,17.43,0,0,1-6.27,4.65,49.09,49.09,0,0,1-13.38,3.74l-2.45.21q.42,9,7.51,9.29a13.51,13.51,0,0,0,5.2-1,20.23,20.23,0,0,0,4.35-2.13l1.57-1.09c.77,1,1.53,2.11,2.3,3.17a16.57,16.57,0,0,1-3.35,2.65,46.88,46.88,0,0,1-4.66,2.69,27.66,27.66,0,0,1-12.93,2.63q-7-.23-10.87-5C594.32,699.12,593.07,694.74,593.21,689.17Zm23-6.6a11.87,11.87,0,0,0,3.37-8.33q.2-5.18-3.09-5.3c-2.6-.09-4.68,1.9-6.21,6a35.82,35.82,0,0,0-2.47,11.5A14.25,14.25,0,0,0,616.26,682.57Z"/><path class="cls-3" d="M656.74,707.08a3,3,0,0,1-3.29,1.94c-1.65-.09-3.46-1-5.46-2.88,2.3-5.52,7-14.36,14.36-26.48S674.6,658.47,677,652.4a9.47,9.47,0,0,0,.54-2.08c.06-1-.6-2.47-2-4.55l-.77-1.11c.1-.41.19-.82.29-1.23a75.22,75.22,0,0,1,19.69-1l6.32.84a10.76,10.76,0,0,1,1.44,4.54q1.13,7.4-1.15,37.55-.87,11.68.89,16.63c.45,1.25.94,1.9,1.48,1.94s2.24-.47,5.11-1.53l1.36-.47c.58,1.2,1.16,2.41,1.75,3.61a31.14,31.14,0,0,1-9,4.93,21.75,21.75,0,0,1-8.77,1.41c-6.78-.49-9.83-5.72-9.16-15.75.17-2.52.35-5,.52-7.56a39.88,39.88,0,0,0-8-1.11,77.7,77.7,0,0,0-11.88.24A168.35,168.35,0,0,0,656.74,707.08Zm29.46-25c.29-3.7.57-7.4.86-11.11q1-14.55,0-19.82a3,3,0,0,0-1.25.11c-2.27,4.79-4.34,8.84-6.25,12.15s-3.94,6.83-6.13,10.58-3.54,6.08-4.07,7Q677.78,681.49,686.2,682.06Z"/><path class="cls-3" d="M719.42,713.85a8,8,0,0,1-5.56-2.67,8.27,8.27,0,0,1-1.77-6.36c.22-2.65,2.56-11,7.11-24.94s7.16-24.11,7.69-30.43c-.08-1.42-.17-2.84-.26-4.26A49.4,49.4,0,0,1,742,644c.61,1,.81,2.56.61,4.78-.47,5.1-3.14,14.8-7.91,29.12s-7.19,22.68-7.4,25.07,0,3.62.59,3.67l7.29-1.76,1.51,3.52a44.63,44.63,0,0,1-8.75,4A21.42,21.42,0,0,1,719.42,713.85Z"/><path class="cls-3" d="M741.19,714.93l-1.92-.18c.29-3,1.78-8.64,4.51-16.93s4.17-13,4.28-14.15q.3-3.15-2.22-7c-.27-.41-.54-.83-.82-1.24.08-.41.15-.82.22-1.23,3.79-.6,9.75-.52,17.89.32q1.25,2,.82,6.07,9.87-5.45,15.33-4.83c4.57.51,7,3,7.34,7.49a46,46,0,0,1,7.71-3.5,18.15,18.15,0,0,1,8.26-1.29,8.44,8.44,0,0,1,5.62,2.87,7.71,7.71,0,0,1,1.61,6.24c-.32,2.54-1.6,6.64-3.81,12.3s-3.43,9.49-3.68,11.49-.06,3,.54,3.11a18.42,18.42,0,0,0,4.36-1.29l1.18-.43c.46,1.18.93,2.37,1.39,3.56a30.48,30.48,0,0,1-7.68,3.83,18.46,18.46,0,0,1-8.16,1.28q-7.51-.9-6.59-9,.35-3,3.56-11.62t3.56-11.38c.21-1.81-.26-2.79-1.42-2.92a14.23,14.23,0,0,0-7,1.32q-.42,1.89-4.27,12.65t-4.5,16.89c-2,.61-6.64.51-13.81-.24a37.41,37.41,0,0,1,.33-5.09c.28-2.67,1.54-7.14,3.82-13.4s3.51-10.24,3.69-12-.37-2.65-1.66-2.78a13,13,0,0,0-7,1.58c-.19.56-1.17,3.29-2.9,8.19-3.47,9.82-5.39,16.86-5.82,21.13C751.56,715.49,747.29,715.51,741.19,714.93Z"/><path class="cls-3" d="M847.77,687.27a14.25,14.25,0,0,0,1.48-2.31q4.8.69,12.47,4.54a123.69,123.69,0,0,0-6.51,15.87,83.14,83.14,0,0,0-3.31,12q-.54,3.66.27,3.78a22.18,22.18,0,0,0,4.69-1.15l1.29-.39c.44,1.2.87,2.4,1.31,3.59-.68.42-1.56.94-2.64,1.55a36.11,36.11,0,0,1-5.92,2.28,17.3,17.3,0,0,1-7.5.9q-6.21-.88-6.47-6.35-7.17,4.42-12.32,3.74a11.65,11.65,0,0,1-8.23-5q-3.07-4.27-2-12.46,1.64-12.75,8.19-19.41c4.38-4.43,9.26-6.28,14.57-5.55A23.62,23.62,0,0,1,847.77,687.27Zm-16.09,30.81a11.07,11.07,0,0,0,5.69-1.06,108.76,108.76,0,0,1,8.49-25.85,14.46,14.46,0,0,0-5-2q-3.68-.51-7.19,5.84a41,41,0,0,0-4.59,14.44Q828,717.57,831.68,718.08Z"/></g></svg>