<svg xmlns="http://www.w3.org/2000/svg" viewBox="0 0 1080 1080"><defs><style>.cls-1{fill:#1d1d1b;}.cls-2{fill:#fff;}.cls-3{fill:#a6585c;}.cls-4{fill:#975054;}.cls-5{fill:#bf646a;}</style></defs><g id="Capa_3" data-name="Capa 3"><path class="cls-1" d="M945.11,563.59a27,27,0,0,1-14,22.09,27,27,0,0,1-7.94,45,27,27,0,0,1-13.14,43.78,27,27,0,0,1-18.13,42A27,27,0,0,1,869.05,756a27,27,0,0,1-27.35,36.67A27,27,0,0,1,810.29,826a27,27,0,0,1-35.08,29.39A27,27,0,0,1,737,880.47,27.07,27.07,0,0,1,696,901a27.05,27.05,0,0,1-43,15.63,27.08,27.08,0,0,1-44.56,10.54,27.07,27.07,0,0,1-45.48,5.3,27.06,27.06,0,0,1-45.78,0,27.06,27.06,0,0,1-45.47-5.3,27.07,27.07,0,0,1-44.56-10.54,27.06,27.06,0,0,1-43-15.63,27.07,27.07,0,0,1-40.93-20.51A27,27,0,0,1,305,855.35,27.05,27.05,0,0,1,269.89,826a27,27,0,0,1-31.4-33.25A27,27,0,0,1,211.14,756a27,27,0,0,1-22.9-39.58,27,27,0,0,1-18.13-42A27,27,0,0,1,157,630.7a27,27,0,0,1-7.94-45,27,27,0,0,1-2.68-45.63A27,27,0,0,1,149,494.41a27,27,0,0,1,7.94-45,27,27,0,0,1,13.13-43.78,27,27,0,0,1,18.13-42,27,27,0,0,1,22.9-39.58,27,27,0,0,1,27.35-36.67,27,27,0,0,1,31.4-33.25A27,27,0,0,1,305,224.75a27,27,0,0,1,38.24-25.13,27.08,27.08,0,0,1,40.93-20.51,27.06,27.06,0,0,1,43-15.63,27.07,27.07,0,0,1,44.56-10.54,27.06,27.06,0,0,1,45.47-5.3,27.06,27.06,0,0,1,45.78,0,27.07,27.07,0,0,1,45.48,5.3A27.08,27.08,0,0,1,653,163.48a27.05,27.05,0,0,1,43,15.63A27.08,27.08,0,0,1,737,199.62a27,27,0,0,1,38.25,25.13,27,27,0,0,1,35.08,29.38,27,27,0,0,1,31.41,33.25,27,27,0,0,1,27.35,36.67,27,27,0,0,1,22.89,39.58,27,27,0,0,1,18.13,42,27,27,0,0,1,13.14,43.78,27,27,0,0,1,7.94,45,27,27,0,0,1,2.67,45.64A26.92,26.92,0,0,1,945.11,563.59Z"/><ellipse class="cls-2" cx="540.09" cy="540.05" rx="351.61" ry="351.03"/><path class="cls-1" d="M540.09,200h-5l.07,5c1.63,0,3.29,0,4.93,0v-5Zm-15,.33-4,.19h-.37l-.61,0,.29,5c1.63-.09,3.28-.18,4.92-.25l-.22-5Zm-15,1c-1.66.15-3.32.3-5,.47l.5,5c1.63-.17,3.28-.33,4.91-.47l-.44-5Zm-14.91,1.63-1.85.25h0l-.11,0h-.05l-.08,0H493l-.1,0h0l-2.59.37.73,4.94c1.61-.23,3.26-.46,4.88-.67l-.66-5Zm-14.82,2.28c-1.64.29-3.29.59-4.92.91l.94,4.91c1.61-.31,3.24-.61,4.85-.9l-.87-4.92Zm-14.71,2.93c-1.63.37-3.25.74-4.87,1.13l1.16,4.86c1.59-.38,3.2-.75,4.8-1.11l-1.09-4.88Zm-14.56,3.58-1,.27h0l-.11,0h0l-.07,0-.29.07h0l-.14,0h0l-2.26.62h0l-.13,0h0l-.1,0-.05,0-.09,0-.06,0h-.05l-.38.11,1.37,4.81c1.57-.45,3.17-.89,4.75-1.32l-1.3-4.83ZM436.72,216h0l-.13,0h0l-.14.05h0l-.14,0h0l-.11,0h0l-.11,0h0l-.12,0h0l-.14,0h0l-.1,0-.06,0-.08,0-.06,0-.07,0-.07,0,0,0-.33.1h0l-.11,0h0l-.11,0h0l-2.6.86,1.58,4.74c1.55-.52,3.13-1,4.69-1.53L436.72,216Zm-14.19,4.85-1.86.69h0l-.09,0-.05,0-.07,0-.08,0-.05,0-2.47.94,1.8,4.67c1.52-.59,3.07-1.17,4.61-1.73l-1.73-4.7Zm-14,5.48c-1.53.64-3.07,1.3-4.6,2l2,4.58c1.5-.65,3-1.3,4.53-1.93l-1.93-4.62Zm-13.7,6.1c-.95.44-1.88.89-2.82,1.34h0l-.1,0-.05,0-.07,0-.07,0h0l-1.35.66,2.2,4.49c1.46-.72,3-1.44,4.44-2.13l-2.13-4.52Zm-13.43,6.69-3.86,2.06h0l-.13.07h0l-.12.07h0l-.13.07-.05,0-.07,0h0l2.39,4.39c1.43-.78,2.9-1.57,4.34-2.33l-2.33-4.42Zm-13.11,7.28c-.77.44-1.53.89-2.29,1.34h0l-.26.15,0,0-.08,0-.06,0-.05,0-.08,0,0,0-1.4.84,2.58,4.28c1.4-.85,2.83-1.69,4.24-2.52l-2.52-4.31Zm-12.78,7.85-2.61,1.69,0,0-.07,0-.06,0-.06,0-.06,0,0,0-.3.2h0l-1,.64,2.77,4.16c1.37-.91,2.75-1.82,4.13-2.7l-2.71-4.2Zm-12.43,8.4c-.85.6-1.69,1.21-2.53,1.82h0l-.37.27,0,0-.09.06,0,0-.07.05-.05,0-.06,0-.25.19h0l-.1.07h0l-.44.32,3,4c1.32-1,2.66-1.94,4-2.88l-2.89-4.08Zm-12,8.94,0,0-.09.07h0c-1,.8-2.05,1.6-3.06,2.41h0l-.11.09v0l-.11.08h0l-.36.28v0l-.11.08h0l3.13,3.9c1.28-1,2.58-2.05,3.87-3.05l-3.07-3.95ZM319.44,281c-.48.4-.95.81-1.42,1.22h0l-.35.3h0l-.09.08,0,0-.08.07,0,0-.08.07,0,0-.11.1,0,0-.07.07,0,0-.06.05-.05.05-.06,0-.05.05-.06.05-.09.08-.06.05-.05.05-.06.05-.05,0-.06.05,0,0-.09.08h0l-.11.1h0l-.1.09h0l-.11.1h0l-.24.21L319,288c1.23-1.08,2.48-2.16,3.73-3.22L319.44,281Zm-11.21,10,0,0,0,0-.08.07h0c-1.13,1-2.23,2.08-3.34,3.14h0l-.08.08,0,0,0,0L308,298c1.18-1.13,2.39-2.26,3.59-3.37l-3.4-3.67Zm-10.77,10.44-1.75,1.79h0l-.1.1v0l-.09.09-.06.06-.05,0-.07.07,0,0L294,305l3.61,3.46c1.13-1.18,2.29-2.37,3.44-3.53l-3.56-3.52Zm-10.3,10.91,0,0h0l-.07.08-2.79,3.12v0l-.07.08-.34.38,3.76,3.3c1.08-1.23,2.18-2.47,3.28-3.68l-3.71-3.35Zm-9.81,11.34-1.49,1.81h0l-.09.1v0l-.19.24h0l-.09.11v0l-.08.1,0,0-.09.11h0l-1.08,1.34,3.9,3.13c1-1.28,2.07-2.56,3.11-3.82l-3.85-3.19ZM268,335.43l-.71.94,0,0-.05.07,0,0,0,.05-.05.08,0,0-.09.11h0l-.09.12,0,0-.06.09,0,0-.06.08,0,0-.06.08,0,0-.08.11,0,.05,0,.06-.05.06,0,.05-.05.07,0,0-.05.08h0l-.3.4h0l-.74,1,0,0,0,.06-.05.07,0,0,4,2.95,2.94-3.95-4-3Zm-8.77,12.16c-.65.94-1.3,1.89-1.94,2.84h0l-.17.25,0,0-.05.08,0,.06,0,0L257,351l0,0-.48.72,4.16,2.77c.91-1.36,1.84-2.73,2.76-4.08l-4.11-2.83ZM251,360.12l-1.64,2.65,0,0-.06.1,0,0,0,.09,0,0-.08.12h0l-.07.12,0,0,0,.09,0,0-.05.09,0,0-.48.79,4.28,2.59c.84-1.4,1.71-2.81,2.58-4.19L251,360.12ZM243.36,373c-.76,1.33-1.51,2.68-2.24,4l0,.05,0,.06-.05.08,0,0-.06.12,4.38,2.4q1.19-2.16,2.4-4.31L243.36,373Zm-7.1,13.21-.28.56h0l-.07.13v0l-.05.11,0,0-.05.1-.06.11v0l-.05.1v0l-.06.11h0c-.53,1-1.05,2.1-1.57,3.15l4.49,2.2c.72-1.47,1.46-2.95,2.21-4.41l-4.46-2.27Zm-6.51,13.52c-.47,1-.94,2.08-1.4,3.13h0l-.05.13v0l-.05.11v0l-.06.13,0,0,0,.09,0,.06,0,.07,0,.07,0,.05,0,.08,0,0c0,.11-.09.22-.14.33h0l-.05.11h0l0,.06,4.58,2c.65-1.5,1.33-3,2-4.5l-4.56-2.07Zm-5.9,13.79-.43,1.09v0l0,.09,0,0,0,.09,0,0c0,.11-.08.22-.13.33h0l0,.1v0l0,.09v0l0,.1v0c-.06.14-.12.3-.17.44l0,0,0,.1,0,0,0,.09,0,0-.11.29,0,.05,0,.07,0,.08,0,0,0,.09v0l-.45,1.15,4.67,1.8c.59-1.53,1.19-3.07,1.8-4.59l-4.64-1.86Zm-5.28,14c-.46,1.32-.92,2.64-1.36,4v0l0,.09,0,.07h0c-.06.18-.13.37-.19.56l4.74,1.58c.52-1.55,1.06-3.11,1.6-4.66l-4.72-1.65Zm-4.65,14.26-.33,1.1v0l0,.11v0l0,.12,0,.1,0,.05,0,.1v0l0,.11v0l0,.13h0c-.22.75-.44,1.5-.65,2.25h0l0,.13v0l0,.13v0l0,.13,0,.09v.07l4.81,1.38c.45-1.57.92-3.16,1.39-4.73l-4.79-1.44Zm-4,14.45c-.13.53-.26,1.05-.4,1.58v0l0,.11v0l0,.1v.05l0,.14,0,.08v.05l0,.09v.05l0,.11v0l0,.13h0c-.19.76-.37,1.51-.55,2.27l4.86,1.16c.38-1.59.78-3.2,1.18-4.78l-4.85-1.23Zm-3.36,14.62c-.18.86-.36,1.73-.53,2.59v0l0,.12v.05l0,.09v.13l0,.08v0c-.12.59-.24,1.19-.35,1.79l4.91.94c.31-1.61.63-3.23,1-4.83l-4.89-1Zm-2.72,14.75-.3,1.91v.27l0,.12v0c-.14.87-.27,1.74-.4,2.62l5,.72c.24-1.62.49-3.25.75-4.87l-4.94-.79Zm-2.05,14.85c0,.31-.07.62-.11.93v0l0,.12V502l-.06.49h0v.13h0l-.3,2.8h0v.06l5,.5c.17-1.63.34-3.28.53-4.9l-5-.58Zm-1.4,14.94v.16c-.08,1.19-.16,2.38-.23,3.57v.27c0,.33,0,.66-.05,1l5,.28c.09-1.63.2-3.28.31-4.91l-5-.36Zm-.75,15c0,1.66-.08,3.33-.1,5l5,.06c0-1.63.05-3.29.1-4.92l-5-.14Zm4.91,14.93-5,.08c0,.36,0,.72,0,1.09v3c0,.11,0,.24,0,.35v.3h0v.23l5-.15c-.05-1.63-.09-3.29-.11-4.92Zm.55,14.77-5,.3c.08,1.33.17,2.68.26,4v.19h0l.06.77,5-.37c-.12-1.63-.23-3.28-.33-4.91Zm1.2,14.73-5,.51c.11,1,.22,2,.33,3v0l0,.1v.27c.05.51.11,1,.17,1.53l5-.58c-.19-1.63-.38-3.27-.54-4.9Zm1.84,14.66-4.95.73c.11.7.21,1.41.32,2.1v.45l0,.09,0,.14v.34l0,.1v0l0,.12v0l.24,1.54,4.94-.81c-.27-1.61-.52-3.25-.76-4.87Zm2.49,14.57-4.91.95.12.61h0l0,.14h0l.15.76h0l.15.76h0l0,.13v0l0,.14h0l.06.3v0l0,.12v0l0,.09v.13l0,.08v.05l.3,1.45,4.89-1c-.33-1.6-.66-3.23-1-4.83Zm3.13,14.44-4.86,1.17c.07.3.15.59.22.89v.06l0,.07,0,.08v.05l0,.1v0l.12.49h0l0,.12h0l0,.12h0c0,.12.05.23.08.35v0l0,.07,0,.07v.06l0,.1v0l.54,2.1,4.84-1.24c-.41-1.58-.8-3.19-1.19-4.78Zm3.78,14.29-4.81,1.38.42,1.45v0l0,.09,0,0,0,.08,0,.06,0,.07,0,.1v0l0,.14h0l0,.13v0l0,.11v0l0,.11v0c0,.14.08.29.13.43v0l0,.12v0l0,.1,0,0,0,.09,0,0,0,.07c.12.41.25.85.38,1.26l4.78-1.45c-.47-1.57-.94-3.15-1.39-4.72Zm4.4,14.1-4.74,1.6c.25.74.5,1.47.76,2.21v0l0,.11,0,.06,0,.08,0,.06,0,.07,0,.07v0c.23.67.47,1.34.7,2l4.72-1.66c-.55-1.55-1.09-3.11-1.61-4.66Zm5,13.89-4.67,1.81,0,0,0,.05,0,.09,0,0c.05.15.11.29.17.44v0l0,.1v0l.19.46v0l0,.09,0,0,0,.09,0,0,0,.07,0,.07,0,.07.05.13v0l.05.11v0l.05.11v0l1,2.46,4.64-1.88c-.61-1.51-1.22-3-1.81-4.58Zm5.64,13.66-4.58,2,.6,1.36,0,0,0,.08,0,0,0,.07,0,.07,0,.07,0,.08,0,.08,0,.09,0,.06,0,.07,0,.06,0,.07,0,.06,0,.08,0,0,.06.13v0l.05.11,0,.05,0,.08,0,.06,0,.08,0,0,0,.11v0l.12.27v0l.06.13h0c.15.33.3.66.46,1l4.54-2.08c-.68-1.49-1.35-3-2-4.5Zm6.24,13.4-4.48,2.21c.63,1.29,1.27,2.57,1.93,3.85h0l.05.1,0,0,0,.09,0,0,.06.11,0,.09,0,.05,0,.08v0l4.45-2.28c-.74-1.46-1.49-2.94-2.21-4.4Zm6.83,13.1-4.38,2.41c.41.75.82,1.5,1.24,2.24h0c.08.15.16.3.25.45h0l.06.1v0l.05.09,0,0,.17.31h0l.05.09,0,0,0,.08,0,0,0,.08,0,0,0,.08h0l.1.18,0,0,0,.07,0,.06,0,.06,0,.07,0,.06,0,.06,0,.05,4.34-2.47c-.81-1.42-1.61-2.87-2.4-4.3Zm7.4,12.79-4.27,2.6.13.22v0l.06.09v0l.06.1h0c.78,1.28,1.55,2.53,2.35,3.79l4.23-2.66c-.87-1.38-1.74-2.79-2.59-4.19Zm8,12.45L256.88,729l.93,1.38h0l.07.11h0l1.81,2.64,4.11-2.84c-.93-1.35-1.86-2.72-2.77-4.08Zm8.5,12.09-4,3,1.28,1.72h0l.06.09,0,0,.06.08,0,0,.06.08,0,0,.07.1.06.07,0,0,.06.07,0,0,.06.07,0,0,.18.24h0l.09.12h0l.08.11h0l.75,1,4-3c-1-1.3-2-2.63-3-4Zm9,11.71-3.89,3.14.83,1h0l.07.09h0l.21.26,0,0,.05.06.05.06,0,0,.06.08,0,0,.18.22,0,0,.08.11h0c.49.61,1,1.21,1.49,1.81l3.84-3.2c-1-1.26-2.09-2.54-3.12-3.81Zm9.53,11.3-3.75,3.3,1.39,1.58,0,0,0,0,.06.07,0,0,.09.1h0c.56.62,1.12,1.23,1.67,1.85l3.71-3.36c-1.1-1.21-2.21-2.45-3.29-3.67Zm10,10.87-3.61,3.47,1.85,1.9h0l.08.08,0,0,.06.06c.49.51,1,1,1.47,1.49l3.55-3.52c-1.15-1.16-2.31-2.34-3.44-3.52Zm10.48,10.42-3.45,3.62,1.54,1.46h0l.09.08h0l.45.42h0l.09.08h0l.35.33,0,0,.07.07,0,0,.06.06.05,0,.05,0,.11.1v0l.1.08v0l.57.52,3.39-3.67c-1.2-1.11-2.41-2.24-3.59-3.37Zm10.92,9.95-3.28,3.77,2.83,2.44,0,0,.08.08,0,0,.07.06,0,0,.08.07,0,0,.11.09,0,0,.07.06.05,0,.06.05.05,0,.07.07,0,0,.11.1,3.23-3.82c-1.25-1.06-2.5-2.14-3.74-3.21ZM330.86,802l-3.12,3.91.06.05,0,0,.07.06.06,0,.05,0c1.05.84,2.11,1.67,3.17,2.49h0l.1.08,0,0,.1.08.1.07,0,0,.1.08h0l0,0,3.06-4c-1.29-1-2.59-2-3.87-3Zm11.75,9-2.94,4,1.64,1.19h0l.08.06,0,0,.05,0c.63.46,1.27.91,1.91,1.36l0,0,.05,0,.08.06h0l.12.09,2.88-4.09c-1.34-.94-2.68-1.91-4-2.87Zm12.14,8.43L352,823.56l.85.57h0l.07.05.06,0,.05,0,.09.06,0,0c1,.66,2,1.31,3,1.95l2.7-4.21c-1.38-.88-2.77-1.78-4.13-2.69Zm12.5,7.89-2.58,4.29c1.43.86,2.86,1.7,4.31,2.54l2.51-4.32c-1.41-.82-2.84-1.66-4.24-2.51Zm12.83,7.34L377.69,839l2.34,1.26h0l.11.06.05,0,.08,0,.06,0,.05,0,.41.21h0l.11.06h0l.43.23h0l.09,0,0,0,.08,0,.05,0,.07,0,.11.06h0l.14.07h0l.14.07,2.32-4.43c-1.45-.75-2.91-1.53-4.35-2.31Zm13.14,6.76L391,845.87l3.1,1.49h0l.42.2h0l.11,0,0,0,.09,0,.05,0,.08,0,.05,0,.1,0,.09.05.06,0,.08,0,0,0,.09,0h0l.07,0,2.12-4.53-4.45-2.12Zm13.43,6.17-2,4.59c1.53.66,3.07,1.31,4.6,2l1.92-4.62c-1.51-.63-3-1.27-4.53-1.92Zm13.69,5.57-1.79,4.67.05,0h0l.29.11.09,0,0,0,.11,0h0l3.5,1.3h0l.11,0,.06,0,.07,0,.08,0h0l.24.09,1.71-4.7c-1.53-.56-3.09-1.14-4.61-1.72Zm13.92,5-1.58,4.74h0l.11,0h0l.14,0h0l.09,0,.05,0,.09,0,.05,0,.1,0h0l.43.14h0l.13,0h0c1.14.38,2.28.74,3.42,1.1l1.5-4.77c-1.56-.49-3.13-1-4.68-1.51Zm14.12,4.34L447,867.23l3.37.93h0l.12,0h0l.17,0,.08,0h0l.12,0h0l.13,0h0l.75.2,1.29-4.83c-1.58-.42-3.18-.86-4.75-1.3Zm14.31,3.7L461.54,871l4.86,1.11h0l1.07-4.88c-1.6-.35-3.21-.72-4.8-1.1Zm14.45,3.07-.93,4.92,1.44.27h.13l.1,0h0l.14,0h0l3.08.55.86-4.92c-1.61-.29-3.24-.58-4.85-.89Zm14.58,2.43-.71,5c1.64.24,3.29.47,4.95.68l.64-5c-1.62-.21-3.26-.43-4.88-.67Zm14.67,1.79-.49,5,2.79.26h.42l1.76.15.42-5c-1.62-.14-3.27-.29-4.9-.45Zm14.74,1.14-.28,5c1.66.1,3.32.18,5,.25l.21-5c-1.64-.07-3.29-.15-4.92-.24Zm14.77.5-.06,5,2.52,0h2.48v-5h-.74c-1.4,0-2.8,0-4.19,0Zm19.71-.32c-1.63.07-3.28.13-4.92.18l.16,5,1.09,0h.31s0,0,0,0l3.59-.14-.23-5Zm14.75-1c-1.63.15-3.28.28-4.91.41l.37,5,3.17-.25h.42l1.4-.13-.45-5Zm14.69-1.63c-1.62.21-3.26.42-4.89.61l.59,5,2.79-.34h0l.14,0h0l.12,0h0l.13,0,.12,0h.3l1.3-.18-.66-4.95Zm14.6-2.28c-1.61.29-3.24.57-4.85.83l.81,4.93.54-.09h0l.08,0h.28c1.33-.22,2.66-.45,4-.69l-.88-4.92Zm14.49-2.92c-1.6.36-3.22.71-4.81,1l1,4.9.92-.2h0l.61-.13h0l.13,0h0l.13,0h0c1-.21,2-.44,3-.66l-1.09-4.88Zm14.34-3.56c-1.58.43-3.18.85-4.76,1.25l1.24,4.85,1.76-.46h0l.08,0h.06l.07,0,.08,0,.06,0,.12,0h0l1.35-.36h0l.12,0h0l.11,0h0l.09,0,.8-.22-1.31-4.82Zm14.17-4.19c-1.56.49-3.14,1-4.7,1.46l1.45,4.79,0,0,.07,0,.1,0h0l4.55-1.42-1.53-4.76Zm14-4.82c-1.53.57-3.09,1.13-4.63,1.67l1.66,4.72c1.58-.56,3.14-1.12,4.71-1.7l-1.74-4.69Zm13.75-5.43c-1.51.63-3,1.27-4.56,1.88l1.87,4.63.06,0h0l.07,0,.11-.05h0l4.33-1.79-1.94-4.61Zm13.49-6c-1.48.7-3,1.4-4.47,2.07l2.07,4.55q2.28-1,4.54-2.1l-2.14-4.52Zm13.21-6.63c-1.45.77-2.92,1.53-4.37,2.28L695,843l.51-.26h0l.07,0,.07,0,0,0,.12-.05h0c1.2-.62,2.4-1.24,3.6-1.88l-2.34-4.42ZM710,829c-1.41.83-2.84,1.66-4.26,2.47l2.46,4.35c1.46-.83,2.89-1.66,4.33-2.5L710,829Zm12.58-7.76c-1.37.89-2.77,1.78-4.15,2.65l2.65,4.24.77-.48h0l.06,0,.07,0,0,0,.07,0,0,0,.09-.06,0,0,.25-.16h0l.11-.07h0l.11-.07h0l.25-.17h0l.11-.07,0,0,.1-.06,0,0,.1-.06,0,0,.24-.16,0,0,.08-.05.05,0,.07,0,.06,0,0,0,.07,0h0l.17-.11,0,0,.08-.05,0,0,.08-.06,0,0,.4-.26h0l.09-.06h0l.09-.06h0l.08,0-2.72-4.2Zm12.22-8.3c-1.33.94-2.69,1.9-4,2.82l2.84,4.12,1-.71h0l.38-.27h0l.11-.07,0,0,.11-.07h0l.25-.18h0l.11-.07,0,0,.11-.07h0l1.91-1.35-2.9-4.07Zm11.85-8.84c-1.29,1-2.6,2-3.91,3l3,4,1.87-1.42h0l.12-.1h0l.24-.19h0l.1-.07,0,0,.08-.06,0,0,.08-.06,0,0,.09-.08.07,0,.06,0,.06-.05,0,0,.07-.06,0,0,.08,0,0,0,.26-.21,0,0,.08-.06,0,0,.08-.06,0,0,.26-.2,0,0,0,0-3.08-3.94Zm11.45-9.35c-1.24,1.06-2.51,2.13-3.77,3.17l3.19,3.85,1.92-1.6h0l.11-.09,0,0,.07-.07,0,0,.07-.06,0,0,.08-.07.08-.07,0,0,.07-.06,0,0,.07-.07,0,0,.46-.39h0l.38-.32h0l.08-.06,0,0,.07-.06,0,0,.05,0-3.25-3.8Zm11-9.84c-1.2,1.12-2.42,2.24-3.63,3.34l3.36,3.7c.41-.37.8-.72,1.2-1.1h0l.08-.08h0l.35-.32,0,0,.08-.07,0,0,1.89-1.74L769.1,785Zm10.58-10.31c-1.14,1.16-2.31,2.34-3.47,3.49l3.51,3.55c1.13-1.11,2.24-2.23,3.36-3.36l0,0,.07-.07,0,0,0-.05-3.57-3.5Zm10.13-10.77c-1.09,1.22-2.21,2.44-3.32,3.64l3.66,3.4c.64-.69,1.27-1.37,1.9-2.07l0,0,.08-.08,0,0,.06-.06,0,0,.05-.05,1.2-1.32-3.72-3.35Zm9.64-11.2c-1,1.26-2.1,2.54-3.16,3.78l3.82,3.24.39-.46,0,0,.06-.07q1.38-1.64,2.73-3.28l-3.86-3.18Zm9.15-11.61c-1,1.31-2,2.62-3,3.91l4,3.07.86-1.11h0l.08-.12,0,0,.07-.09,0,0,.06-.08.06-.07.06-.08.05-.07,0,0,.06-.08,0,0,.06-.09h0l1.57-2.07-4-3Zm8.62-12c-.92,1.34-1.87,2.71-2.82,4l4.09,2.89q1.44-2,2.85-4.11l-4.12-2.82Zm8.09-12.37c-.87,1.38-1.75,2.79-2.64,4.16l4.21,2.71q1.35-2.12,2.67-4.23l-4.24-2.64ZM832.84,704c-.8,1.43-1.63,2.87-2.45,4.28l4.32,2.52.85-1.46h0l0-.07,0-.06,0-.06.05-.08,0,0,1.3-2.28,0,0,0-.08,0-.06,0,0,0-.05L832.84,704Zm7-13c-.73,1.46-1.49,2.93-2.25,4.38l4.42,2.32q1.17-2.21,2.29-4.44l-4.46-2.26Zm6.38-13.33c-.67,1.49-1.36,3-2.06,4.47l4.53,2.13c.47-1,.94-2,1.41-3v0l0-.08,0-.07,0,0c.2-.42.39-.85.58-1.27l-4.56-2.06ZM852,664c-.6,1.52-1.23,3-1.85,4.56l4.61,1.93c.64-1.54,1.27-3.09,1.89-4.63L852,664Zm5.18-13.84c-.54,1.54-1.1,3.1-1.66,4.64l4.7,1.71.68-1.87h0l0-.08,0-.07,0,0,0-.1v0l.88-2.49-4.72-1.65Zm4.55-14.06c-.47,1.57-1,3.15-1.45,4.71l4.77,1.51c.44-1.42.88-2.84,1.31-4.26V638l0-.07,0-.07,0-.06,0-.1,0,0,0-.14-4.79-1.43Zm3.92-14.25c-.4,1.59-.82,3.19-1.24,4.77l4.83,1.29c.09-.34.19-.69.28-1v0l0-.1,0,0,0-.08,0-.07h0c.3-1.15.6-2.3.89-3.46l-4.85-1.22Zm3.28-14.4c-.33,1.6-.67,3.22-1,4.82l4.88,1.07q.39-1.76.75-3.51h0l0-.13v0l0-.12v0l0-.12v0l.06-.29v0l0-.11v-.05l0-.1v0l0-.11v0l0-.14-4.9-1Zm2.64-14.54c-.26,1.61-.53,3.25-.81,4.86l4.93.85c.15-.87.3-1.73.44-2.6v-.14l0-.08v-.16h0c.11-.65.22-1.3.32-1.95l-4.94-.78Zm2-14.64c-.19,1.62-.39,3.27-.6,4.89l5,.63.21-1.63v-.43l.06-.51h0c.1-.78.19-1.59.28-2.38l-5-.56Zm1.34-14.72c-.11,1.63-.24,3.28-.38,4.91l5,.42c.14-1.66.26-3.32.38-5l-5-.34Zm.7-14.77c0,1.64-.09,3.3-.16,4.93l5,.2v-.22c0-.11,0-.22,0-.33v-2.1h0V550.2h0v-.41h0c0-.29,0-.58,0-.86l-5-.13Zm5.06-14.88-5,.09c0,1.64,0,3.3,0,4.93h5v-1.58c0-1.14,0-2.29,0-3.43Zm-.59-15-5,.3c.1,1.64.19,3.29.26,4.93l5-.24c-.08-1.66-.17-3.33-.27-5ZM878.79,504l-5,.53c.17,1.62.33,3.27.48,4.9l5-.45c-.08-.88-.16-1.72-.24-2.59v-.53c-.06-.62-.12-1.24-.19-1.86Zm-1.9-14.87-4.95.74c.25,1.61.48,3.25.7,4.87l5-.67c0-.16-.05-.33-.07-.5h0l0-.17v-.12l0-.12v0l0-.12v0l0-.14h0c-.08-.51-.15-1-.22-1.54v-.5h0l-.24-1.65Zm-2.56-14.78-4.91,1c.32,1.6.62,3.23.91,4.84l4.93-.89c0-.2-.08-.41-.11-.61v0l0-.12v0l0-.11v0l0-.13v0l0-.14v-.14l0-.07v-.15l0-.06v-.13l-.09-.48h0l0-.13h0l0-.13h0c-.15-.81-.3-1.59-.46-2.39Zm-3.21-14.66-4.86,1.18c.38,1.59.76,3.21,1.12,4.8l4.88-1.11c-.22-1-.44-1.92-.67-2.89h0l0-.13v0c0-.15-.07-.29-.1-.44v0l0-.1v-.05l0-.09v0l0-.1v-.05l0-.13h0l0-.14,0,0,0-.1v0l0-.1,0,0,0-.12v0l0-.15Zm-3.87-14.49-4.8,1.4c.46,1.57.91,3.16,1.34,4.74l4.82-1.33-.12-.44h0l0-.13v0l0-.1,0,0v-.06l0-.17v0l0-.11h0c-.34-1.22-.69-2.45-1-3.67Zm-4.5-14.31L858,432.48c.52,1.55,1,3.12,1.55,4.68l4.75-1.54v-.08l0-.09v0c0-.16-.1-.31-.15-.48h0c-.24-.75-.48-1.49-.73-2.23h0l0-.12h0l-.12-.36h0l0-.08,0-.06,0-.06,0-.08,0-.05,0-.1v0l-.3-.88Zm-5.13-14.09L853,418.6c.59,1.52,1.18,3.07,1.75,4.6l4.69-1.75-.09-.22,0-.06,0-.05,0-.09,0,0,0-.11,0,0c-.25-.68-.5-1.36-.76-2v0l0-.12v0l0-.11v0l0-.13,0,0,0-.09,0-.08,0-.05,0-.08,0-.05,0-.09v0c-.15-.37-.29-.74-.43-1.11Zm-5.76-13.85-4.57,2c.66,1.5,1.32,3,2,4.52l4.61-2-.86-2,0,0,0-.08,0-.07,0-.05-1-2.35Zm-6.36-13.58L841,391.57c.72,1.47,1.45,3,2.15,4.43l4.51-2.15-.3-.64h0l0-.11,0,0,0-.08,0-.09,0-.05-.05-.11,0,0,0-.1v0l-.06-.11v0l-.06-.13h0l-.13-.26,0,0,0-.09,0-.06,0-.06,0-.07,0,0c-.37-.77-.75-1.54-1.13-2.31Zm-7-13.29-4.37,2.42c.79,1.43,1.58,2.89,2.35,4.33l4.41-2.35c-.72-1.35-1.46-2.71-2.2-4v0l0-.07,0-.08v0l-.08-.13Zm-7.54-13-4.26,2.61c.85,1.39,1.71,2.81,2.54,4.22l4.3-2.55q-1.27-2.14-2.58-4.28Zm-8.1-12.62-4.15,2.79c.91,1.36,1.83,2.74,2.72,4.11l4.19-2.73c-.61-.94-1.22-1.87-1.84-2.8v0l-.06-.09,0,0-.05-.08-.07-.11,0,0-.07-.1v0l-.08-.11h0l-.52-.77Zm-8.66-12.25-4,3c1,1.32,1.95,2.66,2.91,4l4.06-2.91c-.31-.42-.61-.85-.91-1.27h0l-.08-.12h0l-.08-.11v0l-.08-.11h0l-.09-.12,0,0,0-.07,0-.06,0-.05,0-.07,0,0,0-.08h0c-.45-.62-.91-1.25-1.37-1.86Zm-9.18-11.86-3.88,3.15c1,1.27,2.06,2.56,3.07,3.85l3.93-3.09-.36-.46h0l0-.07,0-.05,0-.05-.07-.08,0,0c-.51-.64-1-1.29-1.54-1.93l0,0,0-.07-.05-.06,0,0-.83-1Zm-9.69-11.45-3.75,3.32c1.09,1.22,2.18,2.47,3.24,3.71l3.79-3.26-.67-.77v0l-.07-.08,0,0-.07-.08v0l-.22-.25,0,0-.06-.08,0,0-.06-.07,0,0-2-2.3Zm-10.19-11-3.6,3.47c1.14,1.18,2.28,2.38,3.4,3.57l3.65-3.42c-1.09-1.16-2.19-2.32-3.29-3.46l0,0,0-.05-.06-.06,0,0Zm-10.66-10.56L771.07,297c1.19,1.13,2.38,2.28,3.55,3.42l3.49-3.58-.1-.1,0,0-.05-.05-.07-.07,0,0-.89-.87h0l-.08-.08,0,0-.08-.07,0,0-.08-.08-.08-.08,0,0-.08-.07,0,0-.08-.08,0,0-1.79-1.71ZM763.4,283.29l-3.28,3.78c1.24,1.07,2.48,2.16,3.7,3.25l3.33-3.73-1.4-1.24h0l-.09-.08,0,0-.07-.06,0,0-.06-.06-.23-.2h0l-.08-.08h0l-1.7-1.48Zm-11.54-9.58-3.11,3.92c1.28,1,2.57,2.05,3.83,3.09l3.17-3.87q-1.75-1.44-3.52-2.84h0l-.11-.09h0l-.24-.18s0,0,0,0Zm-12-9.06L737,268.7c1.33.95,2.66,1.94,4,2.92l3-4-2.2-1.63,0,0-.08,0,0,0-.07,0-.07-.06,0,0-.11-.09h0l-.12-.08h0l-.11-.08h0l-1.14-.82Zm-12.33-8.53-2.76,4.17c1.37.9,2.75,1.82,4.1,2.74l2.81-4.13h0l-1-.7h0l-.12-.09h0l-.26-.17h0l-.12-.07,0,0-.08-.05,0,0-.06,0-.06,0,0,0-.28-.18h0l-.1-.07h0l-1.69-1.12,0,0-.08-.05,0,0,0,0Zm-12.7-8-2.57,4.29c1.4.84,2.82,1.7,4.21,2.56l2.63-4.26-2.13-1.3h0l-.11-.07h0l-.09-.06,0,0-.09-.06,0,0-.08-.05-.12-.07,0,0-.09,0,0,0-.09-.06h0l-.53-.32h0l-.53-.32,0,0-.08-.05-.05,0,0,0Zm-13-7.42-2.38,4.4c1.44.78,2.89,1.58,4.32,2.38l2.44-4.37-4.38-2.41Zm-13.35-6.83-2.18,4.5,4.42,2.18L693,236.1l-.14-.06h0l-.11-.05-.05,0-.06,0-.09,0h0c-1.34-.66-2.68-1.33-4-2Zm-13.65-6.23-2,4.59c1.5.65,3,1.31,4.51,2l2-4.56-2.08-.92,0,0-.06,0-.08,0,0,0-.11-.05h0l-2.15-.93ZM660.93,222l-1.77,4.68c1.52.58,3.07,1.18,4.59,1.78l1.84-4.65-.21-.08,0,0-.07,0-.07,0-.06,0-.08,0,0,0-.12-.05h0l-.13-.05h0l-.1,0-.05,0-.08,0-.05,0-.09,0-.05,0-.12,0h0l-.14-.05,0,0-.09,0-.06,0-.07,0-.07,0-.07,0-.06,0-.07,0-.15-.06h0l-.09,0h0l-.08,0H663l-.09,0h0l-.59-.23h0l-1.38-.53Zm-14.14-5-1.57,4.75c1.56.51,3.13,1,4.67,1.58l1.64-4.73h0l-.13,0h0l-.13-.05h0l-.13-.05h0l-.29-.1h0l-.13,0h0l-.11,0h0l-.12,0h0l-.29-.09h0l-.12,0h0l-.11,0h0l-.12,0h0l-.29-.1h0l-.14,0h0l-.11,0h0l-.12,0h0l-.29-.1h0l-.12,0h0l-.11,0h0l-.1,0h0l-.13,0h0l-.14-.05h0l-.12,0h0l-.1,0h0l-.1,0,0,0-.12,0h0l-.14-.05H647l-.08,0-.06,0-.08,0Zm-14.35-4.37-1.35,4.82c1.57.44,3.17.9,4.73,1.36l1.42-4.79c-1.14-.34-2.29-.68-3.44-1h0l-.11,0,0,0-.09,0-.06,0h-.05l-1-.28Zm-14.53-3.73-1.13,4.87c1.59.37,3.2.76,4.78,1.15l1.21-4.85-1-.25h0l-.1,0,0,0h-.08l-.09,0h0l-2.26-.54h0l-.13,0h0l-.13,0h0l-.14,0h0l-.1,0-.07,0h-.06l-.09,0h0l-.11,0h0l-.24-.06Zm-14.67-3.08-.92,4.91c1.6.3,3.23.62,4.83.94l1-4.9-.55-.11h-.12l-.06,0h-.14l-.07,0h-.08l-.06,0-.1,0h-.05l-.14,0h0l-.11,0h0l-.1,0h0l-.11,0h0l-.13,0h0l-.3-.05h0l-.14,0h0l-.13,0h0l-2.29-.43Zm-14.81-2.44-.7,5c1.62.23,3.26.48,4.88.73l.77-4.94-1.07-.17h0l-.13,0h0l-.12,0h0l-.14,0h0l-.14,0h-.27l-.1,0h0l-.12,0h0l-2.73-.4Zm-14.89-1.78-.48,5c1.62.16,3.27.33,4.9.51l.56-5-2-.21h-.69l-.3,0h-.49l-.12,0h-.18l-.14,0h-.55l-.55-.06Zm-15-1.12-.26,5c1.63.09,3.29.19,4.92.3l.34-5-2.33-.15h-.53l-.65,0h0l-.81-.05h-.68Zm-15-.48-.05,5c1.63,0,3.29.05,4.92.09l.12-5-1.09,0H547L543.6,200Z"/></g><g id="Capa_2" data-name="Capa 2"><g id="Capa_3-2" data-name="Capa 3"><path class="cls-1" d="M551.41,318.84l-10.39,18a2.93,2.93,0,0,1-1,1.05,2.8,2.8,0,0,1-.77.33,2.91,2.91,0,0,1-2.25-.31l-18-10.39A11.87,11.87,0,0,1,521.16,306q.35-.12.69-.21a11.9,11.9,0,0,1,9,1.18,11.88,11.88,0,1,1,21,11.19c-.07.12-.15.28-.23.41s-.12.2-.18.3Z"/><path class="cls-1" d="M589.09,303.84a22,22,0,0,1-10.31,13.44l-29.39,17,7.19-12.44A17.82,17.82,0,0,0,529,299.9a17.75,17.75,0,0,0-8.66.16,14.75,14.75,0,0,0-2.15.74A22.13,22.13,0,0,1,556.66,279a22.11,22.11,0,0,1,32.43,24.85Z"/><path class="cls-1" d="M641,350v41.57a17.83,17.83,0,0,1-35.66,0,23.75,23.75,0,1,0-47.5,0,17.83,17.83,0,0,1-35.66,0,23.75,23.75,0,0,0-47.5,0,17.83,17.83,0,0,1-35.66,0V350a5.94,5.94,0,0,1,5.94-5.93H635A5.94,5.94,0,0,1,641,350Z"/><path class="cls-1" d="M682.52,450.87v41.67a17.82,17.82,0,0,1-35.63,0,23.76,23.76,0,0,0-47.51-.51h0v.48a17.83,17.83,0,1,1-35.65,0v0a23.76,23.76,0,0,0-47.51,0,17.83,17.83,0,0,1-35.66,0A23.75,23.75,0,0,0,436,481h0a23.83,23.83,0,0,0-3,11.51,17.83,17.83,0,0,1-35.66,0V450.84a5.92,5.92,0,0,1,5.94-5.83H676.53A6,6,0,0,1,682.52,450.87Z"/><path class="cls-1" d="M641,407.28v25.85a5.94,5.94,0,0,1-5.94,5.94H445a5.94,5.94,0,0,1-5.94-5.94V407.28c.33.38.67.74,1,1.07a23.76,23.76,0,0,0,40.55-16.81,17.83,17.83,0,0,1,35.65,0,23.77,23.77,0,0,0,47.54,0h0v0a17.83,17.83,0,0,1,35.65,0A23.75,23.75,0,0,0,640,408.33C640.28,408,640.62,407.66,641,407.28Z"/><path class="cls-1" d="M682.52,508.26v26a5.93,5.93,0,0,1-5.94,5.84H403.39a5.93,5.93,0,0,1-5.94-5.84v-26c.34.38.67.74,1,1.07a23.79,23.79,0,0,0,37.6-5.3h0a24,24,0,0,0,3-11.52,17.83,17.83,0,0,1,35.65,0,23.76,23.76,0,1,0,47.51,0h0a17.83,17.83,0,0,1,35.65,0,23.76,23.76,0,1,0,47.51,0h0a17.83,17.83,0,0,1,35.66,0,23.74,23.74,0,0,0,40.54,16.79C681.85,509,682.18,508.61,682.52,508.26Z"/></g></g><g id="Capa_4" data-name="Capa 4"><path class="cls-3" d="M297.61,811A2055.85,2055.85,0,0,0,58.87,853.58c-.06,0,1.2-38.84-7.29-75.36S23.9,707.7,23.85,707.72A2205.77,2205.77,0,0,1,280,662Q288.8,736.49,297.61,811Z"/><path class="cls-4" d="M297.61,811Q235.3,799.45,171.18,791.8L144.84,644.13Q213.29,651,280,662,288.8,736.49,297.61,811Z"/><path class="cls-3" d="M780.13,811a2055.85,2055.85,0,0,1,238.74,42.61s-1.21-38.84,7.28-75.36,27.68-70.52,27.73-70.5A2205.6,2205.6,0,0,0,797.73,662Q788.93,736.49,780.13,811Z"/><path class="cls-4" d="M780.13,811q62.29-11.52,126.43-19.17L932.9,644.13Q864.46,651,797.73,662,788.93,736.49,780.13,811Z"/><path class="cls-5" d="M906.56,791.8a2094,2094,0,0,0-735.38,0L144.84,644.13a2243.86,2243.86,0,0,1,788.06,0Z"/><path class="cls-2" d="M283.48,729.52a32.79,32.79,0,0,1-3.46.76,19.63,19.63,0,0,1-4.78-.14,5.4,5.4,0,0,1-2.4-.86c-.49-.39-1.31-1.13-2.46-2.21a11.45,11.45,0,0,1-1.91-2.61,2.88,2.88,0,0,1-.4-2c.14-.5.55-.7,1.25-.6a3.89,3.89,0,0,1,1,.5,7.94,7.94,0,0,1,1.41,1.13,7,7,0,0,0,3.65,1.48,16,16,0,0,0,5.33-.56c.91-.3,2-.71,3.31-1.22a33.81,33.81,0,0,0,3.76-1.75,15.69,15.69,0,0,0,2.83-1.88q4.94-4.05,10.94-8.77a1.44,1.44,0,0,1,.68-.71c.35-.2.79-.42,1.31-.67.36-.43.95-1.1,1.77-2s1.6-1.85,2.36-2.77a16.42,16.42,0,0,1,1.41-1.6,11.58,11.58,0,0,1,.26-1.42,3,3,0,0,0,.09-1.12,15.35,15.35,0,0,0,1.84-3.43q1.11-2.58,2.22-5.74a30,30,0,0,0,1.47-5.7,31.74,31.74,0,0,0-.45-11.34,19.39,19.39,0,0,0-3.74-7.58,25.74,25.74,0,0,0-6.13-5.29,20.62,20.62,0,0,0-3.35-1.52,37.53,37.53,0,0,0-4.38-1.31c-1.5-.35-2.81-.62-3.91-.82a5.24,5.24,0,0,0-1.95-.16c-.27.09-.73,1.16-1.37,3.19s-1.37,4.62-2.19,7.74l-2.64,10q-1.41,5.29-2.61,10c-.26,1.25-.56,2.58-.87,4s-.59,2.6-.81,3.62a7.87,7.87,0,0,0-.27,2,13.39,13.39,0,0,0-1.26,4.5q-.33,2.74-.39,9c-.34,2.23-.58,3.92-.71,5.07s-.34,1.7-.61,1.67l-.36.43c.05.38-.2.6-.73.67a5,5,0,0,1-1.91-.2,5.42,5.42,0,0,1-1.79-.79,9.48,9.48,0,0,1-.6-2,14.2,14.2,0,0,1,.29-3.81c.19-1.25.43-2.78.71-4.59s.63-3.68,1-5.63.74-3.75,1.09-5.41.61-2.91.78-3.77a62.39,62.39,0,0,0,1.29-6.34q.53-2.58,1.09-5.16c.38-1.73.77-3.27,1.16-4.64s.67-2.25.83-2.66c.24-.86.59-2.32,1-4.38s1.09-4.34,1.91-6.89c.11-1.08.23-2.15.35-3.23l-1.19-.34a4.14,4.14,0,0,1-1.88.46,4.66,4.66,0,0,1-.91-.14,2.71,2.71,0,0,1-1.79-.07,7.49,7.49,0,0,1-2.16-1,3.69,3.69,0,0,1-1.25-1.21,4.61,4.61,0,0,1-.5-1.58c0-.39.49-.82,1.42-1.28a21.38,21.38,0,0,1,3.67-1.36,48.67,48.67,0,0,1,5-1.12,43.79,43.79,0,0,1,5.35-.56,18.47,18.47,0,0,1,5.19.48q2.49.6,5.38,1.24a25.33,25.33,0,0,1,7.41,3.22,38.29,38.29,0,0,1,7.4,5.94,20.76,20.76,0,0,1,4.88,7.61,29,29,0,0,1,.94,3.18,34.7,34.7,0,0,1,.77,4,4,4,0,0,1-.21,2.57,2.47,2.47,0,0,0-.16.94.64.64,0,0,0,.43.68c-.05.19-.22.93-.5,2.22s-.55,2.39-.8,3.31a19.3,19.3,0,0,1-.7,5.28,48.76,48.76,0,0,1-1.72,5.24c-.66,1.65-1.26,3-1.82,4.2a1.87,1.87,0,0,0-.75.22c-.23.12-.2.2.08.23a4.26,4.26,0,0,1-.93,1.93,8.21,8.21,0,0,0-1.12,1.52,9,9,0,0,1-1.2,1.62,1.85,1.85,0,0,1-.49,1.17,1.52,1.52,0,0,1-.87.52c-.2,0-.29.16-.26.42a18.93,18.93,0,0,1-2.23,3q-1.55,1.75-3.52,3.66c-1.32,1.28-2.68,2.47-4.08,3.6a24.49,24.49,0,0,1-4,2.67,11.3,11.3,0,0,1-2,1.34c-.7.37-1.37.75-2,1.15a12.79,12.79,0,0,1-2.08,1.35c-1.08.61-2.24,1.21-3.49,1.81A26.08,26.08,0,0,1,283.48,729.52Z"/><path class="cls-2" d="M346.35,710.37a9.14,9.14,0,0,1-4.7,2.45,10.94,10.94,0,0,1-5.47-.31,10.37,10.37,0,0,1-4.66-3,10.53,10.53,0,0,1-2.69-4.61,26.86,26.86,0,0,1-.8-7.1,17.48,17.48,0,0,1,1.81-7.75,29.7,29.7,0,0,1,4.82-7.26,19.2,19.2,0,0,1,6-4.7,4.86,4.86,0,0,1,2.52-1.15c.72,0,1.84-.05,3.35-.05a11.43,11.43,0,0,1,3.61.55,5.12,5.12,0,0,1,2,1.36,7.74,7.74,0,0,1,2.28,2.65,8,8,0,0,1,.75,2.68,12.48,12.48,0,0,1-2.57,5.38,19.83,19.83,0,0,1-6.33,5.52,15.3,15.3,0,0,1-4.83,1,8.31,8.31,0,0,1-4.48-.84c-1.33-.39-2.17-.23-2.51.48a15.19,15.19,0,0,0-.66,4.93q-.06,3.68,1.11,5.25a3.87,3.87,0,0,0,2.91,1.7c1.37.13,2.45.21,3.23.23a5,5,0,0,0,2.81-1.08,18.61,18.61,0,0,1,1.92-1.28,1.73,1.73,0,0,0,.62-.44l1.16-1.31c.43-.48.77-.85,1-1.1a1.38,1.38,0,0,1,.88-.42,1.21,1.21,0,0,1,.95.36,3,3,0,0,0,.86.55c.68-.06.86.31.56,1.1a10.76,10.76,0,0,1-1.93,2.92A21.47,21.47,0,0,1,346.35,710.37Zm-1.92-20.26a12.11,12.11,0,0,0,2.22-1.6,11.46,11.46,0,0,0,1.91-2.19,3.28,3.28,0,0,0,.7-1.94,2.68,2.68,0,0,0-1.52-2.13c-.94-.53-2.28-.49-4,.11A7.51,7.51,0,0,0,341.3,684a24.37,24.37,0,0,0-2.48,2.68,26.48,26.48,0,0,0-1.81,2.58c-.45.75-.59,1.18-.45,1.3a2.67,2.67,0,0,0,1.8.55,13.87,13.87,0,0,0,3.22-.15A8.87,8.87,0,0,0,344.43,690.11Z"/><path class="cls-2" d="M365.68,712.09a2.93,2.93,0,0,1-3.13-.52,6.22,6.22,0,0,1-1.68-3.71,20.48,20.48,0,0,1,.1-6.17,18.76,18.76,0,0,0,.63-2.32,6.91,6.91,0,0,0,.15-1.79c.09-.65.28-1.62.58-2.89s.64-2.61,1-4,.73-2.61,1.08-3.69.6-1.77.71-2c.27,0,.5-.26.66-.72a3.15,3.15,0,0,0,.2-1.37,5.2,5.2,0,0,1,.22-1.75,3.72,3.72,0,0,1,.66-1.4,3.25,3.25,0,0,1,.17-1.12,2.81,2.81,0,0,0,.18-1,1.3,1.3,0,0,1,.2-.78,1.46,1.46,0,0,0,.19-.79,44,44,0,0,0,1.59-4.12q1-2.82,2.1-6.27t2.12-6.81c.67-2.23,1.2-4.11,1.61-5.65a14.36,14.36,0,0,0,.57-2.79,1.48,1.48,0,0,1,.33-1.18,1.81,1.81,0,0,1,1.22-.47,1.49,1.49,0,0,1,.75-.44,4,4,0,0,1,.87-.16l1.77,1.41a2.55,2.55,0,0,1,1.09,1.46,10.58,10.58,0,0,1,.3,2,7.15,7.15,0,0,1-.15,2.22,21.06,21.06,0,0,1-1,2.87l-2.48,5.86a40,40,0,0,1-1.48,3.72,6.89,6.89,0,0,0-.77,2.13,3.14,3.14,0,0,1-.28,1.17c-.2.53-.41,1.19-.62,2-.24.54-.56,1.31-1,2.34s-.82,2.12-1.25,3.27-.77,2.15-1,3a7.18,7.18,0,0,0-.41,1.43,6.57,6.57,0,0,1,0,.77,1.35,1.35,0,0,1-.4.8c-.27,0-.42.38-.43,1.09a21.79,21.79,0,0,1-1.23,5.2c-.81,3.59-1.55,6.9-2.23,9.9a25.35,25.35,0,0,0-.8,7.19,28.12,28.12,0,0,1,.14,3A1.44,1.44,0,0,1,365.68,712.09Z"/><path class="cls-2" d="M384.51,707.67a3.61,3.61,0,0,1-2.72-1.88,9.53,9.53,0,0,1-1.51-3.3q0-.78.09-2.22c0-1,.07-2,.13-3,.18-1.23.45-2.74.79-4.53s.71-3.6,1.09-5.42.73-3.39,1.05-4.7a21,21,0,0,1,.65-2.35,1.27,1.27,0,0,1,1.61-.5,4.33,4.33,0,0,1,1.92,1,3.64,3.64,0,0,1,.89,1.76,9.17,9.17,0,0,1-.09,3.09q-.32,2-1.26,6.05t-1.24,6.3a18.21,18.21,0,0,0-.11,5,39.11,39.11,0,0,1-.32,4A.83.83,0,0,1,384.51,707.67Zm9.07-39a1.07,1.07,0,0,1-.75.29,3.69,3.69,0,0,1-1.22-.44,4.31,4.31,0,0,1-1.86-.79,11.92,11.92,0,0,1-2-1.6c-.56-.57-.84-.92-.85-1.05a9.32,9.32,0,0,1,0-2.45,6.91,6.91,0,0,1,.9-2.76,3,3,0,0,1,2.29-1.45,2.82,2.82,0,0,1,.73,0l1.9.55c.61.92,1.23,2,1.86,3.1a7.15,7.15,0,0,1,1,3.4A4.06,4.06,0,0,1,393.58,668.64Z"/><path class="cls-2" d="M409,706.81a21.87,21.87,0,0,1-3.34,0,4.73,4.73,0,0,1-1.75-.47,12.61,12.61,0,0,1-1.48-1,17.38,17.38,0,0,0-1.12-1.56,8.4,8.4,0,0,0-1.09-1.18,13.33,13.33,0,0,1-.6-3.71,27.9,27.9,0,0,1,.29-5,25,25,0,0,1,1.26-5.08,23.93,23.93,0,0,0,.87-2.36,6.75,6.75,0,0,1,1.13-2.38c.78-1.27,1.65-2.6,2.62-4a20.13,20.13,0,0,1,2.44-3,9.35,9.35,0,0,1,2.1-1.76,14.55,14.55,0,0,1,2.54-1.4c.74-.3,1.49-.57,2.27-.8a10.88,10.88,0,0,1,2.7-.44,6.09,6.09,0,0,1,2.7.42A6.68,6.68,0,0,1,423,675a6.11,6.11,0,0,1,2.28,3.29,8.69,8.69,0,0,1,0,3.41,7.82,7.82,0,0,1-1.17,3,2.09,2.09,0,0,1-1.78,1,4.25,4.25,0,0,1-2.43-1.31,2.92,2.92,0,0,1-.48-1.28,5,5,0,0,1,.32-1.6,4.74,4.74,0,0,0-.15-2.78c-.32-.94-.79-1.4-1.41-1.36a5.25,5.25,0,0,0-2.85,1.26,23.56,23.56,0,0,0-3.06,2.92q-.67.81-1.86,2.46c-.78,1.11-1.55,2.31-2.29,3.6a31.45,31.45,0,0,0-1.81,3.72c-.62,2.15-1.29,4.54-2,7.15a1.22,1.22,0,0,0,.3.7,1.22,1.22,0,0,1,.3.7,2,2,0,0,0,1.53,1.73,5.25,5.25,0,0,0,2.67.56A9.22,9.22,0,0,0,412.8,701a14.53,14.53,0,0,0,3-2.19,22.2,22.2,0,0,1,3-2.38c.72-.49,1.29-.9,1.72-1.25s.64-.39.65-.13.12.38.33.36a1.1,1.1,0,0,0,.68-.42,2.87,2.87,0,0,1,1.27-1.07,3,3,0,0,1,1.26-.26c.37,0,.57.11.58.3a1.4,1.4,0,0,0,.48,1.42,3.06,3.06,0,0,1-.2,1,2.86,2.86,0,0,1-.61,1,11,11,0,0,1-1.39,1.61q-.92.91-2.46,2.25a.85.85,0,0,0-.75.23q-.35.32-.72.72a7.48,7.48,0,0,1-1.47,1.09,2.88,2.88,0,0,1-1.09.4,6.19,6.19,0,0,1-1,.54.44.44,0,0,0-.33.5,5.31,5.31,0,0,1-2.4,1.43A20.6,20.6,0,0,1,409,706.81Z"/><path class="cls-2" d="M435.63,702.87a4.86,4.86,0,0,1-1.54-.41,2.39,2.39,0,0,0-.3-.94,2.43,2.43,0,0,1-.3-.95c-.49-.23-.77-.49-.85-.78a3,3,0,0,1,.23-1.5,31.8,31.8,0,0,0,1.47-3.19c.61-1.47,1.24-3.07,1.91-4.8s1.3-3.44,1.9-5.14l1.54-4.35q.63-1.8.72-2.19a2.1,2.1,0,0,1,.26-1,3.51,3.51,0,0,1,.67-1,1.42,1.42,0,0,1,1.74-.23,4.39,4.39,0,0,1,1.66,1.66,5.32,5.32,0,0,1,.78,2.61,15,15,0,0,1-.88,3.45q-.9,2.77-2.41,6.59t-3.36,7.75c-.93,1.9-1.51,3.1-1.76,3.59A1.6,1.6,0,0,1,435.63,702.87Zm13.37-37a4.78,4.78,0,0,1-2.66-.8,8.77,8.77,0,0,1-2.47-2.2,4.89,4.89,0,0,1-1.1-2.79,2.73,2.73,0,0,1,.56-1.37l1.17-1.78a3.35,3.35,0,0,0,.57-1.08q.82,0,1.29,0a3.4,3.4,0,0,1,1.21.38,12.25,12.25,0,0,0,3,3.82c1.18,1,1.77,1.81,1.8,2.52a5.23,5.23,0,0,1-.3,2.65C451.8,665.56,450.78,665.78,449,665.85Z"/><path class="cls-2" d="M453.38,703.34a3.42,3.42,0,0,0-1.06-1.16c-.42-.27-.63-.53-.64-.79a6.08,6.08,0,0,0-.09-.81,1.31,1.31,0,0,0-.49-.8q-.53-.56,0-2.64a36.52,36.52,0,0,1,1.82-5.17q1.31-3.08,3.11-6.51a11.15,11.15,0,0,0,1.56-2.07,10.18,10.18,0,0,1,1.16-1.68A1.07,1.07,0,0,1,459,681a1,1,0,0,1,.71-.36l0-.58a3.45,3.45,0,0,1,.92-1.67c.62-.79,1.39-1.66,2.31-2.62s1.88-1.89,2.88-2.79a18.19,18.19,0,0,1,2.5-2,11,11,0,0,1,4.42-1.77,5.21,5.21,0,0,1,4,.85l1,.93c.49.43,1.07.91,1.73,1.44l2.05,1.62,3.86,3.07L483.7,682a12.24,12.24,0,0,0-.5,6.73,16.26,16.26,0,0,0,2.11,4.94,5.22,5.22,0,0,0,2.13,2,8,8,0,0,0,3,1.08,3.36,3.36,0,0,1,1.53.54,1.74,1.74,0,0,1,.75,1.52,2.68,2.68,0,0,1-.38,1.55,2.13,2.13,0,0,1-1.4.8,9.13,9.13,0,0,1-6.26-1.39,17.89,17.89,0,0,1-5.49-6.19,13.31,13.31,0,0,1-1.12-2.13,15,15,0,0,1-.82-2l-1.48,1.82c-.72.89-1.28,1.53-1.67,1.93-4.67,4.75-8.69,8-12.11,9.66S455.72,704.66,453.38,703.34ZM459,697.7a17.11,17.11,0,0,0,4.62-2.81q3.34-2.91,6.76-6.37a52.1,52.1,0,0,0,5.46-6.41l2.15-3.52a7.36,7.36,0,0,0-2.28-3,3.77,3.77,0,0,0-2-.76q-1.33,0-3.87,2.43a43.71,43.71,0,0,0-5.37,6.32,74.9,74.9,0,0,0-5.3,8.64c-.63,1.31-1.41,3.16-2.33,5.57C456.83,698.27,457.55,698.23,459,697.7Z"/><path class="cls-2" d="M506.19,704q-5.06.07-7.44-3.33a3,3,0,0,1-.7-2,1.67,1.67,0,0,1,.59-1.4c.36-.26.82,0,1.38.65a8.71,8.71,0,0,0,4.06.7,16.47,16.47,0,0,0,2.73-.29,17.19,17.19,0,0,0,2.83-.76,6.88,6.88,0,0,0,2-1.22c.33-.36.26-.66-.21-.91h.1a22.65,22.65,0,0,1-5.36-2.09,24,24,0,0,1-4.68-3.19,6.69,6.69,0,0,1-2.29-3.17,9.54,9.54,0,0,1,.29-6.11,17,17,0,0,1,3.39-5.57l2-1.24a5.83,5.83,0,0,1,1.94-.84v.09a14.41,14.41,0,0,1,4.73-3.13q2.81-1.18,6-2.18l1.54-.21a15.27,15.27,0,0,1,2-.21c-.07,0,.07,0,.42.14s.65.17.92.23a2.62,2.62,0,0,0,1,.29,4.84,4.84,0,0,1,2.47,1.13,7.4,7.4,0,0,1,1.81,2.25,3.75,3.75,0,0,1,.47,2.44,7.06,7.06,0,0,1-1.16,3.27,3.35,3.35,0,0,1-2.29,1.65c.14-.06,0-.18-.26-.34s-.63-.33-1-.52l-.31.2a3.12,3.12,0,0,0-.31-.86,2.69,2.69,0,0,1-.31-1.3,11.16,11.16,0,0,1,.09-1.58c.13-.71.14-1.12,0-1.25s-.57-.22-1.39-.28a9.53,9.53,0,0,0-4.14.52,14.19,14.19,0,0,0-4.54,2.16,37.8,37.8,0,0,0-3.75,2.59,16.55,16.55,0,0,0-2.42,2.34,13,13,0,0,0-1.59,2.57,10.7,10.7,0,0,0-.85,1.31,2.37,2.37,0,0,0-.34,1.11c0,.7.58,1.42,1.71,2.13a36.11,36.11,0,0,0,5.08,2.48,23,23,0,0,1,4.5,2.25,6.81,6.81,0,0,1,2.56,2.85,1.57,1.57,0,0,1,.17.91,1.23,1.23,0,0,1-.25.72c.14.13.2.22.2.29v-.1a2,2,0,0,1,.08,2.4,6.18,6.18,0,0,1-2.51,2.19,15.89,15.89,0,0,1-4.28,1.44h.1a15.4,15.4,0,0,1-2.57.56A20.43,20.43,0,0,1,506.19,704Z"/><path class="cls-2" d="M582.21,707.36A2.66,2.66,0,0,1,580,707a3.6,3.6,0,0,1-1.22-1.8,22.74,22.74,0,0,1-1.08-4.87,20.44,20.44,0,0,1-.07-4.66l.24-2-4,2.91a24.66,24.66,0,0,1-6.7,4,15.86,15.86,0,0,1-5.63,1.18,8.07,8.07,0,0,1-4.18-2.25,7.57,7.57,0,0,1-1.35-1.83,7.08,7.08,0,0,1-.33-3.65,22.41,22.41,0,0,1,1.26-5,33.68,33.68,0,0,1,2.5-5.36,22.3,22.3,0,0,1,3.46-4.62q3.43-4.75,7.35-5.76a9.88,9.88,0,0,1,7.66,1.18,9.67,9.67,0,0,0,3.31,1c.45-.05.85-.78,1.22-2.18.3-1,.59-2.06.89-3.11s.77-2.46,1.42-4.24q2.73-7.24,4.74-11.32t3.64-7.12a7.73,7.73,0,0,1,2-2.68,2.35,2.35,0,0,1,1.62-.4,3.18,3.18,0,0,1,2.05.83,5,5,0,0,1,1.4,2.15,3,3,0,0,1,.32,1.5,4.52,4.52,0,0,1-.72,1.66q-1.41,2.26-3.32,6t-3.82,8.21q-1.91,4.46-3.55,8.84t-2.73,7.72a38.92,38.92,0,0,0-1.19,5.35q-.53,3.26-.9,6.65c-.25,2.27-.41,4.29-.48,6a15,15,0,0,0,.08,3.41,9.17,9.17,0,0,1,.49,2.89,1.58,1.58,0,0,1-.58,1.29A3.65,3.65,0,0,1,582.21,707.36Zm-16.92-10.93a9.57,9.57,0,0,0,2.8-1c.92-.5,1.89-1.1,2.92-1.79q3.07-2.16,5.35-3.94a9.1,9.1,0,0,0,3-5.52,5.17,5.17,0,0,0-.3-2.93,6.45,6.45,0,0,0-1.75-2.1,5.56,5.56,0,0,0-3.31-.68,7.68,7.68,0,0,0-4.38,2,25.66,25.66,0,0,0-8.32,14.3,1.39,1.39,0,0,0,.59,1.54C562.48,696.68,563.59,696.73,565.29,696.43Z"/><path class="cls-2" d="M605.15,706.41A9.31,9.31,0,0,1,598,703a11.32,11.32,0,0,1-2.52-8.09,30.44,30.44,0,0,1,1.67-7.39,38.55,38.55,0,0,1,3.63-7.59,37.05,37.05,0,0,1,4.9-6.34,15.39,15.39,0,0,1,5.46-3.76,11.15,11.15,0,0,1,2.23-.69,9.9,9.9,0,0,1,2.43-.21,9.33,9.33,0,0,1,2.35.42,13.26,13.26,0,0,1,2,.8,7.27,7.27,0,0,1,2.61,1.73,8.25,8.25,0,0,1,1.52,3,17.78,17.78,0,0,1,.21,2.6,8.15,8.15,0,0,1-.6,2.28,21.54,21.54,0,0,1-3.39,5.83,16,16,0,0,1-5.35,4,6.42,6.42,0,0,1-1.91.65,10,10,0,0,1-2.19.17,11,11,0,0,1-3.89-.85,6.83,6.83,0,0,1-2.94-2.25l-.69-.79-.33.76a41.16,41.16,0,0,0-1.72,4.75,17,17,0,0,0-.67,4,9.48,9.48,0,0,0,.19,2.21,5.58,5.58,0,0,0,.71,1.85A2.22,2.22,0,0,0,603,701a8.89,8.89,0,0,0,2.07.31c.47,0,1,0,1.46,0a4.43,4.43,0,0,0,1.48-.29,13.12,13.12,0,0,0,2.83-1.15c.72-.43,1.46-.88,2.22-1.37l.41-.18h-.1a35.81,35.81,0,0,0,3.21-1.62,1.09,1.09,0,0,0,.82-.45,2.35,2.35,0,0,1,2.07.37,2,2,0,0,1,1.2,1.77,4.53,4.53,0,0,1-1,1.46,16.46,16.46,0,0,1-1.84,1.8,3.59,3.59,0,0,1-1.61.9,2.47,2.47,0,0,1-.72.31,2.63,2.63,0,0,0-.82.41h.1a2.45,2.45,0,0,1-1.86,1.09l-.81,0a5.53,5.53,0,0,1-2.67,1.4A12.87,12.87,0,0,1,605.15,706.41Zm5.24-21a5.35,5.35,0,0,0,3.25-.9,12.94,12.94,0,0,0,2.47-2.17,10.73,10.73,0,0,0,2.58-5c.3-1.62.12-2.76-.54-3.43a3.45,3.45,0,0,0-1.06-.37,6.17,6.17,0,0,0-1.81.27,7.56,7.56,0,0,0-2.61,1.35,36.32,36.32,0,0,0-3.31,2.68,27.23,27.23,0,0,0-2.49,2.51l-1.39,2a5.82,5.82,0,0,1,1.6-.29c.51,0,.8,0,.86.17a3.35,3.35,0,0,0,.31,1.59,2.77,2.77,0,0,0,.88,1.14A2.12,2.12,0,0,0,610.39,685.44Z"/><path class="cls-2" d="M649.4,711.11c-1.18-.7-1.8-1.43-1.86-2.21s.46-2.09,1.57-3.95,2.84-4.76,5.22-8.67c1.78-2.79,3.14-5,4.08-6.56s1.58-2.71,1.93-3.4a5,5,0,0,0,.53-1.31,1.59,1.59,0,0,1,.28-1.38,3.13,3.13,0,0,1,1.38-.84c.36-.3,1-.84,1.78-1.63a16.74,16.74,0,0,0,2.37-2.84q1.05-2,2.4-4t3.6-5.12l5.88-8.05c1.51-2.15,3.18-4.33,5-6.56s3.72-4.42,5.74-6.59a20.53,20.53,0,0,1,2.23-2,2.49,2.49,0,0,1,1.92-.59,6.8,6.8,0,0,1,2.8,1,12.17,12.17,0,0,1,2.81,2.22,8,8,0,0,1,1.77,2.83,6.15,6.15,0,0,1,.18,3.28q-.29,2.49-.86,6c-.38,2.34-.81,4.85-1.28,7.51s-.93,5.67-1.6,9.22-1.33,7.25-2,11.11-1.22,7.6-1.68,11.19a73.42,73.42,0,0,0-.68,9.43,6.6,6.6,0,0,1-.11,1.63,8.6,8.6,0,0,0-.19,1.24,2.72,2.72,0,0,1-2,.39,7,7,0,0,1-2.57-.81,2.29,2.29,0,0,1-1.36-1.54,1.22,1.22,0,0,1-.3-.84,18.33,18.33,0,0,1,.21-2.24c.14-1.15.34-3,.58-5.45q.78-7.74,1.57-15.48h-1.33c-.61-.05-1.77-.06-3.48-.05s-3.55.07-5.53.17-3.82.2-5.5.32a24.23,24.23,0,0,0-3.45.42,3.56,3.56,0,0,0-2.26,1,13.51,13.51,0,0,0-2.57,2.83,9.68,9.68,0,0,1-1.63,2.74,5,5,0,0,0-1.18,1.9,7.11,7.11,0,0,0-1.73,1.73A10.62,10.62,0,0,1,659,700c-.72,1.46-1.61,3.08-2.65,4.85a41.9,41.9,0,0,1-3.08,4.59l-2.28,3Zm22.74-29.67c1.44-.17,2.67-.3,3.67-.4a16.94,16.94,0,0,1,2.72-.07q4.35-.68,6.32-.88a17.42,17.42,0,0,1,2.73-.15,3.16,3.16,0,0,1,1.36.38,2.16,2.16,0,0,0,1.08.75,16.5,16.5,0,0,0,.46-2.18c.22-1.33.53-3,.91-4.94s.76-4,1.15-6.13.72-4.09,1-5.9.47-3.19.61-4.14c.15-1.21.37-2.8.65-4.77-.42,0-1.35.62-2.79,1.92a51.77,51.77,0,0,0-4.87,5.25,71.56,71.56,0,0,0-5.13,7.07c-.76,1.17-1.49,2.21-2.16,3.13s-1.19,1.37-1.53,1.34a15.05,15.05,0,0,0-1.29,1.61c-.71.94-1.48,2-2.31,3.22s-1.51,2.28-2.05,3.24S671.94,681.3,672.14,681.44Z"/><path class="cls-2" d="M705.26,707a5.89,5.89,0,0,1-1.42-1.27,2.4,2.4,0,0,1-.39-1.67,12.56,12.56,0,0,1,.64-3c.35-1,.7-2.05,1-3.05s.5-2.29.83-3.45a9.12,9.12,0,0,1,1.63-3.19q1.39-3.55,2.91-7c1-2.33,1.92-4.74,2.74-7.24q1.61-3.43,2.91-6.08c.87-1.75,2-4,3.29-6.71a42,42,0,0,0,2-5,15.34,15.34,0,0,1,2.53-4.75c.46-.54.83-1,1.1-1.4a12.58,12.58,0,0,1,.88-1.13c.09-.25.33-.39.72-.43a3.09,3.09,0,0,1,1.28.21,2.2,2.2,0,0,1,1.08.77c.22,0,.46.15.74.59a11.87,11.87,0,0,1,.75,1.47,2.11,2.11,0,0,1,.2,1.36,5,5,0,0,1-.25,1,3.29,3.29,0,0,1-.68,1.19,4.33,4.33,0,0,0-.87,1c-.28.45-.7,1.08-1.25,1.86-.35.81-.66,1.63-.94,2.48a11.55,11.55,0,0,1-1,2.27,16.12,16.12,0,0,1-1.17,2.12,10.42,10.42,0,0,0-.91,1.65,39.22,39.22,0,0,1-2.06,4.16,33.75,33.75,0,0,0-2.07,4.36q-.9,2.24-1.82,4.62a20,20,0,0,1-2.42,4.47,7.24,7.24,0,0,0-1.24,2.6l-.87,3.2q-.75,1.68-1.32,3.12a9.11,9.11,0,0,0-.61,1.83,25.83,25.83,0,0,0-1.19,4.09,10.45,10.45,0,0,1-1.35,3.51,4.44,4.44,0,0,1-.52,1.5,1.15,1.15,0,0,1-1.06.54A4.18,4.18,0,0,1,705.26,707Z"/><path class="cls-2" d="M725.47,708.49a7.7,7.7,0,0,1-1.87-1.94,4.3,4.3,0,0,1-.67-2.9,22.6,22.6,0,0,1,.68-3.22c.41-1.5.92-3.19,1.56-5.07s1.27-3.61,1.89-5.23a27.7,27.7,0,0,0,2-3.29,9,9,0,0,0,.89-2c.21-.75.47-1.63.8-2.63s.67-1.9,1-2.7a4.63,4.63,0,0,1,.75-1.38,2.42,2.42,0,0,1,2.75-.19,2.36,2.36,0,0,1,1.06,1.4,3.74,3.74,0,0,1,.87,2.82,14.85,14.85,0,0,1-1.54,4.54,43.84,43.84,0,0,0-2.24,4.33c-.77,1.66-1.43,3.19-2,4.59a21.07,21.07,0,0,0-1,2.85l-2.08.39a43.67,43.67,0,0,0,3.53-2.91c1.11-1,1.94-1.84,2.47-2.43q1.93-2,3.34-3.41t3.64-3.28a8.77,8.77,0,0,1,4.29-2.34,13.41,13.41,0,0,1,3.16-.23,5.65,5.65,0,0,1,3.41,2.51,10.44,10.44,0,0,1,1.27,5.38,43.81,43.81,0,0,1-1,4.92,50.58,50.58,0,0,1,6.84-5.78,8.63,8.63,0,0,1,3.93-1.19,3.76,3.76,0,0,1,3.13,1.53,6.54,6.54,0,0,1,3,4.43,18.47,18.47,0,0,1-.34,7,14,14,0,0,0-.49,3.67,14.93,14.93,0,0,0,.35,2.4c.51.31.56.85.14,1.61s-.87,1.11-1.34,1.06a8.12,8.12,0,0,1-2.23-.62,5.5,5.5,0,0,1-2.08-1.52,3.34,3.34,0,0,1-.7-2.63c.21-2,.41-4,.62-5.92a30.6,30.6,0,0,0,.21-3.46q0-1.35-.39-1.68c-.71-.46-1.83-.16-3.38.91a35,35,0,0,0-5.06,4.41c-1.82,1.87-3.55,3.82-5.17,5.85a29.88,29.88,0,0,1-2.71,3.16c-.33.26-.84.13-1.54-.39a4.19,4.19,0,0,1-2.59-2.13,4,4,0,0,1,.1-2.74c.44-1.05,1-2.47,1.69-4.27l2-5.26c.64-1.71,1.06-2.94,1.27-3.69a1.1,1.1,0,0,0-1.32-.66,6.57,6.57,0,0,0-2.07.72,14,14,0,0,0-3.22,2.59,58.74,58.74,0,0,0-4,4.55c-.92,1.13-1.88,2.25-2.86,3.35s-1.89,2.06-2.71,2.89a15.32,15.32,0,0,1-2.1,1.83c-1.07,1.32-1.77,2-2.12,2.13S726.37,709,725.47,708.49Z"/><path class="cls-2" d="M783.26,715.86a5,5,0,0,1-2.57-.68,7.53,7.53,0,0,1-2.29-1.9,4.82,4.82,0,0,1-1.11-2.35A10.13,10.13,0,0,1,778.4,706a36.09,36.09,0,0,1,3.55-6.07,56,56,0,0,1,5-6,39.09,39.09,0,0,1,5.62-4.9,16,16,0,0,1,5.23-2.62,10.35,10.35,0,0,1,1.89-.69,2.41,2.41,0,0,1,1.44.12,12.87,12.87,0,0,1,2.17,1.23,7.55,7.55,0,0,1,2,1.12,9.29,9.29,0,0,1,1.6,2.14,13.07,13.07,0,0,1,.87,3,32.77,32.77,0,0,1,.31,3.32,7.05,7.05,0,0,1,.22,3.18,2.39,2.39,0,0,1-.75,1c-.62.57-.79.87-.52.91a3.75,3.75,0,0,1-.68,1.27,27.16,27.16,0,0,0-1.6,4.2,8.82,8.82,0,0,0-.4,3.67,3.71,3.71,0,0,0,2.62,2.85q2.06.65,4.55-1.17c.8-.41,1.57-.78,2.29-1.11s1.06-.24,1,.27a1.85,1.85,0,0,0,.95.61.65.65,0,0,1,.61.46,1.78,1.78,0,0,1-.13,1,4.87,4.87,0,0,1-.84,1.3c-1.13.82-1.71,1.39-1.75,1.71q-.8.57-1.68,1.14a9.22,9.22,0,0,1-4.71.47,7.53,7.53,0,0,1-4.15-1.59,11.11,11.11,0,0,1-2.41-3.2,11.5,11.5,0,0,1-1.28-3.34l-.39-1-3.15,1.46a28.72,28.72,0,0,1-2.61,1.72c-.92.54-1.52.92-1.82,1.14a5,5,0,0,1-.73.59,1.15,1.15,0,0,1-.79.19l-1-.11c0,.25-.39.53-1.07.84a10,10,0,0,1-2.32.7A8.52,8.52,0,0,1,783.26,715.86Zm1.85-5.93c1.11-.48,2.38-1.06,3.78-1.73a43.24,43.24,0,0,0,3.83-2.07,19,19,0,0,0,2.4-1.65c.3-.22.79-.59,1.47-1.13s1.28-1,1.81-1.37a14,14,0,0,0,3.91-5.09c.86-1.93,1-3.51.38-4.74-.19-.73-.48-1.15-.88-1.27a6.68,6.68,0,0,0-2.63.36,13.66,13.66,0,0,0-3.3,2.17q-2,1.65-4.27,3.84t-4.28,4.58a43.71,43.71,0,0,0-3.38,4.44,8.52,8.52,0,0,0-1.51,3.31,1.66,1.66,0,0,0,.4,1A5.48,5.48,0,0,0,785.11,709.93Z"/></g></svg>